{"glyphs":{"0":{"ha":742,"x_min":54,"x_max":688,"o":"m 370 -12 l 370 -12 q 233 18 292 -12 q 134 105 174 47 q 74 248 94 163 q 54 443 54 333 l 54 443 q 74 638 54 553 q 134 782 94 724 q 233 871 174 841 q 370 901 292 901 l 370 901 q 508 871 449 901 q 607 782 568 841 q 667 638 647 724 q 688 444 688 553 l 688 444 q 667 248 688 333 q 607 105 647 163 q 508 18 568 47 q 370 -12 449 -12 z m 370 144 l 370 144 q 433 168 408 144 q 472 232 458 191 q 491 327 486 273 q 497 444 497 382 l 497 444 q 491 561 497 506 q 472 656 486 615 q 433 721 458 698 q 370 744 408 744 l 370 744 q 309 721 333 744 q 270 656 284 698 q 250 561 256 615 q 244 444 244 506 l 244 444 q 250 327 244 382 q 270 232 256 273 q 309 168 284 191 q 370 144 333 144 z "},"1":{"ha":742,"x_min":104,"x_max":531,"o":"m 531 0 l 342 0 l 342 679 q 288 631 320 654 q 211 591 256 608 q 104 565 166 574 l 104 565 l 104 732 q 214 768 167 745 q 297 822 261 791 q 360 890 332 853 l 360 890 l 531 890 l 531 0 z "},"2":{"ha":742,"x_min":49,"x_max":692,"o":"m 692 0 l 49 0 l 49 125 l 374 420 q 457 520 430 472 q 485 619 485 568 l 485 619 q 460 707 485 672 q 373 743 435 743 l 373 743 q 273 700 303 743 q 243 589 243 657 l 243 589 l 71 589 q 106 757 71 687 q 209 864 141 827 q 373 901 277 901 l 373 901 q 529 869 463 901 q 632 777 595 837 q 669 632 669 718 l 669 632 q 643 506 669 561 q 574 403 618 450 q 476 308 530 356 l 476 308 l 300 153 l 692 153 l 692 0 z "},"3":{"ha":742,"x_min":46,"x_max":695,"o":"m 375 -12 l 375 -12 q 132 60 218 -12 q 46 278 46 132 l 46 278 l 218 278 q 259 173 218 211 q 374 136 300 136 l 374 136 q 476 168 441 136 q 511 268 511 199 l 511 268 q 468 364 511 334 q 357 394 425 394 l 357 394 l 302 394 l 302 535 l 362 535 q 460 567 423 535 q 498 650 498 598 l 498 650 q 465 728 498 703 q 374 753 432 753 l 374 753 q 276 721 311 753 q 242 631 242 688 l 242 631 l 70 631 q 110 783 70 724 q 219 871 151 842 q 373 901 288 901 l 373 901 q 521 876 453 901 q 630 799 589 851 q 671 666 671 747 l 671 666 q 630 536 671 584 q 519 469 589 488 l 519 469 q 645 401 595 453 q 695 254 695 349 l 695 254 q 656 109 695 168 q 546 19 617 50 q 375 -12 474 -12 z "},"4":{"ha":742,"x_min":24,"x_max":717,"o":"m 599 0 l 420 0 l 420 163 l 24 163 l 24 316 l 420 890 l 599 890 l 599 311 l 717 311 l 717 163 l 599 163 l 599 0 z m 424 663 l 189 311 l 424 311 l 424 663 z "},"5":{"ha":742,"x_min":45,"x_max":697,"o":"m 374 -12 l 374 -12 q 208 18 283 -12 q 90 109 134 47 q 45 263 45 170 l 45 263 l 225 263 q 267 169 225 202 q 374 135 309 135 l 374 135 q 474 174 436 135 q 513 300 513 214 l 513 300 q 472 413 513 378 q 368 448 432 448 l 368 448 q 289 433 319 448 q 240 395 258 418 l 240 395 l 79 395 l 117 888 l 628 888 l 628 735 l 263 735 l 248 534 q 309 573 270 557 q 406 590 348 590 l 406 590 q 549 561 483 590 q 656 468 616 532 q 697 300 697 404 l 697 300 q 654 126 697 195 q 539 22 612 57 q 374 -12 466 -12 z "},"6":{"ha":742,"x_min":47,"x_max":699,"o":"m 389 -12 l 389 -12 q 213 34 290 -12 q 91 179 136 80 q 47 438 47 279 l 47 438 q 91 700 47 597 q 213 851 135 802 q 390 901 290 901 l 390 901 q 589 836 515 901 q 682 654 663 772 l 682 654 l 509 654 q 468 728 498 704 q 390 753 437 753 l 390 753 q 272 675 313 753 q 231 438 231 598 l 231 438 l 231 393 q 254 240 231 297 q 313 159 277 184 q 389 135 349 135 l 389 135 q 484 177 452 135 q 515 283 515 219 l 515 283 q 485 380 515 345 q 399 415 454 415 l 399 415 q 270 379 325 415 q 186 288 216 342 l 186 288 l 174 417 q 240 489 204 456 q 323 542 276 522 q 433 561 370 561 l 433 561 q 569 530 509 561 q 664 437 629 498 q 699 285 699 375 l 699 285 q 663 131 699 198 q 558 26 627 64 q 389 -12 489 -12 z "},"7":{"ha":742,"x_min":54,"x_max":690,"o":"m 332 0 l 138 0 l 508 726 l 54 726 l 54 888 l 690 888 l 690 741 l 332 0 z "},"8":{"ha":742,"x_min":53,"x_max":689,"o":"m 372 -12 l 372 -12 q 255 3 312 -12 q 152 50 198 18 q 80 132 106 81 q 53 254 53 182 l 53 254 q 98 391 53 338 q 217 466 144 445 l 217 466 q 124 538 159 488 q 90 665 90 589 l 90 665 q 130 801 90 749 q 234 877 170 853 q 372 901 298 901 l 372 901 q 509 877 444 901 q 613 801 573 852 q 653 665 653 749 l 653 665 q 615 537 653 589 q 526 466 578 485 l 526 466 q 644 391 599 445 q 689 254 689 338 l 689 254 q 662 132 689 182 q 590 50 635 81 q 489 3 545 18 q 372 -12 432 -12 z m 371 132 l 371 132 q 437 146 406 132 q 488 191 469 161 q 507 268 507 221 l 507 268 q 488 339 507 310 q 439 382 470 368 q 372 396 409 397 l 372 396 q 307 382 338 397 q 256 339 275 368 q 236 268 236 311 l 236 268 q 277 166 236 200 q 371 132 317 132 z m 372 534 l 372 534 q 429 547 403 533 q 472 587 456 560 q 488 652 488 613 l 488 652 q 453 737 488 710 q 372 764 418 764 l 372 764 q 315 752 342 764 q 272 715 289 740 q 256 652 256 690 l 256 652 q 272 587 256 614 q 314 547 288 560 q 372 534 341 533 z "},"9":{"ha":742,"x_min":45,"x_max":698,"o":"m 345 -12 l 345 -12 q 194 18 257 -12 q 94 104 131 49 q 46 233 56 159 l 46 233 l 222 233 q 261 161 231 188 q 345 135 292 135 l 345 135 q 469 203 424 135 q 514 422 514 272 l 514 422 l 514 498 q 493 648 514 591 q 436 729 471 704 q 361 753 401 753 l 361 753 q 262 712 295 753 q 229 606 229 670 l 229 606 q 260 508 229 544 q 345 473 290 473 l 345 473 q 434 489 397 473 q 502 534 471 506 q 561 597 532 562 l 561 597 l 564 471 q 506 407 538 439 q 428 351 473 374 q 317 328 382 328 l 317 328 q 178 360 239 328 q 80 454 116 392 q 45 605 45 516 l 45 605 q 82 758 45 691 q 189 863 119 825 q 360 901 260 901 l 360 901 q 531 855 455 901 q 653 711 608 810 q 698 453 698 612 l 698 453 q 652 186 698 288 q 527 36 607 83 q 345 -12 448 -12 z "},"\r":{"ha":0,"x_min":null,"x_max":null,"o":""}," ":{"ha":282,"x_min":null,"x_max":null,"o":""},"!":{"ha":407,"x_min":88,"x_max":318,"o":"m 252 310 l 155 310 q 126 479 141 380 q 112 692 112 579 l 112 692 l 112 913 l 296 913 l 296 692 q 282 479 296 578 q 252 310 267 380 l 252 310 z m 204 -9 l 204 -9 q 120 23 153 -9 q 88 101 88 55 l 88 101 q 120 181 88 151 q 204 211 153 211 l 204 211 q 287 181 256 211 q 318 101 318 151 l 318 101 q 287 23 318 55 q 204 -9 256 -9 z "},"\"":{"ha":583,"x_min":82,"x_max":501,"o":"m 476 563 l 368 563 q 350 687 357 627 q 343 819 343 747 l 343 819 l 343 913 l 501 913 l 501 819 q 494 688 501 746 q 476 563 487 629 l 476 563 z m 215 563 l 106 563 q 89 687 96 627 q 82 819 82 747 l 82 819 l 82 913 l 239 913 l 239 819 q 232 688 239 746 q 215 563 226 629 l 215 563 z "},"#":{"ha":746,"x_min":26,"x_max":720,"o":"m 245 0 l 121 0 l 156 254 l 26 254 l 26 367 l 172 367 l 194 525 l 64 525 l 64 637 l 210 637 l 245 888 l 368 888 l 334 637 l 469 637 l 503 888 l 627 888 l 592 637 l 720 637 l 720 525 l 576 525 l 555 367 l 681 367 l 681 254 l 539 254 l 504 0 l 380 0 l 415 254 l 280 254 l 245 0 z m 318 525 l 296 367 l 432 367 l 452 525 l 318 525 z "},"$":{"ha":742,"x_min":37,"x_max":700,"o":"m 373 -12 l 373 -12 q 204 16 280 -12 q 82 107 127 44 q 38 271 37 170 l 38 271 l 214 271 q 237 182 216 214 q 294 137 258 150 q 374 124 330 124 l 374 124 q 454 137 420 124 q 507 176 488 149 q 527 243 527 202 l 527 243 q 511 306 527 280 q 457 352 496 332 q 347 391 418 372 l 347 391 l 347 389 q 190 446 254 413 q 93 530 126 479 q 60 659 60 581 l 60 659 q 99 792 60 739 q 206 873 138 846 q 361 901 274 901 l 361 901 q 518 873 447 901 q 631 789 589 845 q 673 646 673 732 l 673 646 l 498 646 q 463 738 500 707 q 361 768 425 768 l 361 768 q 266 744 300 768 q 232 665 232 719 l 232 665 q 268 592 232 621 q 395 539 304 564 l 395 539 l 395 543 q 510 506 455 526 q 607 455 564 486 q 675 375 650 423 q 700 255 700 327 l 700 255 q 657 103 700 162 q 541 16 614 43 q 373 -12 467 -12 z m 410 -147 l 328 -147 l 328 1036 l 410 1036 l 410 -147 z "},"%":{"ha":1168,"x_min":54,"x_max":1114,"o":"m 377 0 l 249 0 l 789 888 l 918 888 l 377 0 z m 260 349 l 260 349 q 148 379 194 349 q 78 470 102 409 q 54 625 54 531 l 54 625 q 78 780 54 720 q 148 870 102 840 q 260 900 194 900 l 260 900 q 373 870 327 900 q 443 779 419 840 q 467 625 467 718 l 467 625 q 443 470 467 531 q 372 379 418 409 q 260 349 326 349 z m 260 452 l 260 452 q 310 474 292 452 q 337 535 329 496 q 345 625 345 574 l 345 625 q 337 714 345 675 q 310 775 329 753 q 260 797 292 797 l 260 797 q 210 775 229 797 q 184 714 192 753 q 176 625 176 675 l 176 625 q 184 535 176 574 q 210 474 192 496 q 260 452 229 452 z m 907 -9 l 907 -9 q 796 20 842 -9 q 726 111 750 50 q 702 266 702 172 l 702 266 q 726 421 702 360 q 796 511 750 481 q 907 541 842 541 l 907 541 q 1020 511 974 541 q 1090 420 1066 481 q 1114 265 1114 359 l 1114 265 q 1090 111 1114 172 q 1020 20 1066 50 q 907 -9 973 -9 z m 907 94 l 907 94 q 958 116 939 94 q 984 176 977 138 q 992 265 992 215 l 992 265 q 984 355 992 316 q 958 416 977 394 q 907 437 939 437 l 907 437 q 857 416 876 437 q 831 355 839 394 q 824 265 824 316 l 824 265 q 831 176 824 215 q 857 116 839 138 q 907 94 876 94 z "},"&":{"ha":940,"x_min":62,"x_max":928,"o":"m 393 -9 l 393 -9 q 227 21 302 -9 q 107 110 152 52 q 62 253 62 169 l 62 253 q 102 393 62 337 q 206 488 142 450 q 340 557 270 526 l 340 557 l 355 557 q 435 601 399 578 q 493 650 471 623 q 515 713 515 677 l 515 713 q 493 769 515 747 q 433 790 472 790 l 433 790 q 372 769 395 790 q 349 713 349 749 l 349 713 q 371 643 349 682 q 443 549 394 604 l 443 549 l 928 0 l 707 0 l 303 460 q 211 587 247 525 q 175 717 175 649 l 175 717 q 205 824 175 777 q 293 898 235 871 q 432 925 350 925 l 432 925 q 565 897 512 925 q 643 823 617 869 q 669 720 669 777 l 669 720 q 640 610 669 655 q 564 533 610 565 q 467 474 517 500 l 467 474 l 451 474 q 336 408 381 438 q 271 345 292 378 q 250 267 250 312 l 250 267 q 290 175 250 210 q 412 139 330 139 l 412 139 q 528 164 473 139 q 615 229 583 190 l 615 229 q 669 325 650 269 q 688 459 688 380 l 688 459 l 871 459 q 853 317 871 381 q 802 203 835 254 q 724 111 769 152 l 724 111 q 574 19 657 48 q 393 -9 491 -9 z "},"'":{"ha":322,"x_min":82,"x_max":240,"o":"m 215 562 l 106 562 q 89 687 96 627 q 82 819 82 747 l 82 819 l 82 913 l 240 913 l 240 819 q 233 687 240 745 q 215 562 226 629 l 215 562 z "},"(":{"ha":407,"x_min":59,"x_max":375,"o":"m 375 -237 l 224 -237 q 135 -52 172 -140 q 78 128 98 36 q 59 328 59 220 l 59 328 q 77 536 59 440 q 132 726 95 633 q 224 918 168 819 l 224 918 l 375 918 q 265 629 302 781 q 227 321 227 477 l 227 321 q 268 31 227 174 q 375 -237 309 -111 l 375 -237 z "},")":{"ha":407,"x_min":32,"x_max":348,"o":"m 182 -237 l 32 -237 q 141 52 104 -100 q 179 361 179 203 l 179 361 q 139 650 179 508 q 32 918 98 792 l 32 918 l 182 918 q 272 733 235 821 q 328 554 309 646 q 348 353 348 462 l 348 353 q 330 145 348 241 q 274 -44 311 48 q 182 -237 237 -137 l 182 -237 z "},"*":{"ha":635,"x_min":41,"x_max":594,"o":"m 315 568 l 200 402 l 109 470 l 229 630 l 41 681 l 77 791 l 259 732 l 259 918 l 375 918 l 375 732 l 557 791 l 594 681 l 406 630 l 528 471 l 435 402 l 315 568 z "},"+":{"ha":742,"x_min":53,"x_max":688,"o":"m 53 382 l 53 524 l 688 524 l 688 382 l 53 382 z m 442 134 l 299 134 l 299 771 l 442 771 l 442 134 z "},",":{"ha":416,"x_min":85,"x_max":323,"o":"m 109 -210 l 109 -210 l 85 -121 q 162 -77 132 -106 q 198 0 192 -47 l 198 0 l 210 -9 q 125 23 157 -9 q 93 101 93 55 l 93 101 q 125 181 93 151 q 210 211 157 211 l 210 211 q 292 175 260 211 q 323 69 323 140 l 323 69 q 292 -72 323 -14 q 212 -164 260 -130 q 109 -210 163 -198 z "},"-":{"ha":473,"x_min":49,"x_max":424,"o":"m 424 258 l 49 258 l 49 411 l 424 411 l 424 258 z "},".":{"ha":416,"x_min":93,"x_max":323,"o":"m 210 -9 l 210 -9 q 125 23 157 -9 q 93 101 93 55 l 93 101 q 125 181 93 151 q 210 211 157 211 l 210 211 q 292 181 260 211 q 323 101 323 151 l 323 101 q 292 23 323 55 q 210 -9 260 -9 z "},"/":{"ha":537,"x_min":22,"x_max":515,"o":"m 182 0 l 22 0 l 354 913 l 515 913 l 182 0 z "},":":{"ha":416,"x_min":93,"x_max":323,"o":"m 210 -9 l 210 -9 q 125 23 157 -9 q 93 101 93 55 l 93 101 q 125 181 93 151 q 210 211 157 211 l 210 211 q 292 181 260 211 q 323 101 323 151 l 323 101 q 292 23 323 55 q 210 -9 260 -9 z m 210 441 l 210 441 q 125 473 157 441 q 93 551 93 505 l 93 551 q 125 631 93 602 q 210 661 157 661 l 210 661 q 292 631 260 661 q 323 551 323 602 l 323 551 q 292 473 323 505 q 210 441 260 441 z "},";":{"ha":416,"x_min":85,"x_max":323,"o":"m 109 -210 l 109 -210 l 85 -121 q 162 -77 132 -106 q 198 0 192 -47 l 198 0 l 210 -9 q 125 23 157 -9 q 93 101 93 55 l 93 101 q 125 181 93 151 q 210 211 157 211 l 210 211 q 292 175 260 211 q 323 69 323 140 l 323 69 q 292 -72 323 -14 q 212 -164 260 -130 q 109 -210 163 -198 z m 210 441 l 210 441 q 125 473 157 441 q 93 551 93 505 l 93 551 q 125 631 93 602 q 210 661 157 661 l 210 661 q 292 631 260 661 q 323 551 323 602 l 323 551 q 292 473 323 505 q 210 441 260 441 z "},"<":{"ha":742,"x_min":54,"x_max":689,"o":"m 54 413 l 54 543 l 689 795 l 689 652 l 54 413 z m 689 101 l 54 363 l 54 494 l 689 245 l 689 101 z "},"=":{"ha":742,"x_min":53,"x_max":688,"o":"m 688 246 l 53 246 l 53 389 l 688 389 l 688 246 z m 688 517 l 53 517 l 53 660 l 688 660 l 688 517 z "},">":{"ha":742,"x_min":53,"x_max":688,"o":"m 53 795 l 688 543 l 688 413 l 53 652 l 53 795 z m 688 494 l 688 363 l 53 101 l 53 245 l 688 494 z "},"?":{"ha":719,"x_min":45,"x_max":673,"o":"m 432 311 l 266 311 q 265 328 265 319 q 264 345 264 336 l 264 345 q 291 456 264 413 q 373 538 317 499 l 373 538 q 454 607 428 577 q 480 680 480 637 l 480 680 q 451 750 480 723 q 362 777 422 777 l 362 777 q 263 745 297 777 q 229 654 230 712 l 229 654 l 45 654 q 84 800 45 740 q 195 891 123 860 q 362 922 266 922 l 362 922 q 526 894 456 922 q 635 811 596 865 q 673 680 673 757 l 673 680 q 655 582 673 623 q 603 510 637 541 q 524 448 570 478 l 524 448 q 470 406 489 426 q 443 363 451 386 q 432 311 435 340 l 432 311 z m 351 -9 l 351 -9 q 267 23 299 -9 q 235 101 235 55 l 235 101 q 267 181 235 151 q 351 211 299 211 l 351 211 q 434 181 402 211 q 466 101 466 151 l 466 101 q 434 23 466 55 q 351 -9 402 -9 z "},"@":{"ha":1250,"x_min":67,"x_max":1183,"o":"m 637 -146 l 637 -146 q 340 -83 468 -146 q 139 99 212 -21 q 67 390 67 218 l 67 390 q 108 612 67 513 q 224 781 149 711 q 402 888 300 850 q 629 925 505 925 l 629 925 q 871 885 767 925 q 1044 774 975 844 q 1148 613 1114 704 q 1183 423 1183 523 l 1183 423 q 1151 248 1183 317 q 1065 145 1120 179 q 940 112 1010 112 l 940 112 q 824 138 873 112 q 755 214 776 163 l 755 214 q 691 141 736 171 q 576 112 646 112 l 576 112 q 452 145 505 112 q 369 241 399 179 q 339 388 339 303 l 339 388 q 370 531 339 471 q 454 623 400 591 q 578 656 508 656 l 578 656 q 675 637 634 656 q 737 587 716 618 l 737 587 l 743 646 l 898 646 l 898 309 q 913 255 898 271 q 959 239 929 239 l 959 239 q 1011 261 991 239 q 1041 325 1031 283 q 1051 420 1051 366 l 1051 420 q 1001 620 1051 534 q 857 753 951 706 q 629 801 763 801 l 629 801 q 401 752 498 801 q 251 610 304 703 q 198 390 198 518 l 198 390 q 253 160 198 252 q 405 23 307 68 q 630 -22 502 -22 l 630 -22 q 771 -9 703 -22 q 892 26 840 3 l 892 26 l 892 -105 q 773 -135 839 -125 q 637 -146 707 -146 z m 621 241 l 621 241 q 691 262 665 241 q 727 317 716 283 q 737 391 737 351 l 737 391 q 727 457 737 426 q 691 509 716 489 q 623 529 666 529 l 623 529 q 554 509 579 529 q 518 457 528 489 q 508 391 508 426 l 508 391 q 518 318 508 353 q 553 263 528 284 q 621 241 578 241 z "},"A":{"ha":861,"x_min":2,"x_max":859,"o":"m 199 0 l 2 0 l 330 913 l 530 913 l 859 0 l 661 0 l 595 201 l 266 201 l 199 0 z m 430 724 l 311 359 l 549 359 l 430 724 z "},"B":{"ha":860,"x_min":109,"x_max":803,"o":"m 456 0 l 109 0 l 109 913 l 421 913 q 655 857 569 913 q 741 685 741 801 l 741 685 q 705 562 741 612 q 608 489 669 511 l 608 489 q 753 412 703 470 q 803 268 803 353 l 803 268 q 761 117 803 176 q 642 29 720 58 q 456 0 564 0 l 456 0 z m 300 397 l 300 158 l 449 158 q 530 169 494 158 q 588 209 567 180 q 610 284 610 237 l 610 284 q 564 371 610 345 q 449 397 519 397 l 449 397 l 300 397 z m 300 759 l 300 543 l 418 543 q 511 572 473 543 q 548 655 548 600 l 548 655 q 531 716 548 694 q 485 749 514 739 q 418 759 456 759 l 418 759 l 300 759 z "},"C":{"ha":981,"x_min":67,"x_max":919,"o":"m 512 -12 l 512 -12 q 274 46 374 -12 q 121 209 174 104 q 67 456 67 313 l 67 456 q 121 704 67 598 q 274 867 174 809 q 512 925 374 925 l 512 925 q 709 888 619 925 q 856 779 800 851 q 918 601 912 707 l 918 601 l 722 601 q 686 693 715 656 q 612 748 657 730 q 512 766 568 766 l 512 766 q 368 723 422 766 q 289 609 313 680 q 264 456 264 539 l 264 456 q 289 302 264 373 q 368 189 313 232 q 512 146 422 146 l 512 146 q 661 195 606 146 q 724 333 715 243 l 724 333 l 919 333 q 860 144 911 221 q 721 27 809 67 q 512 -12 633 -12 z "},"D":{"ha":982,"x_min":109,"x_max":913,"o":"m 449 0 l 109 0 l 109 913 l 449 913 q 700 859 595 913 q 859 703 804 804 q 913 458 913 601 l 913 458 q 858 209 913 311 q 698 53 802 106 q 449 0 594 0 l 449 0 z m 300 754 l 300 159 l 429 159 q 590 192 526 159 q 686 291 654 224 q 718 460 718 358 l 718 460 q 683 622 718 557 q 585 721 649 688 q 429 754 520 754 l 429 754 l 300 754 z "},"E":{"ha":796,"x_min":109,"x_max":722,"o":"m 722 0 l 109 0 l 109 913 l 722 913 l 722 755 l 300 755 l 300 543 l 682 543 l 682 390 l 300 390 l 300 158 l 722 158 l 722 0 z "},"F":{"ha":745,"x_min":109,"x_max":706,"o":"m 300 0 l 109 0 l 109 913 l 706 913 l 706 755 l 300 755 l 300 541 l 664 541 l 664 390 l 300 390 l 300 0 z "},"G":{"ha":997,"x_min":67,"x_max":928,"o":"m 516 -12 l 516 -12 q 275 46 376 -12 q 121 209 175 104 q 67 456 67 314 l 67 456 q 121 704 67 598 q 275 867 175 809 q 516 925 376 925 l 516 925 q 654 907 587 925 q 779 850 722 888 q 871 753 835 812 q 916 613 908 694 l 916 613 l 721 613 q 690 692 715 658 q 619 747 664 727 q 512 766 574 766 l 512 766 q 368 723 422 766 q 288 610 313 680 q 262 456 262 540 l 262 456 q 288 302 262 372 q 369 189 313 231 q 516 146 425 146 l 516 146 q 632 169 584 146 q 706 234 680 193 q 737 330 733 275 l 737 330 l 521 330 l 521 481 l 928 481 l 928 389 q 881 180 928 270 q 741 39 833 90 q 516 -12 649 -12 z "},"H":{"ha":1013,"x_min":109,"x_max":904,"o":"m 300 0 l 109 0 l 109 913 l 300 913 l 300 556 l 713 556 l 713 913 l 904 913 l 904 0 l 713 0 l 713 388 l 300 388 l 300 0 z "},"I":{"ha":408,"x_min":109,"x_max":300,"o":"m 300 0 l 109 0 l 109 913 l 300 913 l 300 0 z "},"J":{"ha":509,"x_min":25,"x_max":412,"o":"m 106 -7 l 25 -7 l 25 156 l 93 156 q 193 191 161 156 q 226 309 226 226 l 226 309 l 226 913 l 412 913 l 412 307 q 379 130 412 199 q 280 27 347 60 q 106 -7 212 -7 l 106 -7 z "},"K":{"ha":865,"x_min":109,"x_max":861,"o":"m 300 0 l 109 0 l 109 913 l 300 913 l 300 477 l 627 913 l 838 913 l 500 485 l 861 0 l 640 0 l 300 467 l 300 0 z "},"L":{"ha":711,"x_min":109,"x_max":685,"o":"m 685 0 l 109 0 l 109 913 l 300 913 l 300 168 l 685 168 l 685 0 z "},"M":{"ha":1140,"x_min":109,"x_max":1031,"o":"m 292 0 l 109 0 l 109 913 l 328 913 l 614 426 l 538 426 l 821 913 l 1031 913 l 1031 0 l 844 0 l 844 811 l 927 811 l 629 292 l 511 292 l 205 811 l 292 811 l 292 0 z "},"N":{"ha":1004,"x_min":109,"x_max":895,"o":"m 288 0 l 109 0 l 109 913 l 296 913 l 715 298 l 715 913 l 895 913 l 895 0 l 708 0 l 288 619 l 288 0 z "},"O":{"ha":1024,"x_min":67,"x_max":956,"o":"m 512 -12 l 512 -12 q 270 46 369 -12 q 119 209 170 104 q 67 456 67 313 l 67 456 q 119 704 67 598 q 270 867 170 809 q 512 925 369 925 l 512 925 q 754 867 655 925 q 905 704 853 809 q 956 456 956 598 l 956 456 q 905 209 956 313 q 754 46 853 104 q 512 -12 655 -12 z m 512 146 l 512 146 q 655 189 601 146 q 734 301 709 231 q 760 456 760 372 l 760 456 q 734 612 760 541 q 655 724 709 682 q 512 766 601 766 l 512 766 q 368 724 422 766 q 289 612 313 682 q 264 456 264 541 l 264 456 q 289 301 264 372 q 368 189 313 231 q 512 146 422 146 z "},"P":{"ha":841,"x_min":109,"x_max":794,"o":"m 300 0 l 109 0 l 109 913 l 467 913 q 632 881 557 913 q 750 784 706 849 q 794 618 794 719 l 794 618 q 750 453 794 518 q 632 356 706 388 q 467 325 557 325 l 467 325 l 300 325 l 300 0 z m 300 759 l 300 478 l 450 478 q 557 513 516 478 q 598 618 598 549 l 598 618 q 556 724 598 690 q 450 759 514 759 l 450 759 l 300 759 z "},"Q":{"ha":1024,"x_min":67,"x_max":956,"o":"m 924 -225 l 879 -225 q 715 -207 781 -225 q 609 -155 650 -188 q 539 -77 567 -121 q 487 20 511 -33 l 487 20 l 604 95 q 647 24 627 54 q 696 -24 668 -5 q 770 -53 724 -43 q 888 -62 816 -62 l 888 -62 l 924 -62 l 924 -225 z m 512 -12 l 512 -12 q 270 46 369 -12 q 119 209 170 104 q 67 456 67 313 l 67 456 q 119 704 67 598 q 270 867 170 809 q 512 925 369 925 l 512 925 q 754 867 655 925 q 905 704 853 809 q 956 456 956 598 l 956 456 q 905 209 956 313 q 754 46 853 104 q 512 -12 655 -12 z m 512 146 l 512 146 q 655 189 601 146 q 734 301 709 231 q 760 456 760 372 l 760 456 q 734 612 760 541 q 655 724 709 682 q 512 766 601 766 l 512 766 q 368 724 422 766 q 289 612 313 682 q 264 456 264 541 l 264 456 q 289 301 264 372 q 368 189 313 231 q 512 146 422 146 z "},"R":{"ha":880,"x_min":109,"x_max":852,"o":"m 300 0 l 109 0 l 109 913 l 485 913 q 642 888 573 913 q 752 808 711 863 q 792 661 792 753 l 792 661 q 746 514 792 574 q 605 428 699 454 l 605 428 q 697 393 663 419 q 753 323 732 367 q 792 214 774 279 l 792 214 l 852 0 l 653 0 l 610 176 q 579 274 597 236 q 531 331 562 312 q 448 349 501 349 l 448 349 l 300 349 l 300 0 z m 300 755 l 300 507 l 453 507 q 530 521 498 507 q 580 564 562 535 q 597 633 597 592 l 597 633 q 561 724 597 694 q 464 755 524 755 l 464 755 l 300 755 z "},"S":{"ha":831,"x_min":52,"x_max":781,"o":"m 419 -12 l 419 -12 q 232 17 315 -12 q 100 111 149 47 q 52 279 52 176 l 52 279 l 247 279 q 271 196 248 227 q 333 153 294 166 q 422 140 372 140 l 422 140 q 507 152 471 140 q 565 188 544 163 q 585 249 585 212 l 585 249 q 568 308 585 285 q 505 351 550 332 q 380 393 460 370 l 380 393 q 217 452 286 420 q 110 536 148 485 q 73 671 73 588 l 73 671 q 116 815 73 760 q 235 898 159 871 q 409 924 311 924 l 409 924 q 581 896 503 924 q 706 809 659 867 q 753 661 753 751 l 753 661 l 557 661 q 514 748 558 719 q 408 777 470 777 l 408 777 q 307 754 347 777 q 267 684 267 731 l 267 684 q 284 636 267 656 q 347 595 301 615 q 479 551 393 576 l 479 551 q 650 487 583 520 q 748 400 716 453 q 781 260 781 347 l 781 260 q 733 103 781 163 q 604 16 686 43 q 419 -12 522 -12 z "},"T":{"ha":702,"x_min":12,"x_max":690,"o":"m 447 0 l 256 0 l 256 754 l 12 754 l 12 913 l 690 913 l 690 754 l 447 754 l 447 0 z "},"U":{"ha":967,"x_min":98,"x_max":869,"o":"m 484 -12 l 484 -12 q 264 31 349 -12 q 138 158 178 74 q 98 363 98 242 l 98 363 l 98 913 l 294 913 l 294 368 q 340 200 294 255 q 485 145 386 145 l 485 145 q 629 200 585 145 q 673 368 673 255 l 673 368 l 673 913 l 869 913 l 869 363 q 829 158 869 242 q 704 31 789 74 q 484 -12 619 -12 z "},"V":{"ha":857,"x_min":2,"x_max":854,"o":"m 538 0 l 312 0 l 2 913 l 206 913 l 427 195 l 650 913 l 854 913 l 538 0 z "},"W":{"ha":1306,"x_min":5,"x_max":1301,"o":"m 475 0 l 275 0 l 5 913 l 202 913 l 376 227 l 558 913 l 749 913 l 933 227 l 1107 913 l 1301 913 l 1029 0 l 831 0 l 652 682 l 475 0 z "},"X":{"ha":832,"x_min":3,"x_max":829,"o":"m 218 0 l 3 0 l 311 477 l 28 913 l 248 913 l 416 614 l 592 913 l 804 913 l 523 476 l 829 0 l 602 0 l 416 322 l 218 0 z "},"Y":{"ha":814,"x_min":0,"x_max":814,"o":"m 505 0 l 309 0 l 309 341 l 0 913 l 212 913 l 407 516 l 602 913 l 814 913 l 505 341 l 505 0 z "},"Z":{"ha":760,"x_min":33,"x_max":728,"o":"m 728 0 l 33 0 l 33 151 l 460 754 l 67 754 l 67 913 l 697 913 l 697 770 l 262 159 l 728 159 l 728 0 z "},"[":{"ha":468,"x_min":82,"x_max":418,"o":"m 418 -244 l 82 -244 l 82 918 l 418 918 l 418 767 l 251 767 l 251 -92 l 418 -92 l 418 -244 z "},"\\":{"ha":537,"x_min":22,"x_max":515,"o":"m 515 0 l 354 0 l 22 913 l 182 913 l 515 0 z "},"]":{"ha":468,"x_min":50,"x_max":385,"o":"m 385 -244 l 50 -244 l 50 -92 l 216 -92 l 216 767 l 50 767 l 50 918 l 385 918 l 385 -244 z "},"^":{"ha":742,"x_min":75,"x_max":667,"o":"m 236 529 l 75 529 l 301 913 l 441 913 l 667 529 l 506 529 l 371 768 l 236 529 z "},"_":{"ha":639,"x_min":0,"x_max":639,"o":"m 639 -160 l 0 -160 l 0 -96 l 639 -96 l 639 -160 z "},"`":{"ha":766,"x_min":149,"x_max":475,"o":"m 475 750 l 343 750 l 149 937 l 341 937 l 475 750 z "},"a":{"ha":766,"x_min":62,"x_max":676,"o":"m 277 -12 l 277 -12 q 172 10 220 -12 q 93 76 123 32 q 62 185 62 119 l 62 185 q 117 323 62 277 q 271 386 172 370 q 500 406 370 403 l 500 406 l 500 441 q 470 529 500 505 q 390 553 439 553 l 390 553 q 302 527 336 553 q 267 445 267 502 l 267 445 l 99 445 q 136 579 99 530 q 238 650 173 629 q 390 672 304 672 l 390 672 q 505 662 453 672 q 596 625 557 651 q 655 555 634 600 q 676 444 676 511 l 676 444 l 676 0 l 508 0 l 503 86 q 405 13 460 38 q 277 -12 349 -12 z m 336 112 l 336 112 q 430 138 387 112 q 498 199 473 165 l 498 199 l 498 306 q 299 279 356 305 q 242 195 242 253 l 242 195 q 268 132 242 153 q 336 112 294 112 z "},"b":{"ha":814,"x_min":96,"x_max":752,"o":"m 473 -12 l 473 -12 q 354 16 401 -12 q 274 92 307 43 l 274 92 l 267 0 l 96 0 l 96 913 l 276 913 l 276 567 q 362 644 311 615 q 488 673 413 673 l 488 673 q 623 636 564 673 q 718 523 683 599 q 752 330 752 448 l 752 330 q 715 138 752 214 q 615 25 678 62 q 473 -12 552 -12 z m 429 125 l 429 125 q 531 177 494 125 q 568 327 568 229 l 568 327 q 533 485 568 433 q 436 537 498 537 l 436 537 q 339 504 380 537 q 276 426 297 471 l 276 426 l 276 232 q 335 157 296 189 q 429 125 374 125 z "},"c":{"ha":762,"x_min":62,"x_max":700,"o":"m 393 -9 l 393 -9 q 226 26 301 -9 q 106 136 151 61 q 62 328 62 210 l 62 328 q 104 522 62 446 q 221 635 146 598 q 393 672 296 672 l 393 672 q 545 644 477 672 q 653 561 613 616 q 694 422 693 506 l 694 422 l 519 422 q 486 503 518 473 q 394 533 453 533 l 394 533 q 281 479 316 533 q 246 328 246 426 l 246 328 q 261 221 246 265 q 310 153 277 176 q 394 130 342 130 l 394 130 q 489 162 454 130 q 526 256 524 195 l 526 256 l 700 256 q 658 111 698 170 q 550 21 618 52 q 393 -9 481 -9 z "},"d":{"ha":814,"x_min":62,"x_max":718,"o":"m 324 -12 l 324 -12 q 190 26 250 -12 q 97 140 131 63 q 62 336 62 217 l 62 336 q 99 525 62 450 q 199 636 136 600 q 341 673 262 673 l 341 673 q 460 644 410 673 q 538 570 509 616 l 538 570 l 538 913 l 718 913 l 718 0 l 546 0 l 538 94 q 451 17 503 45 q 324 -12 399 -12 z m 377 125 l 377 125 q 475 157 434 125 q 538 232 517 189 l 538 232 l 538 425 q 479 503 517 470 q 386 536 441 536 l 386 536 q 283 485 319 536 q 246 336 246 433 l 246 336 q 281 177 246 229 q 377 125 316 125 z "},"e":{"ha":772,"x_min":62,"x_max":709,"o":"m 401 -12 l 401 -12 q 215 29 290 -12 q 101 147 140 70 q 62 333 62 224 l 62 333 q 100 514 62 438 q 211 631 138 590 q 390 672 283 672 l 390 672 q 624 586 538 672 q 709 339 709 499 l 709 339 q 709 317 709 331 q 707 296 708 303 l 707 296 l 242 296 q 259 208 243 249 q 310 143 275 168 q 401 118 345 118 l 401 118 q 494 143 459 118 q 530 219 530 169 l 530 219 l 707 219 q 665 90 704 142 q 558 13 626 39 q 401 -12 491 -12 z m 244 410 l 244 410 l 531 410 q 490 513 529 479 q 390 547 451 547 l 390 547 q 288 512 328 547 q 244 410 248 477 z "},"f":{"ha":465,"x_min":15,"x_max":446,"o":"m 304 0 l 125 0 l 125 524 l 15 524 l 15 662 l 125 662 l 125 683 q 136 786 125 743 q 176 858 148 830 q 254 899 204 886 q 379 913 303 913 l 379 913 l 445 913 l 445 783 l 385 783 q 319 759 334 783 q 304 683 304 735 l 304 683 l 304 662 l 446 662 l 446 524 l 304 524 l 304 0 z "},"g":{"ha":710,"x_min":37,"x_max":696,"o":"m 357 -256 l 357 -256 q 168 -231 238 -256 q 68 -167 98 -207 q 37 -81 37 -127 l 37 -81 q 91 17 37 -25 q 260 77 144 60 l 260 77 l 290 140 l 380 140 q 620 95 545 140 q 696 -44 696 50 l 696 -44 q 609 -197 696 -139 q 357 -256 522 -256 z m 354 -143 l 354 -143 q 482 -119 445 -143 q 519 -62 519 -96 l 519 -62 q 507 -25 519 -40 q 464 -2 494 -10 q 385 6 434 6 l 385 6 l 264 6 q 221 -23 237 -4 q 204 -66 204 -41 l 204 -66 q 239 -119 204 -94 q 354 -143 275 -143 z m 363 140 l 263 15 q 148 44 192 23 q 83 92 104 64 q 63 145 63 119 l 63 145 q 95 215 63 186 q 190 266 126 244 l 190 266 l 283 232 q 222 211 247 223 q 198 180 198 198 l 198 180 q 213 158 198 167 q 263 145 227 149 q 363 140 300 140 l 363 140 z m 345 211 l 345 211 q 192 243 255 211 q 96 327 129 275 q 64 439 64 379 l 64 439 q 97 556 64 504 q 193 639 130 608 q 349 670 257 670 l 349 670 q 505 639 443 670 q 598 556 567 608 q 629 439 629 504 l 629 439 q 597 326 629 378 q 503 242 566 273 q 345 211 440 211 z m 345 319 l 345 319 q 428 350 395 319 q 462 439 462 380 l 462 439 q 431 532 462 502 q 349 563 399 563 l 349 563 q 265 531 298 563 q 232 439 232 500 l 232 439 q 266 349 232 380 q 345 319 300 319 z m 534 570 l 534 570 l 481 637 q 563 733 507 707 q 696 760 618 759 l 696 760 l 696 629 q 599 619 643 629 q 534 570 555 609 z "},"h":{"ha":804,"x_min":96,"x_max":713,"o":"m 276 0 l 96 0 l 96 913 l 273 913 l 273 563 q 360 638 306 606 q 500 671 414 671 l 500 671 q 658 611 603 671 q 713 431 713 550 l 713 431 l 713 0 l 534 0 l 534 408 q 524 471 534 444 q 492 513 514 498 q 435 528 471 528 l 435 528 q 343 503 381 528 q 276 441 304 477 l 276 441 l 276 0 z "},"i":{"ha":372,"x_min":85,"x_max":288,"o":"m 276 0 l 96 0 l 96 662 l 276 662 l 276 0 z m 186 749 l 186 749 q 111 774 137 749 q 85 836 85 799 l 85 836 q 111 899 85 874 q 186 924 137 924 l 186 924 q 262 899 236 924 q 288 836 288 874 l 288 836 q 262 774 288 799 q 186 749 236 749 z "},"j":{"ha":372,"x_min":-30,"x_max":288,"o":"m 33 -243 l -30 -243 l -30 -101 l 9 -101 q 75 -80 53 -101 q 96 -13 96 -59 l 96 -13 l 96 662 l 276 662 l 276 1 q 217 -180 276 -117 q 33 -243 158 -243 l 33 -243 z m 186 749 l 186 749 q 111 774 137 749 q 85 836 85 799 l 85 836 q 111 899 85 875 q 186 924 137 924 l 186 924 q 262 899 236 924 q 288 836 288 875 l 288 836 q 262 774 288 799 q 186 749 236 749 z "},"k":{"ha":742,"x_min":96,"x_max":749,"o":"m 276 0 l 96 0 l 96 913 l 276 913 l 276 357 l 534 662 l 730 662 l 468 357 l 749 0 l 544 0 l 276 349 l 276 0 z "},"l":{"ha":411,"x_min":90,"x_max":391,"o":"m 391 0 l 345 0 q 189 24 243 0 q 112 99 134 48 q 90 231 90 149 l 90 231 l 90 913 l 269 913 l 269 241 q 283 165 269 189 q 350 140 298 140 l 350 140 l 391 140 l 391 0 z "},"m":{"ha":1235,"x_min":96,"x_max":1145,"o":"m 276 0 l 96 0 l 96 662 l 269 662 l 273 563 q 362 638 305 606 q 504 671 420 671 l 504 671 q 657 609 604 671 q 710 431 710 546 l 710 431 l 710 0 l 530 0 l 530 408 q 520 471 530 444 q 489 513 511 498 q 431 528 467 528 l 431 528 q 342 503 379 528 q 276 441 304 477 l 276 441 l 276 0 z m 1145 0 l 965 0 l 965 408 q 955 471 965 444 q 923 513 945 498 q 866 528 901 528 l 866 528 q 776 505 814 528 q 709 447 739 481 l 709 447 l 687 558 q 792 637 730 604 q 938 671 854 671 l 938 671 q 1091 609 1037 671 q 1145 431 1145 546 l 1145 431 l 1145 0 z "},"n":{"ha":804,"x_min":96,"x_max":713,"o":"m 276 0 l 96 0 l 96 662 l 269 662 l 273 563 q 360 638 306 606 q 501 671 414 671 l 501 671 q 658 610 602 671 q 713 431 713 549 l 713 431 l 713 0 l 535 0 l 535 408 q 525 471 535 444 q 493 513 515 498 q 435 528 471 528 l 435 528 q 343 503 381 528 q 276 441 304 477 l 276 441 l 276 0 z "},"o":{"ha":796,"x_min":62,"x_max":734,"o":"m 397 -11 l 397 -11 q 221 29 296 -11 q 104 145 145 69 q 62 329 62 221 l 62 329 q 104 516 62 439 q 221 633 145 593 q 397 673 296 673 l 397 673 q 574 633 498 673 q 692 516 650 593 q 734 329 734 439 l 734 329 q 692 145 734 221 q 574 29 650 69 q 397 -11 498 -11 z m 397 126 l 397 126 q 489 154 456 126 q 537 227 523 181 q 551 329 551 273 l 551 329 q 537 433 551 386 q 489 507 523 479 q 397 535 456 535 l 397 535 q 306 507 339 535 q 260 433 273 479 q 246 329 246 386 l 246 329 q 260 227 246 273 q 306 154 273 181 q 397 126 339 126 z "},"p":{"ha":814,"x_min":96,"x_max":752,"o":"m 276 -243 l 96 -243 l 96 662 l 266 662 l 276 561 q 364 643 313 614 q 486 672 416 672 l 486 672 q 624 635 564 672 q 718 522 684 597 q 752 327 752 446 l 752 327 q 715 138 752 212 q 615 26 678 63 q 473 -12 552 -12 l 473 -12 q 358 14 409 -13 q 276 90 308 41 l 276 90 l 276 -243 z m 429 125 l 429 125 q 532 178 496 125 q 568 329 568 230 l 568 329 q 535 485 568 434 q 443 536 501 536 l 443 536 q 338 502 382 536 q 276 427 295 467 l 276 427 l 276 231 q 337 157 298 188 q 429 125 376 125 z "},"q":{"ha":814,"x_min":62,"x_max":718,"o":"m 718 -243 l 538 -243 l 538 96 q 451 17 503 47 q 326 -12 398 -12 l 326 -12 q 187 25 247 -12 q 95 140 127 62 q 62 336 62 218 l 62 336 q 99 525 62 450 q 198 637 136 600 q 338 674 260 674 l 338 674 q 460 645 411 674 q 538 570 509 615 l 538 570 l 543 662 l 718 662 l 718 -243 z m 370 125 l 370 125 q 474 157 432 125 q 538 233 517 189 l 538 233 l 538 427 q 480 504 517 470 q 386 538 443 537 l 386 538 q 282 486 319 538 q 245 335 245 433 l 245 335 q 280 177 245 229 q 370 125 315 126 z "},"r":{"ha":513,"x_min":96,"x_max":488,"o":"m 276 0 l 96 0 l 96 662 l 269 662 l 272 547 q 349 639 298 607 q 474 671 401 671 l 474 671 l 488 671 l 488 519 l 471 519 q 394 512 431 519 q 328 488 357 505 q 276 440 298 471 l 276 440 l 276 0 z "},"s":{"ha":716,"x_min":66,"x_max":650,"o":"m 362 -12 l 362 -12 q 254 -2 307 -12 q 159 33 201 8 q 91 100 116 58 q 66 207 66 143 l 66 207 l 233 207 q 272 130 233 151 q 363 108 311 108 l 363 108 q 443 124 414 108 q 471 180 471 141 l 471 180 q 438 236 471 218 q 320 273 404 254 l 320 273 q 194 314 250 290 q 108 379 139 338 q 77 485 77 419 l 77 485 q 100 572 77 536 q 164 630 124 608 q 253 663 203 652 q 355 673 303 673 l 355 673 q 455 663 406 673 q 543 628 504 652 q 606 564 583 604 q 630 462 630 523 l 630 462 l 463 462 q 431 532 463 513 q 355 552 399 552 l 355 552 q 282 538 309 552 q 255 494 255 525 l 255 494 q 272 461 255 475 q 326 436 289 448 q 425 410 363 424 l 425 410 q 540 372 489 395 q 621 308 591 348 q 650 204 650 268 l 650 204 q 626 103 650 144 q 562 36 602 62 q 470 -1 522 11 q 362 -12 418 -12 z "},"t":{"ha":494,"x_min":15,"x_max":449,"o":"m 449 0 l 379 0 q 223 24 279 0 q 146 99 168 48 q 125 231 125 149 l 125 231 l 125 524 l 15 524 l 15 662 l 125 662 l 125 818 l 304 818 l 304 662 l 449 662 l 449 524 l 304 524 l 304 241 q 319 164 304 189 q 385 139 334 139 l 385 139 l 449 139 l 449 0 z "},"u":{"ha":808,"x_min":90,"x_max":711,"o":"m 300 -9 l 300 -9 q 145 53 200 -9 q 90 230 90 115 l 90 230 l 90 662 l 270 662 l 270 252 q 280 192 270 218 q 312 151 290 165 q 372 137 335 137 l 372 137 q 465 161 427 137 q 532 220 503 185 l 532 220 l 532 662 l 711 662 l 711 0 l 538 0 l 535 100 q 444 24 502 58 q 300 -9 387 -9 z "},"v":{"ha":686,"x_min":0,"x_max":686,"o":"m 446 0 l 241 0 l 0 662 l 187 662 l 343 168 l 504 662 l 686 662 l 446 0 z "},"w":{"ha":1057,"x_min":3,"x_max":1055,"o":"m 394 0 l 211 0 l 3 662 l 185 662 l 313 195 l 440 662 l 629 662 l 759 195 l 884 662 l 1055 662 l 846 0 l 663 0 l 529 476 l 394 0 z "},"x":{"ha":688,"x_min":2,"x_max":686,"o":"m 193 0 l 2 0 l 258 381 l 332 427 l 473 662 l 665 662 l 428 306 l 359 262 l 193 0 z m 686 0 l 494 0 l 328 262 l 264 304 l 24 662 l 216 662 l 359 427 l 427 383 l 686 0 z "},"y":{"ha":686,"x_min":0,"x_max":686,"o":"m 158 -243 l 77 -243 l 77 -97 l 137 -97 q 204 -83 177 -97 q 243 -36 231 -68 l 243 -36 l 258 0 l 0 662 l 187 662 l 355 172 l 504 662 l 686 662 l 448 0 l 423 -66 q 363 -174 397 -136 q 280 -228 330 -213 q 158 -243 231 -243 l 158 -243 z "},"z":{"ha":647,"x_min":50,"x_max":597,"o":"m 597 0 l 50 0 l 50 130 l 363 524 l 77 524 l 77 662 l 576 662 l 576 536 l 261 139 l 597 139 l 597 0 z "},"{":{"ha":468,"x_min":3,"x_max":418,"o":"m 418 -245 l 316 -245 q 221 -224 262 -245 q 155 -159 179 -203 q 131 -45 131 -115 l 131 -45 l 131 132 q 116 215 131 186 q 73 255 102 244 q 3 267 45 267 l 3 267 l 3 406 q 73 418 45 406 q 116 459 102 431 q 131 533 131 487 l 131 533 l 131 724 q 155 837 131 795 q 221 899 179 880 q 316 918 262 918 l 316 918 l 418 918 l 418 789 l 372 789 q 316 764 333 789 q 299 700 299 739 l 299 700 l 299 517 q 286 427 299 462 q 248 372 273 391 q 184 343 222 352 l 184 343 q 248 307 222 332 q 286 246 273 283 q 299 157 299 209 l 299 157 l 299 -26 q 316 -90 299 -65 q 372 -115 333 -115 l 372 -115 l 418 -115 l 418 -245 z "},"|":{"ha":375,"x_min":116,"x_max":259,"o":"m 259 -243 l 116 -243 l 116 913 l 259 913 l 259 -243 z "},"}":{"ha":468,"x_min":50,"x_max":465,"o":"m 151 -245 l 50 -245 l 50 -115 l 96 -115 q 151 -90 134 -115 q 168 -26 168 -65 l 168 -26 l 168 157 q 180 246 168 209 q 219 307 193 283 q 283 343 245 332 l 283 343 q 219 372 245 352 q 180 427 193 391 q 168 517 168 462 l 168 517 l 168 700 q 151 764 168 739 q 96 789 134 789 l 96 789 l 50 789 l 50 918 l 151 918 q 247 899 205 918 q 313 837 288 880 q 337 724 337 795 l 337 724 l 337 533 q 352 459 337 487 q 394 418 366 431 q 465 406 422 406 l 465 406 l 465 267 q 394 255 422 267 q 352 215 366 244 q 337 132 337 186 l 337 132 l 337 -45 q 313 -159 337 -115 q 247 -224 288 -203 q 151 -245 205 -245 l 151 -245 z "},"~":{"ha":742,"x_min":26,"x_max":716,"o":"m 513 334 l 513 334 q 417 352 457 334 q 333 399 376 370 l 333 399 q 280 432 301 421 q 238 442 259 442 l 238 442 q 196 419 212 442 q 179 339 181 397 l 179 339 l 26 339 q 83 518 30 451 q 229 586 136 586 l 229 586 q 323 569 281 586 q 408 522 365 553 l 408 522 q 462 487 442 497 q 504 477 481 477 l 504 477 q 544 501 530 477 q 562 582 559 524 l 562 582 l 716 582 q 659 401 711 469 q 513 334 606 334 z "}," ":{"ha":282,"x_min":null,"x_max":null,"o":""},"¡":{"ha":417,"x_min":94,"x_max":323,"o":"m 301 -248 l 117 -248 l 117 -26 q 131 186 117 86 q 159 355 146 286 l 159 355 l 257 355 q 287 186 272 284 q 301 -26 301 87 l 301 -26 l 301 -248 z m 210 454 l 210 454 q 126 484 158 454 q 94 564 94 514 l 94 564 q 126 642 94 610 q 210 674 158 674 l 210 674 q 292 642 260 674 q 323 564 323 610 l 323 564 q 292 484 323 514 q 210 454 260 454 z "},"¢":{"ha":742,"x_min":52,"x_max":690,"o":"m 420 -147 l 338 -147 l 338 798 l 420 798 l 420 -147 z m 383 -9 l 383 -9 q 215 26 290 -9 q 96 136 140 61 q 52 328 52 210 l 52 328 q 94 522 52 446 q 211 635 136 598 q 383 672 286 672 l 383 672 q 535 644 467 672 q 643 561 602 616 q 684 422 683 506 l 684 422 l 509 422 q 475 503 507 473 q 384 533 443 533 l 384 533 q 268 479 304 533 q 232 328 232 426 l 232 328 q 268 181 232 233 q 384 130 304 130 l 384 130 q 480 162 445 130 q 515 256 515 195 l 515 256 l 690 256 q 648 111 688 170 q 539 21 608 52 q 383 -9 471 -9 z "},"£":{"ha":742,"x_min":35,"x_max":694,"o":"m 694 0 l 61 0 l 61 142 q 180 217 149 171 q 211 309 211 262 l 211 309 q 194 388 211 349 q 149 472 176 426 l 149 472 q 104 564 121 521 q 86 661 86 608 l 86 661 q 165 834 86 769 q 390 900 245 900 l 390 900 q 549 871 481 900 q 655 782 617 842 q 694 623 694 721 l 694 623 l 526 623 q 509 702 527 673 q 461 744 492 731 q 393 757 431 757 l 393 757 q 296 727 331 757 q 260 647 260 698 l 260 647 q 275 581 260 614 q 314 510 290 549 l 314 510 q 364 416 343 463 q 385 315 385 370 l 385 315 q 369 234 385 274 q 316 166 353 195 q 211 131 278 138 l 211 131 l 211 163 l 694 163 l 694 0 z m 595 359 l 35 359 l 35 452 l 595 452 l 595 359 z "},"¤":{"ha":742,"x_min":47,"x_max":696,"o":"m 235 215 l 140 119 l 47 212 l 142 307 q 114 372 124 338 q 104 444 104 406 l 104 444 q 114 516 104 481 q 142 581 124 551 l 142 581 l 47 676 l 140 768 l 235 673 q 300 701 265 691 q 372 711 334 711 l 372 711 q 444 701 409 711 q 508 673 478 691 l 508 673 l 604 768 l 696 676 l 600 581 q 628 516 618 551 q 638 444 638 481 l 638 444 q 628 372 638 406 q 600 307 618 338 l 600 307 l 696 212 l 604 119 l 508 215 q 444 187 478 197 q 372 177 409 177 l 372 177 q 300 187 334 177 q 235 215 265 197 l 235 215 z m 372 307 l 372 307 q 441 325 410 307 q 491 374 472 343 q 509 444 509 406 l 509 444 q 491 513 509 482 q 441 563 472 545 q 372 581 410 581 l 372 581 q 302 563 334 581 q 252 513 271 545 q 234 444 234 482 l 234 444 q 252 374 234 406 q 302 325 271 343 q 372 307 334 307 z "},"¥":{"ha":742,"x_min":12,"x_max":731,"o":"m 667 313 l 76 313 l 76 405 l 667 405 l 667 313 z m 667 141 l 76 141 l 76 233 l 667 233 l 667 141 z m 465 0 l 277 0 l 277 333 l 12 888 l 214 888 l 372 504 l 529 888 l 731 888 l 465 333 l 465 0 z "},"¦":{"ha":375,"x_min":116,"x_max":259,"o":"m 116 -243 l 116 204 l 259 204 l 259 -243 l 116 -243 z m 116 465 l 116 913 l 259 913 l 259 465 l 116 465 z "},"§":{"ha":692,"x_min":66,"x_max":627,"o":"m 340 -12 l 340 -12 q 240 -2 289 -12 q 152 31 191 7 q 89 95 113 55 q 66 197 66 136 l 66 197 l 227 197 q 259 123 227 144 q 343 102 292 102 l 343 102 q 424 119 393 102 q 455 172 455 135 l 455 172 q 423 226 455 208 q 310 264 391 244 l 310 264 q 223 288 265 275 q 148 322 181 302 q 96 374 115 343 q 77 452 77 406 l 77 452 q 128 569 77 525 q 275 613 179 613 l 275 613 l 344 549 q 267 532 292 549 q 241 486 241 515 l 241 486 q 284 427 241 446 q 410 389 328 409 l 410 389 q 520 355 471 375 q 598 298 569 335 q 627 193 627 260 l 627 193 q 603 95 627 134 q 539 32 579 56 q 447 -2 498 8 q 340 -12 396 -12 z m 415 314 l 415 314 l 354 376 q 432 396 401 378 q 463 452 463 414 l 463 452 q 428 507 463 488 q 310 543 394 526 l 310 543 q 222 566 264 553 q 147 601 180 580 q 95 655 114 622 q 77 738 77 688 l 77 738 q 99 826 77 790 q 160 884 121 862 q 246 915 198 905 q 344 924 294 924 l 344 924 q 440 915 393 924 q 525 882 487 905 q 586 819 563 859 q 608 720 608 779 l 608 720 l 447 720 q 416 789 447 770 q 344 809 386 809 l 344 809 q 275 796 302 809 q 248 751 248 783 l 248 751 q 265 720 248 733 q 317 694 281 706 q 410 669 353 683 l 410 669 q 520 634 471 654 q 598 579 569 614 q 627 479 627 543 l 627 479 q 598 384 627 420 q 521 331 569 348 q 415 314 473 314 z "},"¨":{"ha":766,"x_min":171,"x_max":595,"o":"m 513 756 l 513 756 q 455 779 479 756 q 432 836 432 802 l 432 836 q 455 893 432 871 q 513 916 479 916 l 513 916 q 572 893 549 916 q 595 836 595 871 l 595 836 q 572 779 595 802 q 513 756 549 756 z m 254 756 l 254 756 q 195 779 219 756 q 171 836 171 802 l 171 836 q 195 893 171 871 q 254 916 219 916 l 254 916 q 311 893 288 916 q 335 836 335 871 l 335 836 q 311 779 335 802 q 254 756 288 756 z "},"©":{"ha":1040,"x_min":52,"x_max":989,"o":"m 519 -12 l 519 -12 q 338 24 422 -12 q 189 125 253 60 q 88 274 124 189 q 52 456 52 359 l 52 456 q 88 638 52 553 q 189 788 124 724 q 338 889 253 852 q 519 925 422 925 l 519 925 q 702 889 617 925 q 852 788 787 852 q 952 638 916 724 q 989 456 989 553 l 989 456 q 952 274 989 359 q 852 125 916 189 q 702 24 787 60 q 519 -12 617 -12 z m 519 109 l 519 109 q 654 136 591 109 q 764 211 717 163 q 839 321 812 258 q 865 456 865 384 l 865 456 q 838 591 865 528 q 764 702 811 654 q 654 777 716 750 q 519 804 591 804 l 519 804 q 386 777 448 804 q 276 702 323 750 q 202 591 229 654 q 175 456 175 528 l 175 456 q 202 321 175 384 q 276 211 229 258 q 386 136 323 163 q 519 109 448 109 z m 528 205 l 528 205 q 355 273 419 205 q 290 456 290 341 l 290 456 q 355 640 290 572 q 528 707 419 707 l 528 707 q 687 653 627 707 q 747 513 746 600 l 747 513 l 621 513 q 596 574 621 551 q 528 597 572 597 l 528 597 q 446 561 475 597 q 417 456 417 524 l 417 456 q 446 352 417 388 q 528 315 475 315 l 528 315 q 597 342 574 315 q 621 410 620 368 l 621 410 l 749 410 q 688 259 747 313 q 528 205 630 205 z "},"ª":{"ha":620,"x_min":49,"x_max":551,"o":"m 221 378 l 221 378 q 137 396 177 378 q 73 449 98 414 q 49 539 49 485 l 49 539 q 93 650 49 613 q 216 701 137 687 q 401 717 295 714 l 401 717 l 401 744 q 378 804 401 785 q 317 822 355 822 l 317 822 q 252 804 277 822 q 227 746 227 787 l 227 746 l 80 746 q 145 883 80 842 q 317 925 210 925 l 317 925 q 446 907 394 925 q 524 849 498 888 q 551 745 551 810 l 551 745 l 551 389 l 406 389 l 401 455 q 323 396 368 413 q 221 378 279 378 z m 277 485 l 277 485 q 358 510 324 485 q 401 573 393 536 l 401 573 l 401 632 q 249 611 292 631 q 205 547 205 591 l 205 547 q 226 500 205 515 q 277 485 246 485 z "},"«":{"ha":618,"x_min":58,"x_max":562,"o":"m 562 240 l 562 92 l 326 288 l 326 406 l 562 602 l 562 455 l 442 347 l 562 240 z m 294 240 l 294 92 l 58 288 l 58 406 l 294 602 l 294 455 l 175 347 l 294 240 z "},"¬":{"ha":742,"x_min":53,"x_max":688,"o":"m 53 533 l 53 675 l 688 675 l 688 533 l 53 533 z m 688 231 l 546 231 l 546 675 l 688 675 l 688 231 z "},"­":{"ha":473,"x_min":49,"x_max":424,"o":"m 424 258 l 49 258 l 49 411 l 424 411 l 424 258 z "},"®":{"ha":631,"x_min":62,"x_max":569,"o":"m 315 408 l 315 408 q 189 443 246 408 q 97 535 131 477 q 62 663 62 593 l 62 663 q 97 791 62 733 q 189 883 131 848 q 315 917 246 917 l 315 917 q 443 883 386 917 q 535 791 500 848 q 569 663 569 733 l 569 663 q 535 535 569 593 q 443 443 500 477 q 315 408 386 408 z m 315 469 l 315 469 q 412 495 368 469 q 481 566 455 522 q 507 663 507 610 l 507 663 q 481 759 507 715 q 412 829 455 803 q 315 855 368 855 l 315 855 q 220 829 263 855 q 151 759 177 803 q 125 663 125 715 l 125 663 q 151 566 125 610 q 220 495 177 522 q 315 469 263 469 z m 284 547 l 217 547 l 217 787 l 327 787 q 395 769 371 787 q 419 718 419 751 l 419 718 q 404 677 419 694 q 363 654 389 661 l 363 654 l 363 664 q 398 647 386 660 q 418 608 410 634 l 418 608 l 437 547 l 368 547 l 355 596 q 340 627 349 620 q 317 633 332 633 l 317 633 l 284 633 l 284 547 z m 284 732 l 284 685 l 317 685 q 342 691 334 685 q 350 710 350 698 l 350 710 q 321 732 350 732 l 321 732 l 284 732 z "},"¯":{"ha":766,"x_min":193,"x_max":574,"o":"m 574 780 l 193 780 l 193 889 l 574 889 l 574 780 z "},"°":{"ha":526,"x_min":39,"x_max":488,"o":"m 262 450 l 262 450 q 150 481 201 450 q 69 563 100 512 q 39 675 39 614 l 39 675 q 69 789 39 738 q 150 870 99 840 q 262 901 201 901 l 262 901 q 376 870 325 901 q 457 789 427 840 q 488 675 488 738 l 488 675 q 457 563 488 614 q 376 481 427 512 q 262 450 325 450 z m 262 575 l 262 575 q 334 605 304 575 q 363 675 363 635 l 363 675 q 334 746 363 717 q 262 775 304 775 l 262 775 q 193 746 222 775 q 163 675 163 717 l 163 675 q 193 605 163 635 q 262 575 222 575 z "},"±":{"ha":742,"x_min":53,"x_max":688,"o":"m 53 471 l 53 602 l 688 602 l 688 471 l 53 471 z m 442 298 l 299 298 l 299 776 l 442 776 l 442 298 z m 53 130 l 53 260 l 688 260 l 688 130 l 53 130 z "},"²":{"ha":497,"x_min":37,"x_max":460,"o":"m 460 664 l 37 664 l 37 749 l 262 932 q 311 980 294 960 q 328 1029 328 1001 l 328 1029 q 310 1077 328 1058 q 249 1096 293 1096 l 249 1096 q 179 1071 199 1096 q 159 1008 159 1046 l 159 1008 l 41 1008 q 95 1155 41 1103 q 249 1206 150 1206 l 249 1206 q 397 1163 340 1206 q 454 1041 454 1121 l 454 1041 q 434 959 454 994 q 384 897 414 924 q 324 848 354 870 l 324 848 l 225 771 l 460 771 l 460 664 z "},"³":{"ha":497,"x_min":35,"x_max":463,"o":"m 252 656 l 252 656 q 91 701 147 656 q 35 835 35 745 l 35 835 l 152 835 q 178 780 152 800 q 252 760 204 760 l 252 760 q 315 776 294 760 q 336 828 336 793 l 336 828 q 310 880 336 865 q 241 896 283 896 l 241 896 l 204 896 l 204 992 l 244 992 q 309 1007 287 992 q 331 1048 331 1021 l 331 1048 q 310 1089 331 1076 q 252 1103 290 1103 l 252 1103 q 190 1086 212 1103 q 168 1040 168 1070 l 168 1040 l 50 1040 q 77 1136 50 1100 q 149 1189 104 1173 q 251 1206 195 1206 l 251 1206 q 348 1191 303 1206 q 421 1145 393 1177 q 449 1063 449 1114 l 449 1063 q 423 987 449 1017 q 350 945 397 957 l 350 945 q 431 903 399 936 q 463 818 463 870 l 463 818 q 407 698 463 740 q 252 656 350 656 z "},"´":{"ha":766,"x_min":288,"x_max":615,"o":"m 420 750 l 288 750 l 421 937 l 615 937 l 420 750 z "},"µ":{"ha":813,"x_min":96,"x_max":717,"o":"m 267 -243 l 96 -243 l 96 662 l 276 662 l 276 254 q 286 193 276 219 q 318 152 296 167 q 379 138 341 138 l 379 138 q 471 162 433 138 q 538 220 509 186 l 538 220 l 538 662 l 717 662 l 717 0 l 544 0 l 541 100 q 465 19 513 45 q 366 -7 417 -7 l 366 -7 q 262 19 312 -7 q 182 96 213 46 q 151 217 151 146 l 151 217 l 267 217 l 267 -243 z "},"¶":{"ha":860,"x_min":52,"x_max":764,"o":"m 495 -132 l 345 -132 l 345 427 l 294 427 q 118 493 184 427 q 52 669 52 559 l 52 669 q 118 846 52 780 q 294 913 184 913 l 294 913 l 764 913 l 764 -132 l 614 -132 l 614 767 l 495 767 l 495 -132 z "},"·":{"ha":416,"x_min":93,"x_max":323,"o":"m 210 241 l 210 241 q 125 273 157 241 q 93 351 93 305 l 93 351 q 125 431 93 401 q 210 461 157 461 l 210 461 q 292 431 260 461 q 323 351 323 401 l 323 351 q 292 273 323 305 q 210 241 260 241 z "},"¸":{"ha":766,"x_min":248,"x_max":546,"o":"m 392 -257 l 392 -257 q 311 -250 344 -257 q 248 -231 278 -242 l 248 -231 l 273 -153 q 325 -169 296 -163 q 383 -174 354 -174 l 383 -174 q 424 -164 408 -174 q 439 -134 439 -154 l 439 -134 q 419 -105 439 -115 q 344 -86 399 -95 l 344 -86 l 313 -81 l 407 35 l 475 9 l 434 -41 l 399 -31 q 505 -60 463 -33 q 546 -140 546 -87 l 546 -140 q 524 -206 546 -180 q 468 -244 503 -232 q 392 -257 433 -257 z "},"¹":{"ha":497,"x_min":79,"x_max":364,"o":"m 364 664 l 232 664 l 232 1053 q 176 1013 210 1032 q 79 985 141 994 l 79 985 l 79 1103 q 149 1127 119 1114 q 201 1158 178 1140 q 243 1199 224 1176 l 243 1199 l 364 1199 l 364 664 z "},"º":{"ha":646,"x_min":49,"x_max":597,"o":"m 321 378 l 321 378 q 179 410 240 378 q 83 504 117 442 q 49 652 49 565 l 49 652 q 83 800 49 739 q 179 893 117 861 q 321 925 240 925 l 321 925 q 465 893 402 925 q 562 800 527 861 q 597 652 597 739 l 597 652 q 562 504 597 565 q 465 410 527 442 q 321 378 402 378 z m 321 499 l 321 499 q 414 544 389 499 q 439 652 439 589 l 439 652 q 428 728 439 693 q 392 783 417 762 q 321 804 366 804 l 321 804 q 231 760 256 804 q 205 652 205 715 l 205 652 q 231 544 205 589 q 321 499 256 499 z "},"»":{"ha":618,"x_min":58,"x_max":562,"o":"m 562 288 l 326 92 l 326 240 l 444 347 l 326 455 l 326 602 l 562 406 l 562 288 z m 294 288 l 58 92 l 58 240 l 177 347 l 58 455 l 58 602 l 294 406 l 294 288 z "},"¼":{"ha":1057,"x_min":24,"x_max":1022,"o":"m 309 359 l 177 359 l 177 748 q 121 708 155 727 q 24 680 86 688 l 24 680 l 24 798 q 94 822 64 808 q 146 853 123 835 q 188 894 169 871 l 188 894 l 309 894 l 309 359 z m 299 0 l 170 0 l 711 888 l 840 888 l 299 0 z m 947 0 l 821 0 l 821 93 l 567 93 l 567 199 l 822 534 l 947 534 l 947 197 l 1021 197 l 1021 93 l 947 93 l 947 0 z m 824 377 l 686 197 l 824 197 l 824 377 z "},"½":{"ha":1100,"x_min":24,"x_max":1063,"o":"m 309 359 l 177 359 l 177 748 q 121 708 155 727 q 24 680 86 688 l 24 680 l 24 798 q 94 822 64 808 q 146 853 123 835 q 188 894 169 871 l 188 894 l 309 894 l 309 359 z m 303 0 l 174 0 l 715 888 l 844 888 l 303 0 z m 1063 0 l 640 0 l 640 85 l 865 269 q 914 316 897 296 q 930 366 930 337 l 930 366 q 913 413 930 394 q 852 432 896 432 l 852 432 q 782 407 802 432 q 762 345 762 382 l 762 345 l 644 345 q 698 491 644 439 q 852 542 753 542 l 852 542 q 1000 499 943 542 q 1057 377 1057 457 l 1057 377 q 1037 295 1057 330 q 987 233 1017 260 q 927 184 957 206 l 927 184 l 828 107 l 1063 107 l 1063 0 z "},"¾":{"ha":1125,"x_min":35,"x_max":1090,"o":"m 252 351 l 252 351 q 91 395 147 351 q 35 530 35 439 l 35 530 l 152 530 q 178 474 152 494 q 252 454 204 454 l 252 454 q 315 471 294 454 q 336 523 336 488 l 336 523 q 310 575 336 559 q 241 591 283 591 l 241 591 l 204 591 l 204 687 l 244 687 q 309 702 287 687 q 331 743 331 716 l 331 743 q 310 784 331 770 q 252 798 290 798 l 252 798 q 190 781 212 798 q 168 735 168 765 l 168 735 l 50 735 q 77 831 50 795 q 149 884 104 867 q 251 901 195 901 l 251 901 q 348 886 303 901 q 421 840 393 871 q 449 758 449 808 l 449 758 q 423 682 449 712 q 350 640 397 652 l 350 640 q 431 598 399 631 q 463 513 463 565 l 463 513 q 407 393 463 435 q 252 351 350 351 z m 385 0 l 256 0 l 797 888 l 926 888 l 385 0 z m 1017 0 l 890 0 l 890 93 l 636 93 l 636 199 l 891 534 l 1017 534 l 1017 197 l 1090 197 l 1090 93 l 1017 93 l 1017 0 z m 893 377 l 755 197 l 893 197 l 893 377 z "},"¿":{"ha":719,"x_min":45,"x_max":673,"o":"m 287 353 l 453 353 q 454 336 454 345 q 454 319 454 328 l 454 319 q 428 208 454 250 q 346 125 401 165 l 346 125 q 265 56 291 86 q 239 -16 239 26 l 239 -16 q 268 -87 239 -60 q 357 -114 297 -114 l 357 -114 q 456 -81 422 -114 q 490 9 490 -48 l 490 9 l 673 9 q 634 -136 673 -77 q 525 -228 595 -196 q 357 -259 454 -259 l 357 -259 q 193 -231 263 -259 q 84 -148 123 -202 q 45 -16 45 -93 l 45 -16 q 63 81 45 41 q 116 154 82 122 q 195 215 149 185 l 195 215 q 249 258 230 238 q 276 300 267 277 q 287 353 284 323 l 287 353 z m 368 673 l 368 673 q 452 641 420 673 q 484 562 484 608 l 484 562 q 452 483 484 513 q 368 452 420 452 l 368 452 q 284 483 317 452 q 252 562 252 513 l 252 562 q 284 641 252 608 q 368 673 317 673 z "},"À":{"ha":861,"x_min":2,"x_max":859,"o":"m 199 0 l 2 0 l 330 913 l 530 913 l 859 0 l 661 0 l 595 201 l 266 201 l 199 0 z m 430 724 l 311 359 l 549 359 l 430 724 z m 515 986 l 383 986 l 195 1174 l 388 1174 l 515 986 z "},"Á":{"ha":861,"x_min":2,"x_max":859,"o":"m 199 0 l 2 0 l 330 913 l 530 913 l 859 0 l 661 0 l 595 201 l 266 201 l 199 0 z m 430 724 l 311 359 l 549 359 l 430 724 z m 475 986 l 342 986 l 470 1174 l 663 1174 l 475 986 z "},"Â":{"ha":861,"x_min":2,"x_max":859,"o":"m 199 0 l 2 0 l 330 913 l 530 913 l 859 0 l 661 0 l 595 201 l 266 201 l 199 0 z m 430 724 l 311 359 l 549 359 l 430 724 z m 338 986 l 203 986 l 347 1175 l 512 1175 l 656 986 l 521 986 l 429 1086 l 338 986 z "},"Ã":{"ha":861,"x_min":2,"x_max":859,"o":"m 199 0 l 2 0 l 330 913 l 530 913 l 859 0 l 661 0 l 595 201 l 266 201 l 199 0 z m 430 724 l 311 359 l 549 359 l 430 724 z m 303 992 l 210 992 q 249 1111 216 1069 q 340 1152 282 1152 l 340 1152 q 400 1142 372 1152 q 453 1122 428 1133 l 453 1122 q 493 1107 475 1113 q 526 1101 511 1101 l 526 1101 q 546 1112 538 1101 q 556 1153 553 1124 l 556 1153 l 650 1153 q 615 1038 643 1076 q 530 1000 587 1000 l 530 1000 q 469 1009 497 1000 q 416 1027 441 1018 l 416 1027 q 374 1043 392 1037 q 342 1048 357 1048 l 342 1048 q 316 1036 326 1048 q 303 992 307 1023 l 303 992 z "},"Ä":{"ha":861,"x_min":2,"x_max":859,"o":"m 199 0 l 2 0 l 330 913 l 530 913 l 859 0 l 661 0 l 595 201 l 266 201 l 199 0 z m 430 724 l 311 359 l 549 359 l 430 724 z m 559 991 l 559 991 q 502 1014 525 991 q 478 1071 478 1036 l 478 1071 q 502 1128 478 1106 q 559 1151 525 1151 l 559 1151 q 618 1128 595 1151 q 642 1071 642 1106 l 642 1071 q 618 1014 642 1036 q 559 991 595 991 z m 300 991 l 300 991 q 241 1014 265 991 q 217 1071 217 1036 l 217 1071 q 241 1128 217 1106 q 300 1151 265 1151 l 300 1151 q 357 1128 334 1151 q 381 1071 381 1106 l 381 1071 q 357 1014 381 1036 q 300 991 334 991 z "},"Å":{"ha":861,"x_min":2,"x_max":859,"o":"m 199 0 l 2 0 l 330 913 l 530 913 l 859 0 l 661 0 l 595 201 l 266 201 l 199 0 z m 430 724 l 311 359 l 549 359 l 430 724 z m 429 936 l 429 936 q 325 973 366 936 q 284 1074 284 1010 l 284 1074 q 325 1173 284 1135 q 429 1210 366 1210 l 429 1210 q 533 1173 492 1210 q 574 1074 574 1135 l 574 1074 q 533 973 574 1010 q 429 936 492 936 z m 429 1013 l 429 1013 q 472 1030 456 1013 q 489 1074 489 1047 l 489 1074 q 472 1117 489 1100 q 429 1134 456 1134 l 429 1134 q 387 1117 404 1134 q 370 1074 370 1100 l 370 1074 q 387 1030 370 1047 q 429 1013 404 1013 z "},"Æ":{"ha":1335,"x_min":-26,"x_max":1260,"o":"m 191 0 l -26 0 l 536 913 l 703 913 l 709 731 l 614 731 l 357 294 l 357 283 l 191 0 z m 754 201 l 262 201 l 262 359 l 754 359 l 754 201 z m 1260 0 l 647 0 l 647 913 l 1260 913 l 1260 755 l 838 755 l 838 543 l 1221 543 l 1221 390 l 838 390 l 838 158 l 1260 158 l 1260 0 z "},"Ç":{"ha":981,"x_min":67,"x_max":919,"o":"m 512 -12 l 512 -12 q 274 46 374 -12 q 121 209 174 104 q 67 456 67 313 l 67 456 q 121 704 67 598 q 274 867 174 809 q 512 925 374 925 l 512 925 q 709 888 619 925 q 856 779 800 851 q 918 601 912 707 l 918 601 l 722 601 q 686 693 715 656 q 612 748 657 730 q 512 766 568 766 l 512 766 q 368 723 422 766 q 289 609 313 680 q 264 456 264 539 l 264 456 q 289 302 264 373 q 368 189 313 232 q 512 146 422 146 l 512 146 q 661 195 606 146 q 724 333 715 243 l 724 333 l 919 333 q 860 144 911 221 q 721 27 809 67 q 512 -12 633 -12 z m 503 -257 l 503 -257 q 421 -250 454 -257 q 359 -231 389 -242 l 359 -231 l 383 -153 q 436 -169 407 -163 q 494 -174 465 -174 l 494 -174 q 534 -164 519 -174 q 549 -134 549 -154 l 549 -134 q 529 -105 549 -115 q 454 -86 509 -95 l 454 -86 l 424 -81 l 517 35 l 585 9 l 545 -41 l 510 -31 q 615 -60 574 -33 q 656 -140 656 -87 l 656 -140 q 635 -206 656 -180 q 578 -244 613 -232 q 503 -257 543 -257 z "},"È":{"ha":796,"x_min":109,"x_max":722,"o":"m 722 0 l 109 0 l 109 913 l 722 913 l 722 755 l 300 755 l 300 543 l 682 543 l 682 390 l 300 390 l 300 158 l 722 158 l 722 0 z m 501 986 l 369 986 l 181 1174 l 374 1174 l 501 986 z "},"É":{"ha":796,"x_min":109,"x_max":722,"o":"m 722 0 l 109 0 l 109 913 l 722 913 l 722 755 l 300 755 l 300 543 l 682 543 l 682 390 l 300 390 l 300 158 l 722 158 l 722 0 z m 461 986 l 328 986 l 456 1174 l 648 1174 l 461 986 z "},"Ê":{"ha":796,"x_min":109,"x_max":722,"o":"m 722 0 l 109 0 l 109 913 l 722 913 l 722 755 l 300 755 l 300 543 l 682 543 l 682 390 l 300 390 l 300 158 l 722 158 l 722 0 z m 323 986 l 189 986 l 333 1175 l 498 1175 l 642 986 l 507 986 l 415 1086 l 323 986 z "},"Ë":{"ha":796,"x_min":109,"x_max":722,"o":"m 722 0 l 109 0 l 109 913 l 722 913 l 722 755 l 300 755 l 300 543 l 682 543 l 682 390 l 300 390 l 300 158 l 722 158 l 722 0 z m 545 991 l 545 991 q 487 1014 511 991 q 464 1071 464 1036 l 464 1071 q 487 1128 464 1106 q 545 1151 511 1151 l 545 1151 q 604 1128 581 1151 q 627 1071 627 1106 l 627 1071 q 604 1014 627 1036 q 545 991 581 991 z m 286 991 l 286 991 q 227 1014 251 991 q 203 1071 203 1036 l 203 1071 q 227 1128 203 1106 q 286 1151 251 1151 l 286 1151 q 343 1128 319 1151 q 367 1071 367 1106 l 367 1071 q 343 1014 367 1036 q 286 991 319 991 z "},"Ì":{"ha":408,"x_min":-30,"x_max":300,"o":"m 300 0 l 109 0 l 109 913 l 300 913 l 300 0 z m 290 986 l 158 986 l -30 1174 l 163 1174 l 290 986 z "},"Í":{"ha":408,"x_min":109,"x_max":438,"o":"m 300 0 l 109 0 l 109 913 l 300 913 l 300 0 z m 250 986 l 117 986 l 245 1174 l 437 1174 l 250 986 z "},"Î":{"ha":408,"x_min":-22,"x_max":431,"o":"m 300 0 l 109 0 l 109 913 l 300 913 l 300 0 z m 113 986 l -22 986 l 122 1175 l 287 1175 l 431 986 l 296 986 l 204 1086 l 113 986 z "},"Ï":{"ha":408,"x_min":-8,"x_max":416,"o":"m 300 0 l 109 0 l 109 913 l 300 913 l 300 0 z m 334 991 l 334 991 q 276 1014 300 991 q 253 1071 253 1036 l 253 1071 q 276 1128 253 1106 q 334 1151 300 1151 l 334 1151 q 393 1128 370 1151 q 416 1071 416 1106 l 416 1071 q 393 1014 416 1036 q 334 991 370 991 z m 75 991 l 75 991 q 16 1014 40 991 q -8 1071 -8 1036 l -8 1071 q 16 1128 -8 1106 q 75 1151 40 1151 l 75 1151 q 132 1128 109 1151 q 156 1071 156 1106 l 156 1071 q 132 1014 156 1036 q 75 991 109 991 z "},"Ð":{"ha":982,"x_min":0,"x_max":913,"o":"m 509 383 l 0 383 l 0 536 l 509 536 l 509 383 z m 449 0 l 109 0 l 109 913 l 449 913 q 700 859 595 913 q 859 703 804 804 q 913 458 913 601 l 913 458 q 858 209 913 311 q 698 53 802 106 q 449 0 594 0 l 449 0 z m 300 754 l 300 159 l 429 159 q 590 192 526 159 q 686 291 654 224 q 718 460 718 358 l 718 460 q 683 622 718 557 q 585 721 649 688 q 429 754 520 754 l 429 754 l 300 754 z "},"Ñ":{"ha":1004,"x_min":109,"x_max":895,"o":"m 288 0 l 109 0 l 109 913 l 296 913 l 715 298 l 715 913 l 895 913 l 895 0 l 708 0 l 288 619 l 288 0 z m 379 992 l 286 992 q 325 1111 292 1069 q 416 1152 358 1152 l 416 1152 q 476 1142 448 1152 q 529 1122 504 1133 l 529 1122 q 569 1107 551 1113 q 602 1101 587 1101 l 602 1101 q 622 1112 614 1101 q 632 1153 629 1124 l 632 1153 l 726 1153 q 691 1038 719 1076 q 606 1000 663 1000 l 606 1000 q 545 1009 573 1000 q 492 1027 517 1018 l 492 1027 q 450 1043 468 1037 q 418 1048 433 1048 l 418 1048 q 392 1036 401 1048 q 379 992 382 1023 l 379 992 z "},"Ò":{"ha":1024,"x_min":67,"x_max":956,"o":"m 512 -12 l 512 -12 q 270 46 369 -12 q 119 209 170 104 q 67 456 67 313 l 67 456 q 119 704 67 598 q 270 867 170 809 q 512 925 369 925 l 512 925 q 754 867 655 925 q 905 704 853 809 q 956 456 956 598 l 956 456 q 905 209 956 313 q 754 46 853 104 q 512 -12 655 -12 z m 512 146 l 512 146 q 655 189 601 146 q 734 301 709 231 q 760 456 760 372 l 760 456 q 734 612 760 541 q 655 724 709 682 q 512 766 601 766 l 512 766 q 368 724 422 766 q 289 612 313 682 q 264 456 264 541 l 264 456 q 289 301 264 372 q 368 189 313 231 q 512 146 422 146 z m 598 986 l 466 986 l 278 1174 l 471 1174 l 598 986 z "},"Ó":{"ha":1024,"x_min":67,"x_max":956,"o":"m 512 -12 l 512 -12 q 270 46 369 -12 q 119 209 170 104 q 67 456 67 313 l 67 456 q 119 704 67 598 q 270 867 170 809 q 512 925 369 925 l 512 925 q 754 867 655 925 q 905 704 853 809 q 956 456 956 598 l 956 456 q 905 209 956 313 q 754 46 853 104 q 512 -12 655 -12 z m 512 146 l 512 146 q 655 189 601 146 q 734 301 709 231 q 760 456 760 372 l 760 456 q 734 612 760 541 q 655 724 709 682 q 512 766 601 766 l 512 766 q 368 724 422 766 q 289 612 313 682 q 264 456 264 541 l 264 456 q 289 301 264 372 q 368 189 313 231 q 512 146 422 146 z m 558 986 l 425 986 l 553 1174 l 745 1174 l 558 986 z "},"Ô":{"ha":1024,"x_min":67,"x_max":956,"o":"m 512 -12 l 512 -12 q 270 46 369 -12 q 119 209 170 104 q 67 456 67 313 l 67 456 q 119 704 67 598 q 270 867 170 809 q 512 925 369 925 l 512 925 q 754 867 655 925 q 905 704 853 809 q 956 456 956 598 l 956 456 q 905 209 956 313 q 754 46 853 104 q 512 -12 655 -12 z m 512 146 l 512 146 q 655 189 601 146 q 734 301 709 231 q 760 456 760 372 l 760 456 q 734 612 760 541 q 655 724 709 682 q 512 766 601 766 l 512 766 q 368 724 422 766 q 289 612 313 682 q 264 456 264 541 l 264 456 q 289 301 264 372 q 368 189 313 231 q 512 146 422 146 z m 420 986 l 286 986 l 430 1175 l 595 1175 l 739 986 l 604 986 l 512 1086 l 420 986 z "},"Õ":{"ha":1024,"x_min":67,"x_max":956,"o":"m 512 -12 l 512 -12 q 270 46 369 -12 q 119 209 170 104 q 67 456 67 313 l 67 456 q 119 704 67 598 q 270 867 170 809 q 512 925 369 925 l 512 925 q 754 867 655 925 q 905 704 853 809 q 956 456 956 598 l 956 456 q 905 209 956 313 q 754 46 853 104 q 512 -12 655 -12 z m 512 146 l 512 146 q 655 189 601 146 q 734 301 709 231 q 760 456 760 372 l 760 456 q 734 612 760 541 q 655 724 709 682 q 512 766 601 766 l 512 766 q 368 724 422 766 q 289 612 313 682 q 264 456 264 541 l 264 456 q 289 301 264 372 q 368 189 313 231 q 512 146 422 146 z m 386 992 l 292 992 q 332 1111 299 1069 q 423 1152 365 1152 l 423 1152 q 483 1142 455 1152 q 536 1122 511 1133 l 536 1122 q 576 1107 557 1113 q 609 1101 594 1101 l 609 1101 q 629 1112 621 1101 q 639 1153 636 1124 l 639 1153 l 732 1153 q 697 1038 726 1076 q 613 1000 669 1000 l 613 1000 q 552 1009 580 1000 q 499 1027 524 1018 l 499 1027 q 457 1043 475 1037 q 425 1048 439 1048 l 425 1048 q 399 1036 408 1048 q 386 992 389 1023 l 386 992 z "},"Ö":{"ha":1024,"x_min":67,"x_max":956,"o":"m 512 -12 l 512 -12 q 270 46 369 -12 q 119 209 170 104 q 67 456 67 313 l 67 456 q 119 704 67 598 q 270 867 170 809 q 512 925 369 925 l 512 925 q 754 867 655 925 q 905 704 853 809 q 956 456 956 598 l 956 456 q 905 209 956 313 q 754 46 853 104 q 512 -12 655 -12 z m 512 146 l 512 146 q 655 189 601 146 q 734 301 709 231 q 760 456 760 372 l 760 456 q 734 612 760 541 q 655 724 709 682 q 512 766 601 766 l 512 766 q 368 724 422 766 q 289 612 313 682 q 264 456 264 541 l 264 456 q 289 301 264 372 q 368 189 313 231 q 512 146 422 146 z m 642 991 l 642 991 q 584 1014 608 991 q 561 1071 561 1036 l 561 1071 q 584 1128 561 1106 q 642 1151 608 1151 l 642 1151 q 701 1128 677 1151 q 724 1071 724 1106 l 724 1071 q 701 1014 724 1036 q 642 991 677 991 z m 382 991 l 382 991 q 324 1014 348 991 q 300 1071 300 1036 l 300 1071 q 324 1128 300 1106 q 382 1151 348 1151 l 382 1151 q 440 1128 416 1151 q 464 1071 464 1106 l 464 1071 q 440 1014 464 1036 q 382 991 416 991 z "},"×":{"ha":742,"x_min":95,"x_max":646,"o":"m 197 178 l 95 279 l 545 728 l 646 629 l 197 178 z m 96 627 l 196 729 l 646 279 l 545 178 l 96 627 z "},"Ø":{"ha":1024,"x_min":67,"x_max":956,"o":"m 956 890 l 156 -52 l 67 22 l 868 964 l 956 890 z m 512 -12 l 512 -12 q 270 46 369 -12 q 119 209 170 104 q 67 456 67 313 l 67 456 q 119 704 67 598 q 270 867 170 809 q 512 925 369 925 l 512 925 q 754 867 655 925 q 905 704 853 809 q 956 456 956 598 l 956 456 q 905 209 956 313 q 754 46 853 104 q 512 -12 655 -12 z m 512 142 l 512 142 q 657 185 602 142 q 738 299 713 228 q 763 456 763 370 l 763 456 q 738 613 763 542 q 657 727 713 684 q 512 770 602 770 l 512 770 q 366 727 422 770 q 285 613 311 684 q 260 456 260 542 l 260 456 q 285 299 260 370 q 366 185 311 228 q 512 142 422 142 z "},"Ù":{"ha":967,"x_min":98,"x_max":869,"o":"m 484 -12 l 484 -12 q 264 31 349 -12 q 138 158 178 74 q 98 363 98 242 l 98 363 l 98 913 l 294 913 l 294 368 q 340 200 294 255 q 485 145 386 145 l 485 145 q 629 200 585 145 q 673 368 673 255 l 673 368 l 673 913 l 869 913 l 869 363 q 829 158 869 242 q 704 31 789 74 q 484 -12 619 -12 z m 570 986 l 438 986 l 250 1174 l 443 1174 l 570 986 z "},"Ú":{"ha":967,"x_min":98,"x_max":869,"o":"m 484 -12 l 484 -12 q 264 31 349 -12 q 138 158 178 74 q 98 363 98 242 l 98 363 l 98 913 l 294 913 l 294 368 q 340 200 294 255 q 485 145 386 145 l 485 145 q 629 200 585 145 q 673 368 673 255 l 673 368 l 673 913 l 869 913 l 869 363 q 829 158 869 242 q 704 31 789 74 q 484 -12 619 -12 z m 530 986 l 397 986 l 525 1174 l 718 1174 l 530 986 z "},"Û":{"ha":967,"x_min":98,"x_max":869,"o":"m 484 -12 l 484 -12 q 264 31 349 -12 q 138 158 178 74 q 98 363 98 242 l 98 363 l 98 913 l 294 913 l 294 368 q 340 200 294 255 q 485 145 386 145 l 485 145 q 629 200 585 145 q 673 368 673 255 l 673 368 l 673 913 l 869 913 l 869 363 q 829 158 869 242 q 704 31 789 74 q 484 -12 619 -12 z m 393 986 l 258 986 l 402 1175 l 567 1175 l 711 986 l 576 986 l 484 1086 l 393 986 z "},"Ü":{"ha":967,"x_min":98,"x_max":869,"o":"m 484 -12 l 484 -12 q 264 31 349 -12 q 138 158 178 74 q 98 363 98 242 l 98 363 l 98 913 l 294 913 l 294 368 q 340 200 294 255 q 485 145 386 145 l 485 145 q 629 200 585 145 q 673 368 673 255 l 673 368 l 673 913 l 869 913 l 869 363 q 829 158 869 242 q 704 31 789 74 q 484 -12 619 -12 z m 614 991 l 614 991 q 556 1014 580 991 q 533 1071 533 1036 l 533 1071 q 556 1128 533 1106 q 614 1151 580 1151 l 614 1151 q 673 1128 650 1151 q 696 1071 696 1106 l 696 1071 q 673 1014 696 1036 q 614 991 650 991 z m 355 991 l 355 991 q 296 1014 320 991 q 272 1071 272 1036 l 272 1071 q 296 1128 272 1106 q 355 1151 320 1151 l 355 1151 q 412 1128 389 1151 q 436 1071 436 1106 l 436 1071 q 412 1014 436 1036 q 355 991 389 991 z "},"Ý":{"ha":814,"x_min":0,"x_max":814,"o":"m 505 0 l 309 0 l 309 341 l 0 913 l 212 913 l 407 516 l 602 913 l 814 913 l 505 341 l 505 0 z m 453 986 l 320 986 l 448 1174 l 640 1174 l 453 986 z "},"Þ":{"ha":841,"x_min":109,"x_max":794,"o":"m 467 162 l 109 162 l 109 316 l 450 316 q 557 351 516 316 q 598 455 598 386 l 598 455 q 556 562 598 526 q 450 597 514 597 l 450 597 l 109 597 l 109 749 l 467 749 q 632 718 557 749 q 750 622 706 686 q 794 455 794 557 l 794 455 q 750 291 794 355 q 632 194 706 226 q 467 162 557 162 l 467 162 z m 300 0 l 109 0 l 109 913 l 300 913 l 300 0 z "},"ß":{"ha":781,"x_min":90,"x_max":732,"o":"m 431 -8 l 431 -8 q 382 -6 405 -8 q 338 0 359 -4 l 338 0 l 338 137 q 371 131 355 133 q 401 129 387 129 l 401 129 q 513 165 475 129 q 551 266 551 202 l 551 266 q 500 377 551 345 q 371 410 450 410 l 371 410 l 338 410 l 338 536 l 373 536 q 471 569 431 536 q 512 669 512 603 l 512 669 q 483 755 512 725 q 397 785 454 785 l 397 785 q 305 748 342 785 q 269 625 269 711 l 269 625 l 269 0 l 90 0 l 90 620 q 131 794 90 727 q 240 893 171 862 q 397 925 310 925 l 397 925 q 546 898 483 925 q 645 818 610 870 q 680 692 680 766 l 680 692 q 652 577 680 627 q 566 496 624 528 q 418 452 508 465 l 418 452 l 373 536 q 573 502 493 536 q 692 406 652 468 q 732 262 732 345 l 732 262 q 692 111 732 171 q 585 21 652 51 q 431 -8 517 -8 z "},"à":{"ha":766,"x_min":62,"x_max":676,"o":"m 277 -12 l 277 -12 q 172 10 220 -12 q 93 76 123 32 q 62 185 62 119 l 62 185 q 117 323 62 277 q 271 386 172 370 q 500 406 370 403 l 500 406 l 500 441 q 470 529 500 505 q 390 553 439 553 l 390 553 q 302 527 336 553 q 267 445 267 502 l 267 445 l 99 445 q 136 579 99 530 q 238 650 173 629 q 390 672 304 672 l 390 672 q 505 662 453 672 q 596 625 557 651 q 655 555 634 600 q 676 444 676 511 l 676 444 l 676 0 l 508 0 l 503 86 q 405 13 460 38 q 277 -12 349 -12 z m 336 112 l 336 112 q 430 138 387 112 q 498 199 473 165 l 498 199 l 498 306 q 299 279 356 305 q 242 195 242 253 l 242 195 q 268 132 242 153 q 336 112 294 112 z m 489 750 l 357 750 l 163 937 l 355 937 l 489 750 z "},"á":{"ha":766,"x_min":62,"x_max":676,"o":"m 277 -12 l 277 -12 q 172 10 220 -12 q 93 76 123 32 q 62 185 62 119 l 62 185 q 117 323 62 277 q 271 386 172 370 q 500 406 370 403 l 500 406 l 500 441 q 470 529 500 505 q 390 553 439 553 l 390 553 q 302 527 336 553 q 267 445 267 502 l 267 445 l 99 445 q 136 579 99 530 q 238 650 173 629 q 390 672 304 672 l 390 672 q 505 662 453 672 q 596 625 557 651 q 655 555 634 600 q 676 444 676 511 l 676 444 l 676 0 l 508 0 l 503 86 q 405 13 460 38 q 277 -12 349 -12 z m 336 112 l 336 112 q 430 138 387 112 q 498 199 473 165 l 498 199 l 498 306 q 299 279 356 305 q 242 195 242 253 l 242 195 q 268 132 242 153 q 336 112 294 112 z m 435 750 l 302 750 l 435 937 l 629 937 l 435 750 z "},"â":{"ha":766,"x_min":62,"x_max":676,"o":"m 277 -12 l 277 -12 q 172 10 220 -12 q 93 76 123 32 q 62 185 62 119 l 62 185 q 117 323 62 277 q 271 386 172 370 q 500 406 370 403 l 500 406 l 500 441 q 470 529 500 505 q 390 553 439 553 l 390 553 q 302 527 336 553 q 267 445 267 502 l 267 445 l 99 445 q 136 579 99 530 q 238 650 173 629 q 390 672 304 672 l 390 672 q 505 662 453 672 q 596 625 557 651 q 655 555 634 600 q 676 444 676 511 l 676 444 l 676 0 l 508 0 l 503 86 q 405 13 460 38 q 277 -12 349 -12 z m 336 112 l 336 112 q 430 138 387 112 q 498 199 473 165 l 498 199 l 498 306 q 299 279 356 305 q 242 195 242 253 l 242 195 q 268 132 242 153 q 336 112 294 112 z m 306 750 l 172 750 l 315 937 l 480 937 l 624 750 l 489 750 l 398 850 l 306 750 z "},"ã":{"ha":766,"x_min":62,"x_max":676,"o":"m 277 -12 l 277 -12 q 172 10 220 -12 q 93 76 123 32 q 62 185 62 119 l 62 185 q 117 323 62 277 q 271 386 172 370 q 500 406 370 403 l 500 406 l 500 441 q 470 529 500 505 q 390 553 439 553 l 390 553 q 302 527 336 553 q 267 445 267 502 l 267 445 l 99 445 q 136 579 99 530 q 238 650 173 629 q 390 672 304 672 l 390 672 q 505 662 453 672 q 596 625 557 651 q 655 555 634 600 q 676 444 676 511 l 676 444 l 676 0 l 508 0 l 503 86 q 405 13 460 38 q 277 -12 349 -12 z m 336 112 l 336 112 q 430 138 387 112 q 498 199 473 165 l 498 199 l 498 306 q 299 279 356 305 q 242 195 242 253 l 242 195 q 268 132 242 153 q 336 112 294 112 z m 271 758 l 178 758 q 217 876 184 835 q 309 917 250 917 l 309 917 q 368 907 340 917 q 421 887 396 898 l 421 887 q 461 872 443 878 q 494 866 479 866 l 494 866 q 514 878 507 866 q 524 918 522 889 l 524 918 l 618 918 q 583 803 611 842 q 498 765 555 765 l 498 765 q 437 774 465 765 q 385 792 410 783 l 385 792 q 342 808 360 802 q 310 814 325 814 l 310 814 q 284 801 294 814 q 271 758 275 788 l 271 758 z "},"ä":{"ha":766,"x_min":62,"x_max":676,"o":"m 277 -12 l 277 -12 q 172 10 220 -12 q 93 76 123 32 q 62 185 62 119 l 62 185 q 117 323 62 277 q 271 386 172 370 q 500 406 370 403 l 500 406 l 500 441 q 470 529 500 505 q 390 553 439 553 l 390 553 q 302 527 336 553 q 267 445 267 502 l 267 445 l 99 445 q 136 579 99 530 q 238 650 173 629 q 390 672 304 672 l 390 672 q 505 662 453 672 q 596 625 557 651 q 655 555 634 600 q 676 444 676 511 l 676 444 l 676 0 l 508 0 l 503 86 q 405 13 460 38 q 277 -12 349 -12 z m 336 112 l 336 112 q 430 138 387 112 q 498 199 473 165 l 498 199 l 498 306 q 299 279 356 305 q 242 195 242 253 l 242 195 q 268 132 242 153 q 336 112 294 112 z m 528 756 l 528 756 q 470 779 493 756 q 446 836 446 802 l 446 836 q 470 893 446 871 q 528 916 493 916 l 528 916 q 586 893 563 916 q 610 836 610 871 l 610 836 q 586 779 610 802 q 528 756 563 756 z m 268 756 l 268 756 q 209 779 233 756 q 185 836 185 802 l 185 836 q 209 893 185 871 q 268 916 233 916 l 268 916 q 326 893 302 916 q 349 836 349 871 l 349 836 q 326 779 349 802 q 268 756 302 756 z "},"å":{"ha":766,"x_min":62,"x_max":676,"o":"m 277 -12 l 277 -12 q 172 10 220 -12 q 93 76 123 32 q 62 185 62 119 l 62 185 q 117 323 62 277 q 271 386 172 370 q 500 406 370 403 l 500 406 l 500 441 q 470 529 500 505 q 390 553 439 553 l 390 553 q 302 527 336 553 q 267 445 267 502 l 267 445 l 99 445 q 136 579 99 530 q 238 650 173 629 q 390 672 304 672 l 390 672 q 505 662 453 672 q 596 625 557 651 q 655 555 634 600 q 676 444 676 511 l 676 444 l 676 0 l 508 0 l 503 86 q 405 13 460 38 q 277 -12 349 -12 z m 336 112 l 336 112 q 430 138 387 112 q 498 199 473 165 l 498 199 l 498 306 q 299 279 356 305 q 242 195 242 253 l 242 195 q 268 132 242 153 q 336 112 294 112 z m 397 732 l 397 732 q 293 769 334 732 q 252 869 252 806 l 252 869 q 293 968 252 931 q 397 1006 334 1006 l 397 1006 q 502 968 460 1006 q 543 869 543 931 l 543 869 q 502 769 543 806 q 397 732 460 732 z m 397 808 l 397 808 q 440 826 424 808 q 457 869 457 843 l 457 869 q 440 913 457 896 q 397 930 424 930 l 397 930 q 355 913 372 930 q 338 869 338 896 l 338 869 q 355 826 338 843 q 397 808 372 808 z "},"æ":{"ha":1211,"x_min":62,"x_max":1147,"o":"m 839 -12 l 839 -12 q 653 29 728 -12 q 539 147 578 70 q 500 333 500 224 l 500 333 q 538 514 500 438 q 649 631 576 590 q 828 672 722 672 l 828 672 q 1062 586 976 672 q 1147 339 1147 499 l 1147 339 q 1147 317 1147 331 q 1145 296 1146 303 l 1145 296 l 680 296 q 697 208 682 249 q 748 143 713 168 q 839 118 783 118 l 839 118 q 932 143 897 118 q 968 219 968 169 l 968 219 l 1146 219 q 1103 90 1142 142 q 996 13 1063 39 q 839 -12 929 -12 z m 303 -12 l 303 -12 q 125 40 187 -12 q 62 183 62 93 l 62 183 q 116 320 62 273 q 268 384 169 367 q 500 403 366 401 l 500 403 l 500 443 q 486 508 500 484 q 447 541 472 531 q 392 551 422 551 l 392 551 q 302 526 338 551 q 267 446 267 501 l 267 446 l 99 446 q 175 617 99 562 q 390 672 250 672 l 390 672 q 507 656 458 672 q 587 609 557 641 q 627 528 617 577 l 627 528 l 538 306 q 362 296 427 307 q 270 261 297 286 q 242 199 242 237 l 242 199 q 267 134 242 157 q 337 112 292 112 l 337 112 q 412 127 375 112 q 480 173 449 142 q 532 248 512 203 l 532 248 l 602 188 q 541 81 583 126 q 437 12 498 36 q 303 -12 376 -12 z m 682 410 l 682 410 l 969 410 q 928 513 967 479 q 828 547 889 547 l 828 547 q 725 512 765 547 q 682 410 686 476 z "},"ç":{"ha":762,"x_min":62,"x_max":700,"o":"m 393 -9 l 393 -9 q 226 26 301 -9 q 106 136 151 61 q 62 328 62 210 l 62 328 q 104 522 62 446 q 221 635 146 598 q 393 672 296 672 l 393 672 q 545 644 477 672 q 653 561 613 616 q 694 422 693 506 l 694 422 l 519 422 q 486 503 518 473 q 394 533 453 533 l 394 533 q 281 479 316 533 q 246 328 246 426 l 246 328 q 261 221 246 265 q 310 153 277 176 q 394 130 342 130 l 394 130 q 489 162 454 130 q 526 256 524 195 l 526 256 l 700 256 q 658 111 698 170 q 550 21 618 52 q 393 -9 481 -9 z m 384 -257 l 384 -257 q 303 -250 336 -257 q 240 -231 270 -242 l 240 -231 l 264 -153 q 317 -169 288 -163 q 375 -174 346 -174 l 375 -174 q 415 -164 400 -174 q 431 -134 431 -154 l 431 -134 q 411 -105 431 -115 q 336 -86 391 -95 l 336 -86 l 305 -81 l 399 35 l 467 9 l 426 -41 l 391 -31 q 496 -60 455 -33 q 538 -140 538 -87 l 538 -140 q 516 -206 538 -180 q 459 -244 494 -232 q 384 -257 425 -257 z "},"è":{"ha":772,"x_min":62,"x_max":709,"o":"m 401 -12 l 401 -12 q 215 29 290 -12 q 101 147 140 70 q 62 333 62 224 l 62 333 q 100 514 62 438 q 211 631 138 590 q 390 672 283 672 l 390 672 q 624 586 538 672 q 709 339 709 499 l 709 339 q 709 317 709 331 q 707 296 708 303 l 707 296 l 242 296 q 259 208 243 249 q 310 143 275 168 q 401 118 345 118 l 401 118 q 494 143 459 118 q 530 219 530 169 l 530 219 l 707 219 q 665 90 704 142 q 558 13 626 39 q 401 -12 491 -12 z m 244 410 l 244 410 l 531 410 q 490 513 529 479 q 390 547 451 547 l 390 547 q 288 512 328 547 q 244 410 248 477 z m 481 750 l 350 750 l 156 937 l 348 937 l 481 750 z "},"é":{"ha":772,"x_min":62,"x_max":709,"o":"m 401 -12 l 401 -12 q 215 29 290 -12 q 101 147 140 70 q 62 333 62 224 l 62 333 q 100 514 62 438 q 211 631 138 590 q 390 672 283 672 l 390 672 q 624 586 538 672 q 709 339 709 499 l 709 339 q 709 317 709 331 q 707 296 708 303 l 707 296 l 242 296 q 259 208 243 249 q 310 143 275 168 q 401 118 345 118 l 401 118 q 494 143 459 118 q 530 219 530 169 l 530 219 l 707 219 q 665 90 704 142 q 558 13 626 39 q 401 -12 491 -12 z m 244 410 l 244 410 l 531 410 q 490 513 529 479 q 390 547 451 547 l 390 547 q 288 512 328 547 q 244 410 248 477 z m 427 750 l 294 750 l 428 937 l 622 937 l 427 750 z "},"ê":{"ha":772,"x_min":62,"x_max":709,"o":"m 401 -12 l 401 -12 q 215 29 290 -12 q 101 147 140 70 q 62 333 62 224 l 62 333 q 100 514 62 438 q 211 631 138 590 q 390 672 283 672 l 390 672 q 624 586 538 672 q 709 339 709 499 l 709 339 q 709 317 709 331 q 707 296 708 303 l 707 296 l 242 296 q 259 208 243 249 q 310 143 275 168 q 401 118 345 118 l 401 118 q 494 143 459 118 q 530 219 530 169 l 530 219 l 707 219 q 665 90 704 142 q 558 13 626 39 q 401 -12 491 -12 z m 244 410 l 244 410 l 531 410 q 490 513 529 479 q 390 547 451 547 l 390 547 q 288 512 328 547 q 244 410 248 477 z m 298 750 l 164 750 l 308 937 l 473 937 l 616 750 l 481 750 l 391 850 l 298 750 z "},"ë":{"ha":772,"x_min":62,"x_max":709,"o":"m 401 -12 l 401 -12 q 215 29 290 -12 q 101 147 140 70 q 62 333 62 224 l 62 333 q 100 514 62 438 q 211 631 138 590 q 390 672 283 672 l 390 672 q 624 586 538 672 q 709 339 709 499 l 709 339 q 709 317 709 331 q 707 296 708 303 l 707 296 l 242 296 q 259 208 243 249 q 310 143 275 168 q 401 118 345 118 l 401 118 q 494 143 459 118 q 530 219 530 169 l 530 219 l 707 219 q 665 90 704 142 q 558 13 626 39 q 401 -12 491 -12 z m 244 410 l 244 410 l 531 410 q 490 513 529 479 q 390 547 451 547 l 390 547 q 288 512 328 547 q 244 410 248 477 z m 520 756 l 520 756 q 462 779 486 756 q 439 836 439 802 l 439 836 q 462 893 439 871 q 520 916 486 916 l 520 916 q 579 893 555 916 q 602 836 602 871 l 602 836 q 579 779 602 802 q 520 756 555 756 z m 260 756 l 260 756 q 202 779 226 756 q 178 836 178 802 l 178 836 q 202 893 178 871 q 260 916 226 916 l 260 916 q 318 893 294 916 q 342 836 342 871 l 342 836 q 318 779 342 802 q 260 756 294 756 z "},"ì":{"ha":372,"x_min":-47,"x_max":278,"o":"m 276 0 l 96 0 l 96 662 l 276 662 l 276 0 z m 278 750 l 146 750 l -47 937 l 144 937 l 278 750 z "},"í":{"ha":372,"x_min":91,"x_max":418,"o":"m 276 0 l 96 0 l 96 662 l 276 662 l 276 0 z m 224 750 l 91 750 l 224 937 l 418 937 l 224 750 z "},"î":{"ha":372,"x_min":-39,"x_max":413,"o":"m 276 0 l 96 0 l 96 662 l 276 662 l 276 0 z m 95 750 l -39 750 l 104 937 l 269 937 l 413 750 l 278 750 l 187 850 l 95 750 z "},"ï":{"ha":372,"x_min":-10,"x_max":384,"o":"m 276 0 l 96 0 l 96 662 l 276 662 l 276 0 z m 303 756 l 303 756 q 244 779 268 756 q 221 836 221 802 l 221 836 q 244 893 221 871 q 303 916 268 916 l 303 916 q 361 893 338 916 q 384 836 384 871 l 384 836 q 361 779 384 802 q 303 756 338 756 z m 71 756 l 71 756 q 13 779 36 756 q -10 836 -10 802 l -10 836 q 13 893 -10 871 q 71 916 36 916 l 71 916 q 129 893 106 916 q 152 836 152 871 l 152 836 q 129 779 152 802 q 71 756 106 756 z "},"ð":{"ha":796,"x_min":62,"x_max":734,"o":"m 395 -12 l 395 -12 q 220 27 296 -12 q 104 140 145 66 q 62 317 62 214 l 62 317 q 103 496 62 422 q 216 609 144 570 q 380 648 288 648 l 380 648 q 509 612 467 648 q 568 508 551 575 l 568 508 l 547 509 q 520 573 539 541 q 473 639 501 606 q 407 707 444 672 q 323 780 369 742 l 323 780 l 164 913 l 378 913 l 475 831 q 623 677 566 756 q 707 514 680 597 q 734 346 734 431 l 734 346 q 692 149 734 229 q 574 29 650 69 q 395 -12 498 -12 z m 397 125 l 397 125 q 488 152 455 125 q 536 223 522 179 q 551 317 551 267 l 551 317 q 536 412 551 368 q 488 483 522 456 q 397 510 455 510 l 397 510 q 307 483 340 510 q 260 412 274 456 q 246 317 246 368 l 246 317 q 260 223 246 267 q 307 152 274 179 q 397 125 340 125 z m 395 740 l 161 667 l 161 778 l 395 850 l 395 846 l 629 918 l 629 808 l 395 736 l 395 740 z "},"ñ":{"ha":804,"x_min":96,"x_max":713,"o":"m 276 0 l 96 0 l 96 662 l 269 662 l 273 563 q 360 638 306 606 q 501 671 414 671 l 501 671 q 658 610 602 671 q 713 431 713 549 l 713 431 l 713 0 l 535 0 l 535 408 q 525 471 535 444 q 493 513 515 498 q 435 528 471 528 l 435 528 q 343 503 381 528 q 276 441 304 477 l 276 441 l 276 0 z m 288 758 l 195 758 q 234 876 201 835 q 326 917 267 917 l 326 917 q 385 907 357 917 q 438 887 413 898 l 438 887 q 478 872 460 878 q 511 866 496 866 l 511 866 q 531 878 524 866 q 541 918 538 889 l 541 918 l 635 918 q 600 803 628 842 q 515 765 572 765 l 515 765 q 454 774 482 765 q 401 792 427 783 l 401 792 q 359 808 377 802 q 327 814 342 814 l 327 814 q 301 801 311 814 q 288 758 292 788 l 288 758 z "},"ò":{"ha":796,"x_min":62,"x_max":734,"o":"m 397 -11 l 397 -11 q 221 29 296 -11 q 104 145 145 69 q 62 329 62 221 l 62 329 q 104 516 62 439 q 221 633 145 593 q 397 673 296 673 l 397 673 q 574 633 498 673 q 692 516 650 593 q 734 329 734 439 l 734 329 q 692 145 734 221 q 574 29 650 69 q 397 -11 498 -11 z m 397 126 l 397 126 q 489 154 456 126 q 537 227 523 181 q 551 329 551 273 l 551 329 q 537 433 551 386 q 489 507 523 479 q 397 535 456 535 l 397 535 q 306 507 339 535 q 260 433 273 479 q 246 329 246 386 l 246 329 q 260 227 246 273 q 306 154 273 181 q 397 126 339 126 z m 490 750 l 358 750 l 164 937 l 356 937 l 490 750 z "},"ó":{"ha":796,"x_min":62,"x_max":734,"o":"m 397 -11 l 397 -11 q 221 29 296 -11 q 104 145 145 69 q 62 329 62 221 l 62 329 q 104 516 62 439 q 221 633 145 593 q 397 673 296 673 l 397 673 q 574 633 498 673 q 692 516 650 593 q 734 329 734 439 l 734 329 q 692 145 734 221 q 574 29 650 69 q 397 -11 498 -11 z m 397 126 l 397 126 q 489 154 456 126 q 537 227 523 181 q 551 329 551 273 l 551 329 q 537 433 551 386 q 489 507 523 479 q 397 535 456 535 l 397 535 q 306 507 339 535 q 260 433 273 479 q 246 329 246 386 l 246 329 q 260 227 246 273 q 306 154 273 181 q 397 126 339 126 z m 435 750 l 302 750 l 436 937 l 630 937 l 435 750 z "},"ô":{"ha":796,"x_min":62,"x_max":734,"o":"m 397 -11 l 397 -11 q 221 29 296 -11 q 104 145 145 69 q 62 329 62 221 l 62 329 q 104 516 62 439 q 221 633 145 593 q 397 673 296 673 l 397 673 q 574 633 498 673 q 692 516 650 593 q 734 329 734 439 l 734 329 q 692 145 734 221 q 574 29 650 69 q 397 -11 498 -11 z m 397 126 l 397 126 q 489 154 456 126 q 537 227 523 181 q 551 329 551 273 l 551 329 q 537 433 551 386 q 489 507 523 479 q 397 535 456 535 l 397 535 q 306 507 339 535 q 260 433 273 479 q 246 329 246 386 l 246 329 q 260 227 246 273 q 306 154 273 181 q 397 126 339 126 z m 307 750 l 172 750 l 316 937 l 481 937 l 625 750 l 490 750 l 399 850 l 307 750 z "},"õ":{"ha":796,"x_min":62,"x_max":734,"o":"m 397 -11 l 397 -11 q 221 29 296 -11 q 104 145 145 69 q 62 329 62 221 l 62 329 q 104 516 62 439 q 221 633 145 593 q 397 673 296 673 l 397 673 q 574 633 498 673 q 692 516 650 593 q 734 329 734 439 l 734 329 q 692 145 734 221 q 574 29 650 69 q 397 -11 498 -11 z m 397 126 l 397 126 q 489 154 456 126 q 537 227 523 181 q 551 329 551 273 l 551 329 q 537 433 551 386 q 489 507 523 479 q 397 535 456 535 l 397 535 q 306 507 339 535 q 260 433 273 479 q 246 329 246 386 l 246 329 q 260 227 246 273 q 306 154 273 181 q 397 126 339 126 z m 272 758 l 178 758 q 218 876 185 835 q 309 917 251 917 l 309 917 q 369 907 341 917 q 422 887 397 898 l 422 887 q 462 872 444 878 q 495 866 480 866 l 495 866 q 515 878 507 866 q 525 918 522 889 l 525 918 l 618 918 q 584 803 612 842 q 499 765 555 765 l 499 765 q 438 774 466 765 q 385 792 410 783 l 385 792 q 343 808 361 802 q 311 814 326 814 l 311 814 q 285 801 294 814 q 272 758 275 788 l 272 758 z "},"ö":{"ha":796,"x_min":62,"x_max":734,"o":"m 397 -11 l 397 -11 q 221 29 296 -11 q 104 145 145 69 q 62 329 62 221 l 62 329 q 104 516 62 439 q 221 633 145 593 q 397 673 296 673 l 397 673 q 574 633 498 673 q 692 516 650 593 q 734 329 734 439 l 734 329 q 692 145 734 221 q 574 29 650 69 q 397 -11 498 -11 z m 397 126 l 397 126 q 489 154 456 126 q 537 227 523 181 q 551 329 551 273 l 551 329 q 537 433 551 386 q 489 507 523 479 q 397 535 456 535 l 397 535 q 306 507 339 535 q 260 433 273 479 q 246 329 246 386 l 246 329 q 260 227 246 273 q 306 154 273 181 q 397 126 339 126 z m 528 756 l 528 756 q 470 779 494 756 q 447 836 447 802 l 447 836 q 470 893 447 871 q 528 916 494 916 l 528 916 q 587 893 564 916 q 610 836 610 871 l 610 836 q 587 779 610 802 q 528 756 564 756 z m 269 756 l 269 756 q 210 779 234 756 q 186 836 186 802 l 186 836 q 210 893 186 871 q 269 916 234 916 l 269 916 q 326 893 302 916 q 350 836 350 871 l 350 836 q 326 779 350 802 q 269 756 302 756 z "},"÷":{"ha":742,"x_min":53,"x_max":689,"o":"m 53 382 l 53 524 l 689 524 l 689 382 l 53 382 z m 372 106 l 372 106 q 295 137 324 106 q 265 209 265 167 l 265 209 q 295 283 265 255 q 372 311 324 311 l 372 311 q 449 283 420 311 q 478 209 478 255 l 478 209 q 449 137 478 167 q 372 106 420 106 z m 372 595 l 372 595 q 295 625 324 595 q 265 696 265 654 l 265 696 q 295 771 265 743 q 372 799 324 799 l 372 799 q 449 771 420 799 q 478 696 478 743 l 478 696 q 449 625 478 654 q 372 595 420 595 z "},"ø":{"ha":796,"x_min":58,"x_max":738,"o":"m 738 657 l 130 -63 l 58 0 l 666 720 l 738 657 z m 397 -12 l 397 -12 q 221 28 296 -12 q 104 144 145 68 q 62 328 62 220 l 62 328 q 104 513 62 437 q 221 630 145 590 q 397 671 296 671 l 397 671 q 574 630 498 671 q 692 513 650 590 q 734 328 734 437 l 734 328 q 692 144 734 220 q 574 28 650 68 q 397 -12 498 -12 z m 397 119 l 397 119 q 490 147 456 119 q 540 223 525 175 q 555 328 555 271 l 555 328 q 540 434 555 386 q 490 511 525 482 q 397 540 456 540 l 397 540 q 304 511 338 540 q 255 434 270 482 q 241 328 241 386 l 241 328 q 255 223 241 271 q 304 147 270 175 q 397 119 338 119 z "},"ù":{"ha":808,"x_min":90,"x_max":711,"o":"m 300 -9 l 300 -9 q 145 53 200 -9 q 90 230 90 115 l 90 230 l 90 662 l 270 662 l 270 252 q 280 192 270 218 q 312 151 290 165 q 372 137 335 137 l 372 137 q 465 161 427 137 q 532 220 503 185 l 532 220 l 532 662 l 711 662 l 711 0 l 538 0 l 535 100 q 444 24 502 58 q 300 -9 387 -9 z m 492 750 l 360 750 l 166 937 l 358 937 l 492 750 z "},"ú":{"ha":808,"x_min":90,"x_max":711,"o":"m 300 -9 l 300 -9 q 145 53 200 -9 q 90 230 90 115 l 90 230 l 90 662 l 270 662 l 270 252 q 280 192 270 218 q 312 151 290 165 q 372 137 335 137 l 372 137 q 465 161 427 137 q 532 220 503 185 l 532 220 l 532 662 l 711 662 l 711 0 l 538 0 l 535 100 q 444 24 502 58 q 300 -9 387 -9 z m 437 750 l 304 750 l 438 937 l 632 937 l 437 750 z "},"û":{"ha":808,"x_min":90,"x_max":711,"o":"m 300 -9 l 300 -9 q 145 53 200 -9 q 90 230 90 115 l 90 230 l 90 662 l 270 662 l 270 252 q 280 192 270 218 q 312 151 290 165 q 372 137 335 137 l 372 137 q 465 161 427 137 q 532 220 503 185 l 532 220 l 532 662 l 711 662 l 711 0 l 538 0 l 535 100 q 444 24 502 58 q 300 -9 387 -9 z m 309 750 l 174 750 l 318 937 l 483 937 l 627 750 l 492 750 l 401 850 l 309 750 z "},"ü":{"ha":808,"x_min":90,"x_max":711,"o":"m 300 -9 l 300 -9 q 145 53 200 -9 q 90 230 90 115 l 90 230 l 90 662 l 270 662 l 270 252 q 280 192 270 218 q 312 151 290 165 q 372 137 335 137 l 372 137 q 465 161 427 137 q 532 220 503 185 l 532 220 l 532 662 l 711 662 l 711 0 l 538 0 l 535 100 q 444 24 502 58 q 300 -9 387 -9 z m 530 756 l 530 756 q 472 779 496 756 q 449 836 449 802 l 449 836 q 472 893 449 871 q 530 916 496 916 l 530 916 q 589 893 566 916 q 612 836 612 871 l 612 836 q 589 779 612 802 q 530 756 566 756 z m 271 756 l 271 756 q 212 779 236 756 q 188 836 188 802 l 188 836 q 212 893 188 871 q 271 916 236 916 l 271 916 q 328 893 304 916 q 352 836 352 871 l 352 836 q 328 779 352 802 q 271 756 304 756 z "},"ý":{"ha":686,"x_min":0,"x_max":686,"o":"m 158 -243 l 77 -243 l 77 -97 l 137 -97 q 204 -83 177 -97 q 243 -36 231 -68 l 243 -36 l 258 0 l 0 662 l 187 662 l 355 172 l 504 662 l 686 662 l 448 0 l 423 -66 q 363 -174 397 -136 q 280 -228 330 -213 q 158 -243 231 -243 l 158 -243 z m 383 750 l 250 750 l 384 937 l 578 937 l 383 750 z "},"þ":{"ha":814,"x_min":96,"x_max":752,"o":"m 276 -243 l 96 -243 l 96 913 l 276 913 l 276 561 q 364 642 313 614 q 486 670 416 670 l 486 670 q 629 633 570 670 q 720 518 688 595 q 752 323 752 441 l 752 323 q 716 135 752 209 q 618 24 681 60 q 473 -12 555 -12 l 473 -12 q 361 14 409 -12 q 276 90 313 39 l 276 90 l 276 -243 z m 429 125 l 429 125 q 531 176 494 125 q 568 325 568 227 l 568 325 q 533 482 568 431 q 433 534 498 534 l 433 534 q 334 499 374 534 q 276 423 295 465 l 276 423 l 276 231 q 335 157 297 188 q 429 125 372 125 z "},"ÿ":{"ha":686,"x_min":0,"x_max":686,"o":"m 158 -243 l 77 -243 l 77 -97 l 137 -97 q 204 -83 177 -97 q 243 -36 231 -68 l 243 -36 l 258 0 l 0 662 l 187 662 l 355 172 l 504 662 l 686 662 l 448 0 l 423 -66 q 363 -174 397 -136 q 280 -228 330 -213 q 158 -243 231 -243 l 158 -243 z m 476 756 l 476 756 q 418 779 441 756 q 395 836 395 802 l 395 836 q 418 893 395 871 q 476 916 441 916 l 476 916 q 535 893 511 916 q 558 836 558 871 l 558 836 q 535 779 558 802 q 476 756 511 756 z m 216 756 l 216 756 q 158 779 182 756 q 134 836 134 802 l 134 836 q 158 893 134 871 q 216 916 182 916 l 216 916 q 274 893 250 916 q 298 836 298 871 l 298 836 q 274 779 298 802 q 216 756 250 756 z "},"Ā":{"ha":861,"x_min":2,"x_max":859,"o":"m 199 0 l 2 0 l 330 913 l 530 913 l 859 0 l 661 0 l 595 201 l 266 201 l 199 0 z m 430 724 l 311 359 l 549 359 l 430 724 z m 621 1015 l 239 1015 l 239 1124 l 621 1124 l 621 1015 z "},"ā":{"ha":766,"x_min":62,"x_max":676,"o":"m 277 -12 l 277 -12 q 172 10 220 -12 q 93 76 123 32 q 62 185 62 119 l 62 185 q 117 323 62 277 q 271 386 172 370 q 500 406 370 403 l 500 406 l 500 441 q 470 529 500 505 q 390 553 439 553 l 390 553 q 302 527 336 553 q 267 445 267 502 l 267 445 l 99 445 q 136 579 99 530 q 238 650 173 629 q 390 672 304 672 l 390 672 q 505 662 453 672 q 596 625 557 651 q 655 555 634 600 q 676 444 676 511 l 676 444 l 676 0 l 508 0 l 503 86 q 405 13 460 38 q 277 -12 349 -12 z m 336 112 l 336 112 q 430 138 387 112 q 498 199 473 165 l 498 199 l 498 306 q 299 279 356 305 q 242 195 242 253 l 242 195 q 268 132 242 153 q 336 112 294 112 z m 589 780 l 207 780 l 207 889 l 589 889 l 589 780 z "},"Ă":{"ha":861,"x_min":2,"x_max":859,"o":"m 199 0 l 2 0 l 330 913 l 530 913 l 859 0 l 661 0 l 595 201 l 266 201 l 199 0 z m 430 724 l 311 359 l 549 359 l 430 724 z m 429 987 l 429 987 q 320 1010 368 987 q 247 1075 273 1034 q 218 1174 220 1117 l 218 1174 l 314 1174 q 336 1119 319 1139 q 379 1090 354 1099 q 429 1082 404 1082 l 429 1082 q 479 1090 454 1082 q 521 1119 503 1099 q 544 1174 539 1139 l 544 1174 l 641 1174 q 611 1076 639 1118 q 537 1010 584 1034 q 429 987 490 987 z "},"ă":{"ha":766,"x_min":62,"x_max":676,"o":"m 277 -12 l 277 -12 q 172 10 220 -12 q 93 76 123 32 q 62 185 62 119 l 62 185 q 117 323 62 277 q 271 386 172 370 q 500 406 370 403 l 500 406 l 500 441 q 470 529 500 505 q 390 553 439 553 l 390 553 q 302 527 336 553 q 267 445 267 502 l 267 445 l 99 445 q 136 579 99 530 q 238 650 173 629 q 390 672 304 672 l 390 672 q 505 662 453 672 q 596 625 557 651 q 655 555 634 600 q 676 444 676 511 l 676 444 l 676 0 l 508 0 l 503 86 q 405 13 460 38 q 277 -12 349 -12 z m 336 112 l 336 112 q 430 138 387 112 q 498 199 473 165 l 498 199 l 498 306 q 299 279 356 305 q 242 195 242 253 l 242 195 q 268 132 242 153 q 336 112 294 112 z m 397 749 l 397 749 q 256 800 305 749 q 199 937 206 850 l 199 937 l 295 937 q 332 865 301 884 q 397 846 363 846 l 397 846 q 469 865 435 846 q 509 937 503 884 l 509 937 l 595 937 q 538 800 588 851 q 397 749 489 749 z "},"Ą":{"ha":861,"x_min":2,"x_max":859,"o":"m 199 0 l 2 0 l 330 913 l 530 913 l 859 0 l 661 0 l 595 201 l 266 201 l 199 0 z m 430 724 l 311 359 l 549 359 l 430 724 z m 728 -252 l 728 -252 q 629 -220 669 -252 q 589 -133 589 -189 l 589 -133 q 610 -65 589 -98 q 667 -8 631 -33 q 750 24 704 16 l 750 24 l 812 7 q 741 -48 763 -18 q 718 -102 718 -78 l 718 -102 q 729 -132 718 -121 q 762 -143 740 -143 l 762 -143 q 804 -137 783 -143 q 849 -121 825 -132 l 849 -121 l 849 -222 q 798 -244 825 -236 q 728 -252 771 -252 z "},"ą":{"ha":766,"x_min":62,"x_max":676,"o":"m 277 -12 l 277 -12 q 172 10 220 -12 q 93 76 123 32 q 62 185 62 119 l 62 185 q 117 323 62 277 q 271 386 172 370 q 500 406 370 403 l 500 406 l 500 441 q 470 529 500 505 q 390 553 439 553 l 390 553 q 302 527 336 553 q 267 445 267 502 l 267 445 l 99 445 q 136 579 99 530 q 238 650 173 629 q 390 672 304 672 l 390 672 q 505 662 453 672 q 596 625 557 651 q 655 555 634 600 q 676 444 676 511 l 676 444 l 676 0 l 508 0 l 503 86 q 405 13 460 38 q 277 -12 349 -12 z m 336 112 l 336 112 q 430 138 387 112 q 498 199 473 165 l 498 199 l 498 306 q 299 279 356 305 q 242 195 242 253 l 242 195 q 268 132 242 153 q 336 112 294 112 z m 536 -252 l 536 -252 q 436 -220 477 -252 q 396 -133 396 -189 l 396 -133 q 417 -65 396 -98 q 475 -8 438 -33 q 557 24 511 16 l 557 24 l 620 7 q 548 -48 570 -18 q 526 -102 526 -78 l 526 -102 q 536 -132 526 -121 q 569 -143 547 -143 l 569 -143 q 612 -137 591 -143 q 656 -121 633 -132 l 656 -121 l 656 -222 q 606 -244 633 -236 q 536 -252 578 -252 z "},"Ć":{"ha":981,"x_min":67,"x_max":919,"o":"m 512 -12 l 512 -12 q 274 46 374 -12 q 121 209 174 104 q 67 456 67 313 l 67 456 q 121 704 67 598 q 274 867 174 809 q 512 925 374 925 l 512 925 q 709 888 619 925 q 856 779 800 851 q 918 601 912 707 l 918 601 l 722 601 q 686 693 715 656 q 612 748 657 730 q 512 766 568 766 l 512 766 q 368 723 422 766 q 289 609 313 680 q 264 456 264 539 l 264 456 q 289 302 264 373 q 368 189 313 232 q 512 146 422 146 l 512 146 q 661 195 606 146 q 724 333 715 243 l 724 333 l 919 333 q 860 144 911 221 q 721 27 809 67 q 512 -12 633 -12 z m 564 986 l 431 986 l 559 1174 l 751 1174 l 564 986 z "},"ć":{"ha":762,"x_min":62,"x_max":700,"o":"m 393 -9 l 393 -9 q 226 26 301 -9 q 106 136 151 61 q 62 328 62 210 l 62 328 q 104 522 62 446 q 221 635 146 598 q 393 672 296 672 l 393 672 q 545 644 477 672 q 653 561 613 616 q 694 422 693 506 l 694 422 l 519 422 q 486 503 518 473 q 394 533 453 533 l 394 533 q 281 479 316 533 q 246 328 246 426 l 246 328 q 261 221 246 265 q 310 153 277 176 q 394 130 342 130 l 394 130 q 489 162 454 130 q 526 256 524 195 l 526 256 l 700 256 q 658 111 698 170 q 550 21 618 52 q 393 -9 481 -9 z m 420 750 l 288 750 l 421 937 l 615 937 l 420 750 z "},"Ĉ":{"ha":981,"x_min":67,"x_max":919,"o":"m 512 -12 l 512 -12 q 274 46 374 -12 q 121 209 174 104 q 67 456 67 313 l 67 456 q 121 704 67 598 q 274 867 174 809 q 512 925 374 925 l 512 925 q 709 888 619 925 q 856 779 800 851 q 918 601 912 707 l 918 601 l 722 601 q 686 693 715 656 q 612 748 657 730 q 512 766 568 766 l 512 766 q 368 723 422 766 q 289 609 313 680 q 264 456 264 539 l 264 456 q 289 302 264 373 q 368 189 313 232 q 512 146 422 146 l 512 146 q 661 195 606 146 q 724 333 715 243 l 724 333 l 919 333 q 860 144 911 221 q 721 27 809 67 q 512 -12 633 -12 z m 427 986 l 292 986 l 436 1175 l 601 1175 l 745 986 l 610 986 l 518 1086 l 427 986 z "},"ĉ":{"ha":762,"x_min":62,"x_max":700,"o":"m 393 -9 l 393 -9 q 226 26 301 -9 q 106 136 151 61 q 62 328 62 210 l 62 328 q 104 522 62 446 q 221 635 146 598 q 393 672 296 672 l 393 672 q 545 644 477 672 q 653 561 613 616 q 694 422 693 506 l 694 422 l 519 422 q 486 503 518 473 q 394 533 453 533 l 394 533 q 281 479 316 533 q 246 328 246 426 l 246 328 q 261 221 246 265 q 310 153 277 176 q 394 130 342 130 l 394 130 q 489 162 454 130 q 526 256 524 195 l 526 256 l 700 256 q 658 111 698 170 q 550 21 618 52 q 393 -9 481 -9 z m 292 750 l 157 750 l 301 937 l 466 937 l 610 750 l 475 750 l 384 850 l 292 750 z "},"Ċ":{"ha":981,"x_min":67,"x_max":919,"o":"m 512 -12 l 512 -12 q 274 46 374 -12 q 121 209 174 104 q 67 456 67 313 l 67 456 q 121 704 67 598 q 274 867 174 809 q 512 925 374 925 l 512 925 q 709 888 619 925 q 856 779 800 851 q 918 601 912 707 l 918 601 l 722 601 q 686 693 715 656 q 612 748 657 730 q 512 766 568 766 l 512 766 q 368 723 422 766 q 289 609 313 680 q 264 456 264 539 l 264 456 q 289 302 264 373 q 368 189 313 232 q 512 146 422 146 l 512 146 q 661 195 606 146 q 724 333 715 243 l 724 333 l 919 333 q 860 144 911 221 q 721 27 809 67 q 512 -12 633 -12 z m 518 983 l 518 983 q 443 1008 469 983 q 416 1071 416 1034 l 416 1071 q 443 1134 416 1109 q 518 1158 469 1158 l 518 1158 q 594 1134 568 1158 q 620 1071 620 1109 l 620 1071 q 594 1008 620 1034 q 518 983 568 983 z "},"ċ":{"ha":762,"x_min":62,"x_max":700,"o":"m 393 -9 l 393 -9 q 226 26 301 -9 q 106 136 151 61 q 62 328 62 210 l 62 328 q 104 522 62 446 q 221 635 146 598 q 393 672 296 672 l 393 672 q 545 644 477 672 q 653 561 613 616 q 694 422 693 506 l 694 422 l 519 422 q 486 503 518 473 q 394 533 453 533 l 394 533 q 281 479 316 533 q 246 328 246 426 l 246 328 q 261 221 246 265 q 310 153 277 176 q 394 130 342 130 l 394 130 q 489 162 454 130 q 526 256 524 195 l 526 256 l 700 256 q 658 111 698 170 q 550 21 618 52 q 393 -9 481 -9 z m 383 749 l 383 749 q 308 774 334 749 q 281 836 281 799 l 281 836 q 308 899 281 875 q 383 924 334 924 l 383 924 q 459 899 433 924 q 485 836 485 875 l 485 836 q 459 774 485 799 q 383 749 433 749 z "},"Č":{"ha":981,"x_min":67,"x_max":919,"o":"m 512 -12 l 512 -12 q 274 46 374 -12 q 121 209 174 104 q 67 456 67 313 l 67 456 q 121 704 67 598 q 274 867 174 809 q 512 925 374 925 l 512 925 q 709 888 619 925 q 856 779 800 851 q 918 601 912 707 l 918 601 l 722 601 q 686 693 715 656 q 612 748 657 730 q 512 766 568 766 l 512 766 q 368 723 422 766 q 289 609 313 680 q 264 456 264 539 l 264 456 q 289 302 264 373 q 368 189 313 232 q 512 146 422 146 l 512 146 q 661 195 606 146 q 724 333 715 243 l 724 333 l 919 333 q 860 144 911 221 q 721 27 809 67 q 512 -12 633 -12 z m 601 986 l 436 986 l 292 1175 l 427 1175 l 517 1074 l 610 1175 l 745 1175 l 601 986 z "},"č":{"ha":762,"x_min":62,"x_max":700,"o":"m 393 -9 l 393 -9 q 226 26 301 -9 q 106 136 151 61 q 62 328 62 210 l 62 328 q 104 522 62 446 q 221 635 146 598 q 393 672 296 672 l 393 672 q 545 644 477 672 q 653 561 613 616 q 694 422 693 506 l 694 422 l 519 422 q 486 503 518 473 q 394 533 453 533 l 394 533 q 281 479 316 533 q 246 328 246 426 l 246 328 q 261 221 246 265 q 310 153 277 176 q 394 130 342 130 l 394 130 q 489 162 454 130 q 526 256 524 195 l 526 256 l 700 256 q 658 111 698 170 q 550 21 618 52 q 393 -9 481 -9 z m 466 750 l 301 750 l 157 937 l 292 937 l 383 838 l 475 937 l 610 937 l 466 750 z "},"Ď":{"ha":982,"x_min":109,"x_max":913,"o":"m 449 0 l 109 0 l 109 913 l 449 913 q 700 859 595 913 q 859 703 804 804 q 913 458 913 601 l 913 458 q 858 209 913 311 q 698 53 802 106 q 449 0 594 0 l 449 0 z m 300 754 l 300 159 l 429 159 q 590 192 526 159 q 686 291 654 224 q 718 460 718 358 l 718 460 q 683 622 718 557 q 585 721 649 688 q 429 754 520 754 l 429 754 l 300 754 z m 574 986 l 409 986 l 265 1175 l 399 1175 l 490 1074 l 583 1175 l 718 1175 l 574 986 z "},"ď":{"ha":814,"x_min":62,"x_max":974,"o":"m 324 -12 l 324 -12 q 190 26 250 -12 q 97 140 131 63 q 62 336 62 217 l 62 336 q 99 525 62 450 q 199 636 136 600 q 341 673 262 673 l 341 673 q 460 644 410 673 q 538 570 509 616 l 538 570 l 538 913 l 718 913 l 718 0 l 546 0 l 538 94 q 451 17 503 45 q 324 -12 399 -12 z m 377 125 l 377 125 q 475 157 434 125 q 538 232 517 189 l 538 232 l 538 425 q 479 503 517 470 q 386 536 441 536 l 386 536 q 283 485 319 536 q 246 336 246 433 l 246 336 q 281 177 246 229 q 377 125 316 125 z m 873 697 l 760 697 l 805 913 l 974 913 l 873 697 z "},"Đ":{"ha":982,"x_min":0,"x_max":913,"o":"m 509 383 l 0 383 l 0 536 l 509 536 l 509 383 z m 449 0 l 109 0 l 109 913 l 449 913 q 700 859 595 913 q 859 703 804 804 q 913 458 913 601 l 913 458 q 858 209 913 311 q 698 53 802 106 q 449 0 594 0 l 449 0 z m 300 754 l 300 159 l 429 159 q 590 192 526 159 q 686 291 654 224 q 718 460 718 358 l 718 460 q 683 622 718 557 q 585 721 649 688 q 429 754 520 754 l 429 754 l 300 754 z "},"đ":{"ha":814,"x_min":62,"x_max":804,"o":"m 804 741 l 388 741 l 388 837 l 804 837 l 804 741 z m 324 -12 l 324 -12 q 190 26 250 -12 q 97 140 131 63 q 62 336 62 217 l 62 336 q 99 525 62 450 q 199 636 136 600 q 341 673 262 673 l 341 673 q 460 644 410 673 q 538 570 509 616 l 538 570 l 538 913 l 718 913 l 718 0 l 546 0 l 538 94 q 451 17 503 45 q 324 -12 399 -12 z m 377 125 l 377 125 q 475 157 434 125 q 538 232 517 189 l 538 232 l 538 425 q 479 503 517 470 q 386 536 441 536 l 386 536 q 283 485 319 536 q 246 336 246 433 l 246 336 q 281 177 246 229 q 377 125 316 125 z "},"Ē":{"ha":796,"x_min":109,"x_max":722,"o":"m 722 0 l 109 0 l 109 913 l 722 913 l 722 755 l 300 755 l 300 543 l 682 543 l 682 390 l 300 390 l 300 158 l 722 158 l 722 0 z m 606 1015 l 224 1015 l 224 1124 l 606 1124 l 606 1015 z "},"ē":{"ha":772,"x_min":62,"x_max":709,"o":"m 401 -12 l 401 -12 q 215 29 290 -12 q 101 147 140 70 q 62 333 62 224 l 62 333 q 100 514 62 438 q 211 631 138 590 q 390 672 283 672 l 390 672 q 624 586 538 672 q 709 339 709 499 l 709 339 q 709 317 709 331 q 707 296 708 303 l 707 296 l 242 296 q 259 208 243 249 q 310 143 275 168 q 401 118 345 118 l 401 118 q 494 143 459 118 q 530 219 530 169 l 530 219 l 707 219 q 665 90 704 142 q 558 13 626 39 q 401 -12 491 -12 z m 244 410 l 244 410 l 531 410 q 490 513 529 479 q 390 547 451 547 l 390 547 q 288 512 328 547 q 244 410 248 477 z m 581 780 l 199 780 l 199 889 l 581 889 l 581 780 z "},"Ĕ":{"ha":796,"x_min":109,"x_max":722,"o":"m 722 0 l 109 0 l 109 913 l 722 913 l 722 755 l 300 755 l 300 543 l 682 543 l 682 390 l 300 390 l 300 158 l 722 158 l 722 0 z m 414 987 l 414 987 q 306 1010 353 987 q 232 1075 259 1034 q 204 1174 205 1117 l 204 1174 l 300 1174 q 322 1119 304 1139 q 365 1090 340 1099 q 414 1082 389 1082 l 414 1082 q 465 1090 440 1082 q 507 1119 489 1099 q 530 1174 525 1139 l 530 1174 l 627 1174 q 597 1076 625 1118 q 523 1010 570 1034 q 414 987 475 987 z "},"ĕ":{"ha":772,"x_min":62,"x_max":709,"o":"m 401 -12 l 401 -12 q 215 29 290 -12 q 101 147 140 70 q 62 333 62 224 l 62 333 q 100 514 62 438 q 211 631 138 590 q 390 672 283 672 l 390 672 q 624 586 538 672 q 709 339 709 499 l 709 339 q 709 317 709 331 q 707 296 708 303 l 707 296 l 242 296 q 259 208 243 249 q 310 143 275 168 q 401 118 345 118 l 401 118 q 494 143 459 118 q 530 219 530 169 l 530 219 l 707 219 q 665 90 704 142 q 558 13 626 39 q 401 -12 491 -12 z m 244 410 l 244 410 l 531 410 q 490 513 529 479 q 390 547 451 547 l 390 547 q 288 512 328 547 q 244 410 248 477 z m 389 749 l 389 749 q 248 800 298 749 q 191 937 199 850 l 191 937 l 288 937 q 325 865 294 884 q 389 846 355 846 l 389 846 q 461 865 427 846 q 502 937 496 884 l 502 937 l 587 937 q 531 800 581 851 q 389 749 481 749 z "},"Ė":{"ha":796,"x_min":109,"x_max":722,"o":"m 722 0 l 109 0 l 109 913 l 722 913 l 722 755 l 300 755 l 300 543 l 682 543 l 682 390 l 300 390 l 300 158 l 722 158 l 722 0 z m 415 983 l 415 983 q 340 1008 366 983 q 313 1071 313 1034 l 313 1071 q 340 1134 313 1109 q 415 1158 366 1158 l 415 1158 q 491 1134 465 1158 q 517 1071 517 1109 l 517 1071 q 491 1008 517 1034 q 415 983 465 983 z "},"ė":{"ha":772,"x_min":62,"x_max":709,"o":"m 401 -12 l 401 -12 q 215 29 290 -12 q 101 147 140 70 q 62 333 62 224 l 62 333 q 100 514 62 438 q 211 631 138 590 q 390 672 283 672 l 390 672 q 624 586 538 672 q 709 339 709 499 l 709 339 q 709 317 709 331 q 707 296 708 303 l 707 296 l 242 296 q 259 208 243 249 q 310 143 275 168 q 401 118 345 118 l 401 118 q 494 143 459 118 q 530 219 530 169 l 530 219 l 707 219 q 665 90 704 142 q 558 13 626 39 q 401 -12 491 -12 z m 244 410 l 244 410 l 531 410 q 490 513 529 479 q 390 547 451 547 l 390 547 q 288 512 328 547 q 244 410 248 477 z m 390 749 l 390 749 q 315 774 341 749 q 288 836 288 799 l 288 836 q 315 899 288 875 q 390 924 341 924 l 390 924 q 466 899 439 924 q 492 836 492 875 l 492 836 q 466 774 492 799 q 390 749 439 749 z "},"Ę":{"ha":796,"x_min":109,"x_max":722,"o":"m 722 0 l 109 0 l 109 913 l 722 913 l 722 755 l 300 755 l 300 543 l 682 543 l 682 390 l 300 390 l 300 158 l 722 158 l 722 0 z m 566 -252 l 566 -252 q 467 -220 507 -252 q 427 -133 427 -189 l 427 -133 q 448 -65 427 -98 q 505 -8 469 -33 q 588 24 542 16 l 588 24 l 650 7 q 578 -48 601 -18 q 556 -102 556 -78 l 556 -102 q 567 -132 556 -121 q 600 -143 578 -143 l 600 -143 q 642 -137 621 -143 q 687 -121 663 -132 l 687 -121 l 687 -222 q 636 -244 663 -236 q 566 -252 609 -252 z "},"ę":{"ha":772,"x_min":62,"x_max":709,"o":"m 401 -12 l 401 -12 q 215 29 290 -12 q 101 147 140 70 q 62 333 62 224 l 62 333 q 100 514 62 438 q 211 631 138 590 q 390 672 283 672 l 390 672 q 624 586 538 672 q 709 339 709 499 l 709 339 q 709 317 709 331 q 707 296 708 303 l 707 296 l 242 296 q 259 208 243 249 q 310 143 275 168 q 401 118 345 118 l 401 118 q 494 143 459 118 q 530 219 530 169 l 530 219 l 707 219 q 665 90 704 142 q 558 13 626 39 q 401 -12 491 -12 z m 244 410 l 244 410 l 531 410 q 490 513 529 479 q 390 547 451 547 l 390 547 q 288 512 328 547 q 244 410 248 477 z m 458 -252 l 458 -252 q 358 -220 399 -252 q 318 -133 318 -189 l 318 -133 q 339 -65 318 -98 q 397 -8 360 -33 q 479 24 433 16 l 479 24 l 542 7 q 470 -48 492 -18 q 448 -102 448 -78 l 448 -102 q 458 -132 448 -121 q 491 -143 469 -143 l 491 -143 q 534 -137 513 -143 q 578 -121 555 -132 l 578 -121 l 578 -222 q 528 -244 555 -236 q 458 -252 500 -252 z "},"Ě":{"ha":796,"x_min":109,"x_max":722,"o":"m 722 0 l 109 0 l 109 913 l 722 913 l 722 755 l 300 755 l 300 543 l 682 543 l 682 390 l 300 390 l 300 158 l 722 158 l 722 0 z m 498 986 l 333 986 l 189 1175 l 323 1175 l 414 1074 l 507 1175 l 642 1175 l 498 986 z "},"ě":{"ha":772,"x_min":62,"x_max":709,"o":"m 401 -12 l 401 -12 q 215 29 290 -12 q 101 147 140 70 q 62 333 62 224 l 62 333 q 100 514 62 438 q 211 631 138 590 q 390 672 283 672 l 390 672 q 624 586 538 672 q 709 339 709 499 l 709 339 q 709 317 709 331 q 707 296 708 303 l 707 296 l 242 296 q 259 208 243 249 q 310 143 275 168 q 401 118 345 118 l 401 118 q 494 143 459 118 q 530 219 530 169 l 530 219 l 707 219 q 665 90 704 142 q 558 13 626 39 q 401 -12 491 -12 z m 244 410 l 244 410 l 531 410 q 490 513 529 479 q 390 547 451 547 l 390 547 q 288 512 328 547 q 244 410 248 477 z m 473 750 l 308 750 l 164 937 l 298 937 l 390 838 l 481 937 l 616 937 l 473 750 z "},"Ĝ":{"ha":997,"x_min":67,"x_max":928,"o":"m 516 -12 l 516 -12 q 275 46 376 -12 q 121 209 175 104 q 67 456 67 314 l 67 456 q 121 704 67 598 q 275 867 175 809 q 516 925 376 925 l 516 925 q 654 907 587 925 q 779 850 722 888 q 871 753 835 812 q 916 613 908 694 l 916 613 l 721 613 q 690 692 715 658 q 619 747 664 727 q 512 766 574 766 l 512 766 q 368 723 422 766 q 288 610 313 680 q 262 456 262 540 l 262 456 q 288 302 262 372 q 369 189 313 231 q 516 146 425 146 l 516 146 q 632 169 584 146 q 706 234 680 193 q 737 330 733 275 l 737 330 l 521 330 l 521 481 l 928 481 l 928 389 q 881 180 928 270 q 741 39 833 90 q 516 -12 649 -12 z m 420 986 l 286 986 l 430 1175 l 595 1175 l 739 986 l 604 986 l 512 1086 l 420 986 z "},"ĝ":{"ha":710,"x_min":37,"x_max":696,"o":"m 357 -256 l 357 -256 q 168 -231 238 -256 q 68 -167 98 -207 q 37 -81 37 -127 l 37 -81 q 91 17 37 -25 q 260 77 144 60 l 260 77 l 290 140 l 380 140 q 620 95 545 140 q 696 -44 696 50 l 696 -44 q 609 -197 696 -139 q 357 -256 522 -256 z m 354 -143 l 354 -143 q 482 -119 445 -143 q 519 -62 519 -96 l 519 -62 q 507 -25 519 -40 q 464 -2 494 -10 q 385 6 434 6 l 385 6 l 264 6 q 221 -23 237 -4 q 204 -66 204 -41 l 204 -66 q 239 -119 204 -94 q 354 -143 275 -143 z m 363 140 l 263 15 q 148 44 192 23 q 83 92 104 64 q 63 145 63 119 l 63 145 q 95 215 63 186 q 190 266 126 244 l 190 266 l 283 232 q 222 211 247 223 q 198 180 198 198 l 198 180 q 213 158 198 167 q 263 145 227 149 q 363 140 300 140 l 363 140 z m 345 211 l 345 211 q 192 243 255 211 q 96 327 129 275 q 64 439 64 379 l 64 439 q 97 556 64 504 q 193 639 130 608 q 349 670 257 670 l 349 670 q 505 639 443 670 q 598 556 567 608 q 629 439 629 504 l 629 439 q 597 326 629 378 q 503 242 566 273 q 345 211 440 211 z m 345 319 l 345 319 q 428 350 395 319 q 462 439 462 380 l 462 439 q 431 532 462 502 q 349 563 399 563 l 349 563 q 265 531 298 563 q 232 439 232 500 l 232 439 q 266 349 232 380 q 345 319 300 319 z m 534 570 l 534 570 l 481 637 q 563 733 507 707 q 696 760 618 759 l 696 760 l 696 629 q 599 619 643 629 q 534 570 555 609 z m 264 750 l 130 750 l 274 937 l 439 937 l 583 750 l 448 750 l 357 850 l 264 750 z "},"Ğ":{"ha":997,"x_min":67,"x_max":928,"o":"m 516 -12 l 516 -12 q 275 46 376 -12 q 121 209 175 104 q 67 456 67 314 l 67 456 q 121 704 67 598 q 275 867 175 809 q 516 925 376 925 l 516 925 q 654 907 587 925 q 779 850 722 888 q 871 753 835 812 q 916 613 908 694 l 916 613 l 721 613 q 690 692 715 658 q 619 747 664 727 q 512 766 574 766 l 512 766 q 368 723 422 766 q 288 610 313 680 q 262 456 262 540 l 262 456 q 288 302 262 372 q 369 189 313 231 q 516 146 425 146 l 516 146 q 632 169 584 146 q 706 234 680 193 q 737 330 733 275 l 737 330 l 521 330 l 521 481 l 928 481 l 928 389 q 881 180 928 270 q 741 39 833 90 q 516 -12 649 -12 z m 511 987 l 511 987 q 403 1010 450 987 q 329 1075 356 1034 q 301 1174 302 1117 l 301 1174 l 397 1174 q 419 1119 401 1139 q 461 1090 437 1099 q 511 1082 486 1082 l 511 1082 q 562 1090 537 1082 q 604 1119 586 1099 q 627 1174 622 1139 l 627 1174 l 724 1174 q 694 1076 722 1118 q 620 1010 667 1034 q 511 987 572 987 z "},"ğ":{"ha":710,"x_min":37,"x_max":696,"o":"m 357 -256 l 357 -256 q 168 -231 238 -256 q 68 -167 98 -207 q 37 -81 37 -127 l 37 -81 q 91 17 37 -25 q 260 77 144 60 l 260 77 l 290 140 l 380 140 q 620 95 545 140 q 696 -44 696 50 l 696 -44 q 609 -197 696 -139 q 357 -256 522 -256 z m 354 -143 l 354 -143 q 482 -119 445 -143 q 519 -62 519 -96 l 519 -62 q 507 -25 519 -40 q 464 -2 494 -10 q 385 6 434 6 l 385 6 l 264 6 q 221 -23 237 -4 q 204 -66 204 -41 l 204 -66 q 239 -119 204 -94 q 354 -143 275 -143 z m 363 140 l 263 15 q 148 44 192 23 q 83 92 104 64 q 63 145 63 119 l 63 145 q 95 215 63 186 q 190 266 126 244 l 190 266 l 283 232 q 222 211 247 223 q 198 180 198 198 l 198 180 q 213 158 198 167 q 263 145 227 149 q 363 140 300 140 l 363 140 z m 345 211 l 345 211 q 192 243 255 211 q 96 327 129 275 q 64 439 64 379 l 64 439 q 97 556 64 504 q 193 639 130 608 q 349 670 257 670 l 349 670 q 505 639 443 670 q 598 556 567 608 q 629 439 629 504 l 629 439 q 597 326 629 378 q 503 242 566 273 q 345 211 440 211 z m 345 319 l 345 319 q 428 350 395 319 q 462 439 462 380 l 462 439 q 431 532 462 502 q 349 563 399 563 l 349 563 q 265 531 298 563 q 232 439 232 500 l 232 439 q 266 349 232 380 q 345 319 300 319 z m 534 570 l 534 570 l 481 637 q 563 733 507 707 q 696 760 618 759 l 696 760 l 696 629 q 599 619 643 629 q 534 570 555 609 z m 355 749 l 355 749 q 214 800 264 749 q 157 937 165 850 l 157 937 l 254 937 q 291 865 260 884 q 355 846 321 846 l 355 846 q 428 865 393 846 q 468 937 462 884 l 468 937 l 553 937 q 497 800 547 851 q 355 749 448 749 z "},"Ġ":{"ha":997,"x_min":67,"x_max":928,"o":"m 516 -12 l 516 -12 q 275 46 376 -12 q 121 209 175 104 q 67 456 67 314 l 67 456 q 121 704 67 598 q 275 867 175 809 q 516 925 376 925 l 516 925 q 654 907 587 925 q 779 850 722 888 q 871 753 835 812 q 916 613 908 694 l 916 613 l 721 613 q 690 692 715 658 q 619 747 664 727 q 512 766 574 766 l 512 766 q 368 723 422 766 q 288 610 313 680 q 262 456 262 540 l 262 456 q 288 302 262 372 q 369 189 313 231 q 516 146 425 146 l 516 146 q 632 169 584 146 q 706 234 680 193 q 737 330 733 275 l 737 330 l 521 330 l 521 481 l 928 481 l 928 389 q 881 180 928 270 q 741 39 833 90 q 516 -12 649 -12 z m 512 983 l 512 983 q 437 1008 463 983 q 410 1071 410 1034 l 410 1071 q 437 1134 410 1109 q 512 1158 463 1158 l 512 1158 q 588 1134 562 1158 q 614 1071 614 1109 l 614 1071 q 588 1008 614 1034 q 512 983 562 983 z "},"ġ":{"ha":710,"x_min":37,"x_max":696,"o":"m 357 -256 l 357 -256 q 168 -231 238 -256 q 68 -167 98 -207 q 37 -81 37 -127 l 37 -81 q 91 17 37 -25 q 260 77 144 60 l 260 77 l 290 140 l 380 140 q 620 95 545 140 q 696 -44 696 50 l 696 -44 q 609 -197 696 -139 q 357 -256 522 -256 z m 354 -143 l 354 -143 q 482 -119 445 -143 q 519 -62 519 -96 l 519 -62 q 507 -25 519 -40 q 464 -2 494 -10 q 385 6 434 6 l 385 6 l 264 6 q 221 -23 237 -4 q 204 -66 204 -41 l 204 -66 q 239 -119 204 -94 q 354 -143 275 -143 z m 363 140 l 263 15 q 148 44 192 23 q 83 92 104 64 q 63 145 63 119 l 63 145 q 95 215 63 186 q 190 266 126 244 l 190 266 l 283 232 q 222 211 247 223 q 198 180 198 198 l 198 180 q 213 158 198 167 q 263 145 227 149 q 363 140 300 140 l 363 140 z m 345 211 l 345 211 q 192 243 255 211 q 96 327 129 275 q 64 439 64 379 l 64 439 q 97 556 64 504 q 193 639 130 608 q 349 670 257 670 l 349 670 q 505 639 443 670 q 598 556 567 608 q 629 439 629 504 l 629 439 q 597 326 629 378 q 503 242 566 273 q 345 211 440 211 z m 345 319 l 345 319 q 428 350 395 319 q 462 439 462 380 l 462 439 q 431 532 462 502 q 349 563 399 563 l 349 563 q 265 531 298 563 q 232 439 232 500 l 232 439 q 266 349 232 380 q 345 319 300 319 z m 534 570 l 534 570 l 481 637 q 563 733 507 707 q 696 760 618 759 l 696 760 l 696 629 q 599 619 643 629 q 534 570 555 609 z m 356 749 l 356 749 q 281 774 307 749 q 254 836 254 799 l 254 836 q 281 899 254 875 q 356 924 307 924 l 356 924 q 432 899 406 924 q 458 836 458 875 l 458 836 q 432 774 458 799 q 356 749 406 749 z "},"Ģ":{"ha":997,"x_min":67,"x_max":928,"o":"m 516 -12 l 516 -12 q 275 46 376 -12 q 121 209 175 104 q 67 456 67 314 l 67 456 q 121 704 67 598 q 275 867 175 809 q 516 925 376 925 l 516 925 q 654 907 587 925 q 779 850 722 888 q 871 753 835 812 q 916 613 908 694 l 916 613 l 721 613 q 690 692 715 658 q 619 747 664 727 q 512 766 574 766 l 512 766 q 368 723 422 766 q 288 610 313 680 q 262 456 262 540 l 262 456 q 288 302 262 372 q 369 189 313 231 q 516 146 425 146 l 516 146 q 632 169 584 146 q 706 234 680 193 q 737 330 733 275 l 737 330 l 521 330 l 521 481 l 928 481 l 928 389 q 881 180 928 270 q 741 39 833 90 q 516 -12 649 -12 z m 439 -281 l 439 -281 l 425 -229 q 480 -207 458 -222 q 509 -174 503 -192 l 509 -174 q 450 -153 470 -172 q 429 -104 429 -134 l 429 -104 q 450 -59 429 -78 q 513 -40 471 -40 l 513 -40 q 576 -63 552 -40 q 601 -127 601 -85 l 601 -127 q 554 -232 601 -191 q 439 -281 507 -273 z "},"ģ":{"ha":710,"x_min":37,"x_max":696,"o":"m 357 -256 l 357 -256 q 168 -231 238 -256 q 68 -167 98 -207 q 37 -81 37 -127 l 37 -81 q 91 17 37 -25 q 260 77 144 60 l 260 77 l 290 140 l 380 140 q 620 95 545 140 q 696 -44 696 50 l 696 -44 q 609 -197 696 -139 q 357 -256 522 -256 z m 354 -143 l 354 -143 q 482 -119 445 -143 q 519 -62 519 -96 l 519 -62 q 507 -25 519 -40 q 464 -2 494 -10 q 385 6 434 6 l 385 6 l 264 6 q 221 -23 237 -4 q 204 -66 204 -41 l 204 -66 q 239 -119 204 -94 q 354 -143 275 -143 z m 363 140 l 263 15 q 148 44 192 23 q 83 92 104 64 q 63 145 63 119 l 63 145 q 95 215 63 186 q 190 266 126 244 l 190 266 l 283 232 q 222 211 247 223 q 198 180 198 198 l 198 180 q 213 158 198 167 q 263 145 227 149 q 363 140 300 140 l 363 140 z m 345 211 l 345 211 q 192 243 255 211 q 96 327 129 275 q 64 439 64 379 l 64 439 q 97 556 64 504 q 193 639 130 608 q 349 670 257 670 l 349 670 q 505 639 443 670 q 598 556 567 608 q 629 439 629 504 l 629 439 q 597 326 629 378 q 503 242 566 273 q 345 211 440 211 z m 345 319 l 345 319 q 428 350 395 319 q 462 439 462 380 l 462 439 q 431 532 462 502 q 349 563 399 563 l 349 563 q 265 531 298 563 q 232 439 232 500 l 232 439 q 266 349 232 380 q 345 319 300 319 z m 534 570 l 534 570 l 481 637 q 563 733 507 707 q 696 760 618 759 l 696 760 l 696 629 q 599 619 643 629 q 534 570 555 609 z m 357 729 l 357 729 q 289 754 315 729 q 263 827 263 779 l 263 827 q 286 908 263 872 q 348 967 309 945 q 432 994 386 990 l 432 994 l 448 935 q 396 910 418 926 q 363 871 374 894 l 363 871 q 423 849 402 867 q 444 802 444 830 l 444 802 q 420 750 444 771 q 357 729 397 729 z "},"Ĥ":{"ha":1013,"x_min":109,"x_max":904,"o":"m 300 0 l 109 0 l 109 913 l 300 913 l 300 556 l 713 556 l 713 913 l 904 913 l 904 0 l 713 0 l 713 388 l 300 388 l 300 0 z m 416 986 l 281 986 l 425 1175 l 590 1175 l 734 986 l 599 986 l 507 1086 l 416 986 z "},"ĥ":{"ha":804,"x_min":96,"x_max":713,"o":"m 276 0 l 96 0 l 96 913 l 273 913 l 273 563 q 360 638 306 606 q 500 671 414 671 l 500 671 q 658 611 603 671 q 713 431 713 550 l 713 431 l 713 0 l 534 0 l 534 408 q 524 471 534 444 q 492 513 514 498 q 435 528 471 528 l 435 528 q 343 503 381 528 q 276 441 304 477 l 276 441 l 276 0 z m 311 1001 l 176 1001 l 320 1188 l 485 1188 l 629 1001 l 494 1001 l 403 1101 l 311 1001 z "},"Ħ":{"ha":1013,"x_min":12,"x_max":1000,"o":"m 1000 678 l 12 678 l 12 777 l 1000 777 l 1000 678 z m 300 0 l 109 0 l 109 913 l 300 913 l 300 556 l 713 556 l 713 913 l 904 913 l 904 0 l 713 0 l 713 388 l 300 388 l 300 0 z "},"ħ":{"ha":804,"x_min":11,"x_max":713,"o":"m 430 741 l 11 741 l 11 837 l 430 837 l 430 741 z m 276 0 l 96 0 l 96 913 l 273 913 l 273 563 q 360 638 306 606 q 500 671 414 671 l 500 671 q 658 611 603 671 q 713 431 713 550 l 713 431 l 713 0 l 534 0 l 534 408 q 524 471 534 444 q 492 513 514 498 q 435 528 471 528 l 435 528 q 343 503 381 528 q 276 441 304 477 l 276 441 l 276 0 z "},"Ĩ":{"ha":408,"x_min":-16,"x_max":425,"o":"m 300 0 l 109 0 l 109 913 l 300 913 l 300 0 z m 78 992 l -16 992 q 24 1111 -9 1069 q 115 1152 57 1152 l 115 1152 q 175 1142 147 1152 q 228 1122 203 1133 l 228 1122 q 268 1107 250 1113 q 301 1101 286 1101 l 301 1101 q 321 1112 313 1101 q 331 1153 328 1124 l 331 1153 l 425 1153 q 390 1038 418 1076 q 305 1000 361 1000 l 305 1000 q 244 1009 272 1000 q 191 1027 216 1018 l 191 1027 q 149 1043 167 1037 q 117 1048 132 1048 l 117 1048 q 91 1036 100 1048 q 78 992 81 1023 l 78 992 z "},"ĩ":{"ha":372,"x_min":-33,"x_max":407,"o":"m 276 0 l 96 0 l 96 662 l 276 662 l 276 0 z m 60 758 l -33 758 q 6 876 -26 835 q 98 917 39 917 l 98 917 q 157 907 130 917 q 210 887 185 898 l 210 887 q 250 872 232 878 q 283 866 269 866 l 283 866 q 303 878 296 866 q 313 918 311 889 l 313 918 l 407 918 q 372 803 400 842 q 288 765 344 765 l 288 765 q 227 774 254 765 q 174 792 199 783 l 174 792 q 132 808 149 802 q 99 814 114 814 l 99 814 q 73 801 83 814 q 60 758 64 788 l 60 758 z "},"Ī":{"ha":408,"x_min":14,"x_max":395,"o":"m 300 0 l 109 0 l 109 913 l 300 913 l 300 0 z m 395 1015 l 14 1015 l 14 1124 l 395 1124 l 395 1015 z "},"ī":{"ha":372,"x_min":27,"x_max":346,"o":"m 276 0 l 96 0 l 96 662 l 276 662 l 276 0 z m 346 787 l 27 787 l 27 882 l 346 882 l 346 787 z "},"Ĭ":{"ha":408,"x_min":-7,"x_max":416,"o":"m 300 0 l 109 0 l 109 913 l 300 913 l 300 0 z m 203 987 l 203 987 q 95 1010 142 987 q 21 1075 48 1034 q -7 1174 -5 1117 l -7 1174 l 89 1174 q 111 1119 94 1139 q 154 1090 129 1099 q 203 1082 178 1082 l 203 1082 q 254 1090 229 1082 q 296 1119 278 1099 q 319 1174 314 1139 l 319 1174 l 416 1174 q 386 1076 414 1118 q 312 1010 359 1034 q 203 987 264 987 z "},"ĭ":{"ha":372,"x_min":-12,"x_max":384,"o":"m 276 0 l 96 0 l 96 662 l 276 662 l 276 0 z m 186 749 l 186 749 q 45 800 94 749 q -12 937 -5 850 l -12 937 l 84 937 q 121 865 90 884 q 186 846 152 846 l 186 846 q 258 865 224 846 q 298 937 292 884 l 298 937 l 384 937 q 328 800 377 851 q 186 749 278 749 z "},"Į":{"ha":408,"x_min":52,"x_max":312,"o":"m 300 0 l 109 0 l 109 913 l 300 913 l 300 0 z m 191 -252 l 191 -252 q 92 -220 132 -252 q 52 -133 52 -189 l 52 -133 q 73 -65 52 -98 q 130 -8 94 -33 q 213 24 167 16 l 213 24 l 275 7 q 203 -48 226 -18 q 181 -102 181 -78 l 181 -102 q 192 -132 181 -121 q 224 -143 203 -143 l 224 -143 q 267 -137 246 -143 q 312 -121 288 -132 l 312 -121 l 312 -222 q 261 -244 288 -236 q 191 -252 234 -252 z "},"į":{"ha":372,"x_min":27,"x_max":288,"o":"m 276 0 l 96 0 l 96 662 l 276 662 l 276 0 z m 186 749 l 186 749 q 111 774 138 749 q 85 836 85 799 l 85 836 q 111 899 85 875 q 186 924 138 924 l 186 924 q 262 899 236 924 q 288 836 288 875 l 288 836 q 262 774 288 799 q 186 749 236 749 z m 167 -252 l 167 -252 q 67 -220 108 -252 q 27 -133 27 -189 l 27 -133 q 48 -65 27 -98 q 106 -8 69 -33 q 189 24 142 16 l 189 24 l 251 7 q 179 -48 201 -18 q 157 -102 157 -78 l 157 -102 q 168 -132 157 -121 q 200 -143 178 -143 l 200 -143 q 243 -137 222 -143 q 288 -121 264 -132 l 288 -121 l 288 -222 q 237 -244 264 -236 q 167 -252 210 -252 z "},"İ":{"ha":408,"x_min":103,"x_max":306,"o":"m 300 0 l 109 0 l 109 913 l 300 913 l 300 0 z m 204 983 l 204 983 q 129 1008 155 983 q 102 1071 102 1034 l 102 1071 q 129 1134 102 1109 q 204 1158 155 1158 l 204 1158 q 280 1134 254 1158 q 306 1071 306 1109 l 306 1071 q 280 1008 306 1034 q 204 983 254 983 z "},"ı":{"ha":372,"x_min":96,"x_max":276,"o":"m 276 0 l 96 0 l 96 662 l 276 662 l 276 0 z "},"Ĳ":{"ha":918,"x_min":109,"x_max":820,"o":"m 300 0 l 109 0 l 109 913 l 300 913 l 300 0 z m 515 -7 l 433 -7 l 433 156 l 501 156 q 602 191 569 156 q 634 309 634 226 l 634 309 l 634 913 l 820 913 l 820 307 q 788 130 820 199 q 688 27 755 60 q 515 -7 621 -7 l 515 -7 z "},"ĳ":{"ha":745,"x_min":85,"x_max":661,"o":"m 276 0 l 96 0 l 96 662 l 276 662 l 276 0 z m 186 749 l 186 749 q 111 774 137 749 q 85 836 85 799 l 85 836 q 111 899 85 874 q 186 924 137 924 l 186 924 q 262 899 236 924 q 288 836 288 874 l 288 836 q 262 774 288 799 q 186 749 236 749 z m 405 -243 l 342 -243 l 342 -101 l 381 -101 q 447 -80 425 -101 q 469 -13 469 -59 l 469 -13 l 469 662 l 648 662 l 648 1 q 589 -180 648 -117 q 405 -243 530 -243 l 405 -243 z m 559 749 l 559 749 q 483 774 509 749 q 457 836 457 799 l 457 836 q 483 899 457 875 q 559 924 509 924 l 559 924 q 634 899 608 924 q 661 836 661 875 l 661 836 q 634 774 661 799 q 559 749 608 749 z "},"Ĵ":{"ha":509,"x_min":25,"x_max":543,"o":"m 106 -7 l 25 -7 l 25 156 l 93 156 q 193 191 161 156 q 226 309 226 226 l 226 309 l 226 913 l 412 913 l 412 307 q 379 130 412 199 q 280 27 347 60 q 106 -7 212 -7 l 106 -7 z m 225 986 l 91 986 l 235 1175 l 399 1175 l 543 986 l 408 986 l 317 1086 l 225 986 z "},"ĵ":{"ha":372,"x_min":-39,"x_max":413,"o":"m 33 -243 l -30 -243 l -30 -101 l 9 -101 q 75 -80 53 -101 q 97 -13 97 -59 l 97 -13 l 97 662 l 276 662 l 276 1 q 217 -180 276 -117 q 33 -243 158 -243 l 33 -243 z m 95 750 l -39 750 l 104 937 l 269 937 l 413 750 l 278 750 l 187 850 l 95 750 z "},"Ķ":{"ha":865,"x_min":109,"x_max":861,"o":"m 300 0 l 109 0 l 109 913 l 300 913 l 300 477 l 627 913 l 838 913 l 500 485 l 861 0 l 640 0 l 300 467 l 300 0 z m 398 -281 l 398 -281 l 385 -229 q 440 -207 417 -222 q 469 -174 463 -192 l 469 -174 q 409 -153 429 -172 q 389 -104 389 -134 l 389 -104 q 410 -59 389 -78 q 472 -40 431 -40 l 472 -40 q 536 -63 511 -40 q 560 -127 560 -85 l 560 -127 q 513 -232 560 -191 q 398 -281 466 -273 z "},"ķ":{"ha":742,"x_min":96,"x_max":749,"o":"m 276 0 l 96 0 l 96 913 l 276 913 l 276 357 l 534 662 l 730 662 l 468 357 l 749 0 l 544 0 l 276 349 l 276 0 z m 335 -281 l 335 -281 l 321 -229 q 377 -207 354 -222 q 406 -174 399 -192 l 406 -174 q 346 -153 366 -172 q 326 -104 326 -134 l 326 -104 q 347 -59 326 -78 q 409 -40 368 -40 l 409 -40 q 473 -63 448 -40 q 497 -127 497 -85 l 497 -127 q 450 -232 497 -191 q 335 -281 403 -273 z "},"ĸ":{"ha":742,"x_min":96,"x_max":749,"o":"m 276 0 l 96 0 l 96 662 l 276 662 l 276 357 l 534 662 l 730 662 l 468 357 l 749 0 l 544 0 l 276 349 l 276 0 z "},"Ĺ":{"ha":711,"x_min":109,"x_max":685,"o":"m 685 0 l 109 0 l 109 913 l 300 913 l 300 168 l 685 168 l 685 0 z m 250 986 l 117 986 l 245 1174 l 437 1174 l 250 986 z "},"ĺ":{"ha":411,"x_min":90,"x_max":422,"o":"m 391 0 l 345 0 q 189 24 243 0 q 112 99 134 48 q 90 231 90 149 l 90 231 l 90 913 l 269 913 l 269 241 q 283 165 269 189 q 350 140 298 140 l 350 140 l 391 140 l 391 0 z m 227 1000 l 94 1000 l 228 1187 l 422 1187 l 227 1000 z "},"Ļ":{"ha":711,"x_min":109,"x_max":685,"o":"m 685 0 l 109 0 l 109 913 l 300 913 l 300 168 l 685 168 l 685 0 z m 336 -281 l 336 -281 l 323 -229 q 378 -207 355 -222 q 407 -174 401 -192 l 407 -174 q 347 -153 368 -172 q 327 -104 327 -134 l 327 -104 q 348 -59 327 -78 q 410 -40 369 -40 l 410 -40 q 474 -63 450 -40 q 498 -127 498 -85 l 498 -127 q 451 -232 498 -191 q 336 -281 404 -273 z "},"ļ":{"ha":411,"x_min":90,"x_max":391,"o":"m 391 0 l 345 0 q 189 24 243 0 q 112 99 134 48 q 90 231 90 149 l 90 231 l 90 913 l 269 913 l 269 241 q 283 165 269 189 q 350 140 298 140 l 350 140 l 391 140 l 391 0 z m 168 -281 l 168 -281 l 155 -229 q 210 -207 187 -222 q 239 -174 233 -192 l 239 -174 q 179 -153 199 -172 q 159 -104 159 -134 l 159 -104 q 180 -59 159 -78 q 242 -40 201 -40 l 242 -40 q 306 -63 281 -40 q 330 -127 330 -85 l 330 -127 q 283 -232 330 -191 q 168 -281 236 -273 z "},"Ľ":{"ha":711,"x_min":109,"x_max":685,"o":"m 685 0 l 109 0 l 109 913 l 300 913 l 300 168 l 685 168 l 685 0 z m 543 697 l 431 697 l 475 913 l 644 913 l 543 697 z "},"ľ":{"ha":411,"x_min":90,"x_max":512,"o":"m 391 0 l 345 0 q 189 24 243 0 q 112 99 134 48 q 90 231 90 149 l 90 231 l 90 913 l 269 913 l 269 241 q 283 165 269 189 q 350 140 298 140 l 350 140 l 391 140 l 391 0 z m 411 697 l 298 697 l 343 913 l 512 913 l 411 697 z "},"Ŀ":{"ha":711,"x_min":109,"x_max":685,"o":"m 685 0 l 109 0 l 109 913 l 300 913 l 300 168 l 685 168 l 685 0 z m 555 405 l 555 405 q 471 437 503 405 q 439 515 439 469 l 439 515 q 471 595 439 566 q 555 625 503 625 l 555 625 q 638 595 606 625 q 669 515 669 566 l 669 515 q 638 437 669 469 q 555 405 606 405 z "},"ŀ":{"ha":516,"x_min":90,"x_max":550,"o":"m 391 0 l 345 0 q 189 24 243 0 q 112 99 134 48 q 90 231 90 149 l 90 231 l 90 913 l 269 913 l 269 241 q 283 165 269 189 q 350 140 298 140 l 350 140 l 391 140 l 391 0 z m 436 370 l 436 370 q 352 402 384 370 q 319 480 319 434 l 319 480 q 352 560 319 530 q 436 590 384 590 l 436 590 q 518 560 487 590 q 550 480 550 530 l 550 480 q 518 402 550 434 q 436 370 487 370 z "},"Ł":{"ha":711,"x_min":0,"x_max":685,"o":"m 465 493 l 0 237 l 0 389 l 465 645 l 465 493 z m 685 0 l 109 0 l 109 913 l 300 913 l 300 168 l 685 168 l 685 0 z "},"ł":{"ha":411,"x_min":0,"x_max":391,"o":"m 376 531 l 180 391 l 180 544 l 376 685 l 376 531 z m 180 411 l 0 283 l 0 435 l 180 564 l 180 411 z m 391 0 l 345 0 q 189 24 243 0 q 112 99 134 48 q 90 231 90 149 l 90 231 l 90 913 l 269 913 l 269 241 q 283 165 269 189 q 350 140 298 140 l 350 140 l 391 140 l 391 0 z "},"Ń":{"ha":1004,"x_min":109,"x_max":895,"o":"m 288 0 l 109 0 l 109 913 l 296 913 l 715 298 l 715 913 l 895 913 l 895 0 l 708 0 l 288 619 l 288 0 z m 551 986 l 418 986 l 546 1174 l 739 1174 l 551 986 z "},"ń":{"ha":804,"x_min":96,"x_max":713,"o":"m 276 0 l 96 0 l 96 662 l 269 662 l 273 563 q 360 638 306 606 q 501 671 414 671 l 501 671 q 658 610 602 671 q 713 431 713 549 l 713 431 l 713 0 l 535 0 l 535 408 q 525 471 535 444 q 493 513 515 498 q 435 528 471 528 l 435 528 q 343 503 381 528 q 276 441 304 477 l 276 441 l 276 0 z m 452 750 l 319 750 l 452 937 l 646 937 l 452 750 z "},"Ņ":{"ha":1004,"x_min":109,"x_max":895,"o":"m 288 0 l 109 0 l 109 913 l 296 913 l 715 298 l 715 913 l 895 913 l 895 0 l 708 0 l 288 619 l 288 0 z m 424 -281 l 424 -281 l 410 -229 q 466 -207 443 -222 q 494 -174 488 -192 l 494 -174 q 435 -153 455 -172 q 414 -104 414 -134 l 414 -104 q 435 -59 414 -78 q 498 -40 456 -40 l 498 -40 q 562 -63 537 -40 q 586 -127 586 -85 l 586 -127 q 539 -232 586 -191 q 424 -281 492 -273 z "},"ņ":{"ha":804,"x_min":96,"x_max":713,"o":"m 276 0 l 96 0 l 96 662 l 269 662 l 273 563 q 360 638 306 606 q 501 671 414 671 l 501 671 q 658 610 602 671 q 713 431 713 549 l 713 431 l 713 0 l 535 0 l 535 408 q 525 471 535 444 q 493 513 515 498 q 435 528 471 528 l 435 528 q 343 503 381 528 q 276 441 304 477 l 276 441 l 276 0 z m 332 -281 l 332 -281 l 318 -229 q 373 -207 351 -222 q 402 -174 396 -192 l 402 -174 q 342 -153 363 -172 q 322 -104 322 -134 l 322 -104 q 343 -59 322 -78 q 406 -40 364 -40 l 406 -40 q 469 -63 445 -40 q 494 -127 494 -85 l 494 -127 q 447 -232 494 -191 q 332 -281 399 -273 z "},"Ň":{"ha":1004,"x_min":109,"x_max":895,"o":"m 288 0 l 109 0 l 109 913 l 296 913 l 715 298 l 715 913 l 895 913 l 895 0 l 708 0 l 288 619 l 288 0 z m 588 986 l 423 986 l 279 1175 l 414 1175 l 505 1074 l 597 1175 l 732 1175 l 588 986 z "},"ň":{"ha":804,"x_min":96,"x_max":713,"o":"m 276 0 l 96 0 l 96 662 l 269 662 l 273 563 q 360 638 306 606 q 501 671 414 671 l 501 671 q 658 610 602 671 q 713 431 713 549 l 713 431 l 713 0 l 535 0 l 535 408 q 525 471 535 444 q 493 513 515 498 q 435 528 471 528 l 435 528 q 343 503 381 528 q 276 441 304 477 l 276 441 l 276 0 z m 497 750 l 332 750 l 189 937 l 323 937 l 414 838 l 506 937 l 641 937 l 497 750 z "},"ŉ":{"ha":926,"x_min":-40,"x_max":835,"o":"m 397 0 l 218 0 l 218 662 l 391 662 l 394 563 q 481 638 427 606 q 623 671 536 671 l 623 671 q 779 610 724 671 q 835 431 835 549 l 835 431 l 835 0 l 656 0 l 656 408 q 646 471 656 444 q 614 513 636 498 q 556 528 592 528 l 556 528 q 464 503 503 528 q 397 441 426 477 l 397 441 l 397 0 z m -16 506 l -16 506 l -40 593 q 38 638 9 610 q 73 715 67 667 l 73 715 l 84 706 q 0 738 33 706 q -32 816 -32 770 l -32 816 q 0 896 -32 865 q 84 926 33 926 l 84 926 q 167 890 136 926 q 199 783 199 854 l 199 783 q 167 643 199 701 q 86 551 136 585 q -16 506 37 517 z "},"Ŋ":{"ha":1004,"x_min":109,"x_max":895,"o":"m 288 0 l 109 0 l 109 913 l 296 913 l 715 306 l 715 913 l 895 913 l 895 75 l 709 6 l 288 619 l 288 0 z m 589 -243 l 507 -243 l 507 -80 l 575 -80 q 675 -44 642 -80 q 707 77 707 -9 l 707 77 l 895 75 q 821 -166 895 -89 q 589 -243 747 -243 l 589 -243 z "},"ŋ":{"ha":804,"x_min":96,"x_max":713,"o":"m 470 -243 l 408 -243 l 408 -101 l 447 -101 q 513 -82 490 -101 q 535 -22 535 -63 l 535 -22 l 535 114 l 713 114 l 713 -17 q 654 -183 713 -124 q 470 -243 595 -243 l 470 -243 z m 276 0 l 96 0 l 96 662 l 269 662 l 273 563 q 360 638 306 606 q 501 671 414 671 l 501 671 q 658 610 602 671 q 713 431 713 549 l 713 431 l 713 0 l 535 0 l 535 408 q 525 471 535 444 q 493 513 515 498 q 435 528 471 528 l 435 528 q 343 503 381 528 q 276 441 304 477 l 276 441 l 276 0 z "},"Ō":{"ha":1024,"x_min":67,"x_max":956,"o":"m 512 -12 l 512 -12 q 270 46 369 -12 q 119 209 170 104 q 67 456 67 313 l 67 456 q 119 704 67 598 q 270 867 170 809 q 512 925 369 925 l 512 925 q 754 867 655 925 q 905 704 853 809 q 956 456 956 598 l 956 456 q 905 209 956 313 q 754 46 853 104 q 512 -12 655 -12 z m 512 146 l 512 146 q 655 189 601 146 q 734 301 709 231 q 760 456 760 372 l 760 456 q 734 612 760 541 q 655 724 709 682 q 512 766 601 766 l 512 766 q 368 724 422 766 q 289 612 313 682 q 264 456 264 541 l 264 456 q 289 301 264 372 q 368 189 313 231 q 512 146 422 146 z m 703 1015 l 321 1015 l 321 1124 l 703 1124 l 703 1015 z "},"ō":{"ha":796,"x_min":62,"x_max":734,"o":"m 397 -11 l 397 -11 q 221 29 296 -11 q 104 145 145 69 q 62 329 62 221 l 62 329 q 104 516 62 439 q 221 633 145 593 q 397 673 296 673 l 397 673 q 574 633 498 673 q 692 516 650 593 q 734 329 734 439 l 734 329 q 692 145 734 221 q 574 29 650 69 q 397 -11 498 -11 z m 397 126 l 397 126 q 489 154 456 126 q 537 227 523 181 q 551 329 551 273 l 551 329 q 537 433 551 386 q 489 507 523 479 q 397 535 456 535 l 397 535 q 306 507 339 535 q 260 433 273 479 q 246 329 246 386 l 246 329 q 260 227 246 273 q 306 154 273 181 q 397 126 339 126 z m 589 780 l 208 780 l 208 889 l 589 889 l 589 780 z "},"Ŏ":{"ha":1024,"x_min":67,"x_max":956,"o":"m 512 -12 l 512 -12 q 270 46 369 -12 q 119 209 170 104 q 67 456 67 313 l 67 456 q 119 704 67 598 q 270 867 170 809 q 512 925 369 925 l 512 925 q 754 867 655 925 q 905 704 853 809 q 956 456 956 598 l 956 456 q 905 209 956 313 q 754 46 853 104 q 512 -12 655 -12 z m 512 146 l 512 146 q 655 189 601 146 q 734 301 709 231 q 760 456 760 372 l 760 456 q 734 612 760 541 q 655 724 709 682 q 512 766 601 766 l 512 766 q 368 724 422 766 q 289 612 313 682 q 264 456 264 541 l 264 456 q 289 301 264 372 q 368 189 313 231 q 512 146 422 146 z m 511 987 l 511 987 q 403 1010 450 987 q 329 1075 356 1034 q 301 1174 302 1117 l 301 1174 l 397 1174 q 419 1119 401 1139 q 461 1090 437 1099 q 511 1082 486 1082 l 511 1082 q 562 1090 537 1082 q 604 1119 586 1099 q 627 1174 622 1139 l 627 1174 l 724 1174 q 694 1076 722 1118 q 620 1010 667 1034 q 511 987 572 987 z "},"ŏ":{"ha":796,"x_min":62,"x_max":734,"o":"m 397 -11 l 397 -11 q 221 29 296 -11 q 104 145 145 69 q 62 329 62 221 l 62 329 q 104 516 62 439 q 221 633 145 593 q 397 673 296 673 l 397 673 q 574 633 498 673 q 692 516 650 593 q 734 329 734 439 l 734 329 q 692 145 734 221 q 574 29 650 69 q 397 -11 498 -11 z m 397 126 l 397 126 q 489 154 456 126 q 537 227 523 181 q 551 329 551 273 l 551 329 q 537 433 551 386 q 489 507 523 479 q 397 535 456 535 l 397 535 q 306 507 339 535 q 260 433 273 479 q 246 329 246 386 l 246 329 q 260 227 246 273 q 306 154 273 181 q 397 126 339 126 z m 397 749 l 397 749 q 256 800 306 749 q 199 937 207 850 l 199 937 l 296 937 q 333 865 302 884 q 397 846 363 846 l 397 846 q 470 865 435 846 q 510 937 504 884 l 510 937 l 595 937 q 539 800 589 851 q 397 749 490 749 z "},"Ő":{"ha":1024,"x_min":67,"x_max":956,"o":"m 512 -12 l 512 -12 q 270 46 369 -12 q 119 209 170 104 q 67 456 67 313 l 67 456 q 119 704 67 598 q 270 867 170 809 q 512 925 369 925 l 512 925 q 754 867 655 925 q 905 704 853 809 q 956 456 956 598 l 956 456 q 905 209 956 313 q 754 46 853 104 q 512 -12 655 -12 z m 512 146 l 512 146 q 655 189 601 146 q 734 301 709 231 q 760 456 760 372 l 760 456 q 734 612 760 541 q 655 724 709 682 q 512 766 601 766 l 512 766 q 368 724 422 766 q 289 612 313 682 q 264 456 264 541 l 264 456 q 289 301 264 372 q 368 189 313 231 q 512 146 422 146 z m 644 986 l 533 986 l 659 1174 l 807 1174 l 644 986 z m 425 986 l 315 986 l 440 1174 l 589 1174 l 425 986 z "},"ő":{"ha":796,"x_min":62,"x_max":734,"o":"m 397 -11 l 397 -11 q 221 29 296 -11 q 104 145 145 69 q 62 329 62 221 l 62 329 q 104 516 62 439 q 221 633 145 593 q 397 673 296 673 l 397 673 q 574 633 498 673 q 692 516 650 593 q 734 329 734 439 l 734 329 q 692 145 734 221 q 574 29 650 69 q 397 -11 498 -11 z m 397 126 l 397 126 q 489 154 456 126 q 537 227 523 181 q 551 329 551 273 l 551 329 q 537 433 551 386 q 489 507 523 479 q 397 535 456 535 l 397 535 q 306 507 339 535 q 260 433 273 479 q 246 329 246 386 l 246 329 q 260 227 246 273 q 306 154 273 181 q 397 126 339 126 z m 530 750 l 419 750 l 545 937 l 693 937 l 530 750 z m 311 750 l 201 750 l 326 937 l 475 937 l 311 750 z "},"Œ":{"ha":1449,"x_min":67,"x_max":1375,"o":"m 496 -12 l 496 -12 q 265 45 361 -12 q 118 208 169 103 q 67 456 67 313 l 67 456 q 118 704 67 599 q 265 867 169 810 q 496 925 361 925 l 496 925 q 674 890 602 925 q 790 792 747 855 q 853 643 833 728 q 872 456 872 557 l 872 456 q 853 269 872 355 q 790 121 833 184 q 674 23 747 58 q 496 -12 602 -12 z m 514 146 l 514 146 q 657 189 603 146 q 735 301 711 231 q 760 456 760 372 l 760 456 q 735 612 760 541 q 657 724 711 682 q 514 766 603 766 l 514 766 q 370 724 425 766 q 290 612 315 682 q 265 456 265 541 l 265 456 q 290 301 265 372 q 370 189 315 231 q 514 146 425 146 z m 1375 0 l 762 0 l 762 913 l 1375 913 l 1375 755 l 952 755 l 952 543 l 1335 543 l 1335 390 l 952 390 l 952 158 l 1375 158 l 1375 0 z "},"œ":{"ha":1259,"x_min":62,"x_max":1196,"o":"m 387 -12 l 387 -12 q 218 28 291 -12 q 103 144 144 68 q 62 328 62 220 l 62 328 q 104 513 62 437 q 221 630 145 590 q 397 671 296 671 l 397 671 q 568 629 500 671 q 668 510 635 587 q 701 328 701 433 l 701 328 q 666 145 701 221 q 562 29 631 69 q 387 -12 492 -12 z m 397 125 l 397 125 q 490 153 456 125 q 540 227 525 180 q 555 328 555 273 l 555 328 q 540 431 555 385 q 490 504 525 477 q 397 532 456 532 l 397 532 q 305 504 339 532 q 257 431 271 477 q 242 328 242 385 l 242 328 q 257 227 242 273 q 305 153 271 180 q 397 125 339 125 z m 888 -12 l 888 -12 q 712 29 783 -12 q 605 147 641 70 q 569 334 569 224 l 569 334 q 604 514 569 438 q 707 631 639 590 q 877 672 776 672 l 877 672 q 1111 586 1025 672 q 1196 339 1196 499 l 1196 339 q 1196 317 1196 331 q 1194 296 1195 303 l 1194 296 l 729 296 q 746 208 730 249 q 797 143 762 168 q 888 118 831 118 l 888 118 q 982 143 947 118 q 1017 219 1017 169 l 1017 219 l 1195 219 q 1152 90 1191 142 q 1045 13 1113 39 q 888 -12 978 -12 z m 731 410 l 731 410 l 1018 410 q 977 513 1016 479 q 877 547 939 547 l 877 547 q 774 512 814 547 q 731 410 734 476 z "},"Ŕ":{"ha":880,"x_min":109,"x_max":852,"o":"m 300 0 l 109 0 l 109 913 l 485 913 q 642 888 573 913 q 752 808 711 863 q 792 661 792 753 l 792 661 q 746 514 792 574 q 605 428 699 454 l 605 428 q 697 393 663 419 q 753 323 732 367 q 792 214 774 279 l 792 214 l 852 0 l 653 0 l 610 176 q 579 274 597 236 q 531 331 562 312 q 448 349 501 349 l 448 349 l 300 349 l 300 0 z m 300 755 l 300 507 l 453 507 q 530 521 498 507 q 580 564 562 535 q 597 633 597 592 l 597 633 q 561 724 597 694 q 464 755 524 755 l 464 755 l 300 755 z m 486 986 l 353 986 l 481 1174 l 673 1174 l 486 986 z "},"ŕ":{"ha":513,"x_min":96,"x_max":522,"o":"m 276 0 l 96 0 l 96 662 l 269 662 l 272 547 q 349 639 298 607 q 474 671 401 671 l 474 671 l 488 671 l 488 519 l 471 519 q 394 512 431 519 q 328 488 357 505 q 276 440 298 471 l 276 440 l 276 0 z m 327 750 l 194 750 l 328 937 l 522 937 l 327 750 z "},"Ŗ":{"ha":880,"x_min":109,"x_max":852,"o":"m 300 0 l 109 0 l 109 913 l 485 913 q 642 888 573 913 q 752 808 711 863 q 792 661 792 753 l 792 661 q 746 514 792 574 q 605 428 699 454 l 605 428 q 697 393 663 419 q 753 323 732 367 q 792 214 774 279 l 792 214 l 852 0 l 653 0 l 610 176 q 579 274 597 236 q 531 331 562 312 q 448 349 501 349 l 448 349 l 300 349 l 300 0 z m 300 755 l 300 507 l 453 507 q 530 521 498 507 q 580 564 562 535 q 597 633 597 592 l 597 633 q 561 724 597 694 q 464 755 524 755 l 464 755 l 300 755 z m 406 -281 l 406 -281 l 392 -229 q 447 -207 425 -222 q 476 -174 470 -192 l 476 -174 q 416 -153 437 -172 q 396 -104 396 -134 l 396 -104 q 417 -59 396 -78 q 479 -40 438 -40 l 479 -40 q 543 -63 519 -40 q 568 -127 568 -85 l 568 -127 q 520 -232 568 -191 q 406 -281 473 -273 z "},"ŗ":{"ha":513,"x_min":96,"x_max":488,"o":"m 276 0 l 96 0 l 96 662 l 269 662 l 272 547 q 349 639 298 607 q 474 671 401 671 l 474 671 l 488 671 l 488 519 l 471 519 q 394 512 431 519 q 328 488 357 505 q 276 440 298 471 l 276 440 l 276 0 z m 113 -281 l 113 -281 l 100 -229 q 155 -207 132 -222 q 184 -174 178 -192 l 184 -174 q 124 -153 144 -172 q 104 -104 104 -134 l 104 -104 q 125 -59 104 -78 q 187 -40 146 -40 l 187 -40 q 251 -63 227 -40 q 275 -127 275 -85 l 275 -127 q 228 -232 275 -191 q 113 -281 181 -273 z "},"Ř":{"ha":880,"x_min":109,"x_max":852,"o":"m 300 0 l 109 0 l 109 913 l 485 913 q 642 888 573 913 q 752 808 711 863 q 792 661 792 753 l 792 661 q 746 514 792 574 q 605 428 699 454 l 605 428 q 697 393 663 419 q 753 323 732 367 q 792 214 774 279 l 792 214 l 852 0 l 653 0 l 610 176 q 579 274 597 236 q 531 331 562 312 q 448 349 501 349 l 448 349 l 300 349 l 300 0 z m 300 755 l 300 507 l 453 507 q 530 521 498 507 q 580 564 562 535 q 597 633 597 592 l 597 633 q 561 724 597 694 q 464 755 524 755 l 464 755 l 300 755 z m 523 986 l 358 986 l 214 1175 l 349 1175 l 439 1074 l 532 1175 l 667 1175 l 523 986 z "},"ř":{"ha":513,"x_min":63,"x_max":515,"o":"m 276 0 l 96 0 l 96 662 l 269 662 l 272 547 q 349 639 298 607 q 474 671 401 671 l 474 671 l 488 671 l 488 519 l 471 519 q 394 512 431 519 q 328 488 357 505 q 276 440 298 471 l 276 440 l 276 0 z m 372 750 l 208 750 l 64 937 l 198 937 l 290 838 l 381 937 l 516 937 l 372 750 z "},"Ś":{"ha":831,"x_min":52,"x_max":781,"o":"m 419 -12 l 419 -12 q 232 17 315 -12 q 100 111 149 47 q 52 279 52 176 l 52 279 l 247 279 q 271 196 248 227 q 333 153 294 166 q 422 140 372 140 l 422 140 q 507 152 471 140 q 565 188 544 163 q 585 249 585 212 l 585 249 q 568 308 585 285 q 505 351 550 332 q 380 393 460 370 l 380 393 q 217 452 286 420 q 110 536 148 485 q 73 671 73 588 l 73 671 q 116 815 73 760 q 235 898 159 871 q 409 924 311 924 l 409 924 q 581 896 503 924 q 706 809 659 867 q 753 661 753 751 l 753 661 l 557 661 q 514 748 558 719 q 408 777 470 777 l 408 777 q 307 754 347 777 q 267 684 267 731 l 267 684 q 284 636 267 656 q 347 595 301 615 q 479 551 393 576 l 479 551 q 650 487 583 520 q 748 400 716 453 q 781 260 781 347 l 781 260 q 733 103 781 163 q 604 16 686 43 q 419 -12 522 -12 z m 462 986 l 329 986 l 456 1174 l 649 1174 l 462 986 z "},"ś":{"ha":716,"x_min":66,"x_max":650,"o":"m 362 -12 l 362 -12 q 254 -2 307 -12 q 159 33 201 8 q 91 100 116 58 q 66 207 66 143 l 66 207 l 233 207 q 272 130 233 151 q 363 108 311 108 l 363 108 q 443 124 414 108 q 471 180 471 141 l 471 180 q 438 236 471 218 q 320 273 404 254 l 320 273 q 194 314 250 290 q 108 379 139 338 q 77 485 77 419 l 77 485 q 100 572 77 536 q 164 630 124 608 q 253 663 203 652 q 355 673 303 673 l 355 673 q 455 663 406 673 q 543 628 504 652 q 606 564 583 604 q 630 462 630 523 l 630 462 l 463 462 q 431 532 463 513 q 355 552 399 552 l 355 552 q 282 538 309 552 q 255 494 255 525 l 255 494 q 272 461 255 475 q 326 436 289 448 q 425 410 363 424 l 425 410 q 540 372 489 395 q 621 308 591 348 q 650 204 650 268 l 650 204 q 626 103 650 144 q 562 36 602 62 q 470 -1 522 11 q 362 -12 418 -12 z m 397 750 l 264 750 l 398 937 l 592 937 l 397 750 z "},"Ŝ":{"ha":831,"x_min":52,"x_max":781,"o":"m 419 -12 l 419 -12 q 232 17 315 -12 q 100 111 149 47 q 52 279 52 176 l 52 279 l 247 279 q 271 196 248 227 q 333 153 294 166 q 422 140 372 140 l 422 140 q 507 152 471 140 q 565 188 544 163 q 585 249 585 212 l 585 249 q 568 308 585 285 q 505 351 550 332 q 380 393 460 370 l 380 393 q 217 452 286 420 q 110 536 148 485 q 73 671 73 588 l 73 671 q 116 815 73 760 q 235 898 159 871 q 409 924 311 924 l 409 924 q 581 896 503 924 q 706 809 659 867 q 753 661 753 751 l 753 661 l 557 661 q 514 748 558 719 q 408 777 470 777 l 408 777 q 307 754 347 777 q 267 684 267 731 l 267 684 q 284 636 267 656 q 347 595 301 615 q 479 551 393 576 l 479 551 q 650 487 583 520 q 748 400 716 453 q 781 260 781 347 l 781 260 q 733 103 781 163 q 604 16 686 43 q 419 -12 522 -12 z m 324 986 l 190 986 l 334 1175 l 498 1175 l 642 986 l 507 986 l 416 1086 l 324 986 z "},"ŝ":{"ha":716,"x_min":66,"x_max":650,"o":"m 362 -12 l 362 -12 q 254 -2 307 -12 q 159 33 201 8 q 91 100 116 58 q 66 207 66 143 l 66 207 l 233 207 q 272 130 233 151 q 363 108 311 108 l 363 108 q 443 124 414 108 q 471 180 471 141 l 471 180 q 438 236 471 218 q 320 273 404 254 l 320 273 q 194 314 250 290 q 108 379 139 338 q 77 485 77 419 l 77 485 q 100 572 77 536 q 164 630 124 608 q 253 663 203 652 q 355 673 303 673 l 355 673 q 455 663 406 673 q 543 628 504 652 q 606 564 583 604 q 630 462 630 523 l 630 462 l 463 462 q 431 532 463 513 q 355 552 399 552 l 355 552 q 282 538 309 552 q 255 494 255 525 l 255 494 q 272 461 255 475 q 326 436 289 448 q 425 410 363 424 l 425 410 q 540 372 489 395 q 621 308 591 348 q 650 204 650 268 l 650 204 q 626 103 650 144 q 562 36 602 62 q 470 -1 522 11 q 362 -12 418 -12 z m 269 750 l 134 750 l 278 937 l 443 937 l 587 750 l 452 750 l 361 850 l 269 750 z "},"Ş":{"ha":831,"x_min":52,"x_max":781,"o":"m 419 -12 l 419 -12 q 232 17 315 -12 q 100 111 149 47 q 52 279 52 176 l 52 279 l 247 279 q 271 196 248 227 q 333 153 294 166 q 422 140 372 140 l 422 140 q 507 152 471 140 q 565 188 544 163 q 585 249 585 212 l 585 249 q 568 308 585 285 q 505 351 550 332 q 380 393 460 370 l 380 393 q 217 452 286 420 q 110 536 148 485 q 73 671 73 588 l 73 671 q 116 815 73 760 q 235 898 159 871 q 409 924 311 924 l 409 924 q 581 896 503 924 q 706 809 659 867 q 753 661 753 751 l 753 661 l 557 661 q 514 748 558 719 q 408 777 470 777 l 408 777 q 307 754 347 777 q 267 684 267 731 l 267 684 q 284 636 267 656 q 347 595 301 615 q 479 551 393 576 l 479 551 q 650 487 583 520 q 748 400 716 453 q 781 260 781 347 l 781 260 q 733 103 781 163 q 604 16 686 43 q 419 -12 522 -12 z m 429 -257 l 429 -257 q 348 -250 381 -257 q 286 -231 315 -242 l 286 -231 l 310 -153 q 362 -169 334 -163 q 420 -174 391 -174 l 420 -174 q 461 -164 446 -174 q 476 -134 476 -154 l 476 -134 q 456 -105 476 -115 q 381 -86 436 -95 l 381 -86 l 351 -81 l 444 35 l 512 9 l 471 -41 l 437 -31 q 542 -60 500 -33 q 583 -140 583 -87 l 583 -140 q 562 -206 583 -180 q 505 -244 540 -232 q 429 -257 470 -257 z "},"ş":{"ha":716,"x_min":66,"x_max":650,"o":"m 362 -12 l 362 -12 q 254 -2 307 -12 q 159 33 201 8 q 91 100 116 58 q 66 207 66 143 l 66 207 l 233 207 q 272 130 233 151 q 363 108 311 108 l 363 108 q 443 124 414 108 q 471 180 471 141 l 471 180 q 438 236 471 218 q 320 273 404 254 l 320 273 q 194 314 250 290 q 108 379 139 338 q 77 485 77 419 l 77 485 q 100 572 77 536 q 164 630 124 608 q 253 663 203 652 q 355 673 303 673 l 355 673 q 455 663 406 673 q 543 628 504 652 q 606 564 583 604 q 630 462 630 523 l 630 462 l 463 462 q 431 532 463 513 q 355 552 399 552 l 355 552 q 282 538 309 552 q 255 494 255 525 l 255 494 q 272 461 255 475 q 326 436 289 448 q 425 410 363 424 l 425 410 q 540 372 489 395 q 621 308 591 348 q 650 204 650 268 l 650 204 q 626 103 650 144 q 562 36 602 62 q 470 -1 522 11 q 362 -12 418 -12 z m 353 -257 l 353 -257 q 272 -250 305 -257 q 210 -231 239 -242 l 210 -231 l 234 -153 q 287 -169 258 -163 q 345 -174 315 -174 l 345 -174 q 385 -164 370 -174 q 400 -134 400 -154 l 400 -134 q 380 -105 400 -115 q 305 -86 360 -95 l 305 -86 l 275 -81 l 368 35 l 436 9 l 395 -41 l 361 -31 q 466 -60 425 -33 q 507 -140 507 -87 l 507 -140 q 486 -206 507 -180 q 429 -244 464 -232 q 353 -257 394 -257 z "},"Š":{"ha":831,"x_min":52,"x_max":781,"o":"m 419 -12 l 419 -12 q 232 17 315 -12 q 100 111 149 47 q 52 279 52 176 l 52 279 l 247 279 q 271 196 248 227 q 333 153 294 166 q 422 140 372 140 l 422 140 q 507 152 471 140 q 565 188 544 163 q 585 249 585 212 l 585 249 q 568 308 585 285 q 505 351 550 332 q 380 393 460 370 l 380 393 q 217 452 286 420 q 110 536 148 485 q 73 671 73 588 l 73 671 q 116 815 73 760 q 235 898 159 871 q 409 924 311 924 l 409 924 q 581 896 503 924 q 706 809 659 867 q 753 661 753 751 l 753 661 l 557 661 q 514 748 558 719 q 408 777 470 777 l 408 777 q 307 754 347 777 q 267 684 267 731 l 267 684 q 284 636 267 656 q 347 595 301 615 q 479 551 393 576 l 479 551 q 650 487 583 520 q 748 400 716 453 q 781 260 781 347 l 781 260 q 733 103 781 163 q 604 16 686 43 q 419 -12 522 -12 z m 498 986 l 334 986 l 190 1175 l 324 1175 l 415 1074 l 507 1175 l 642 1175 l 498 986 z "},"š":{"ha":716,"x_min":66,"x_max":650,"o":"m 362 -12 l 362 -12 q 254 -2 307 -12 q 159 33 201 8 q 91 100 116 58 q 66 207 66 143 l 66 207 l 233 207 q 272 130 233 151 q 363 108 311 108 l 363 108 q 443 124 414 108 q 471 180 471 141 l 471 180 q 438 236 471 218 q 320 273 404 254 l 320 273 q 194 314 250 290 q 108 379 139 338 q 77 485 77 419 l 77 485 q 100 572 77 536 q 164 630 124 608 q 253 663 203 652 q 355 673 303 673 l 355 673 q 455 663 406 673 q 543 628 504 652 q 606 564 583 604 q 630 462 630 523 l 630 462 l 463 462 q 431 532 463 513 q 355 552 399 552 l 355 552 q 282 538 309 552 q 255 494 255 525 l 255 494 q 272 461 255 475 q 326 436 289 448 q 425 410 363 424 l 425 410 q 540 372 489 395 q 621 308 591 348 q 650 204 650 268 l 650 204 q 626 103 650 144 q 562 36 602 62 q 470 -1 522 11 q 362 -12 418 -12 z m 443 750 l 278 750 l 134 937 l 269 937 l 360 838 l 452 937 l 587 937 l 443 750 z "},"Ţ":{"ha":702,"x_min":12,"x_max":690,"o":"m 447 0 l 256 0 l 256 754 l 12 754 l 12 913 l 690 913 l 690 754 l 447 754 l 447 0 z m 333 -257 l 333 -257 q 252 -250 285 -257 q 189 -231 219 -242 l 189 -231 l 214 -153 q 266 -169 237 -163 q 324 -174 295 -174 l 324 -174 q 365 -164 349 -174 q 380 -134 380 -154 l 380 -134 q 360 -105 380 -115 q 285 -86 340 -95 l 285 -86 l 254 -81 l 348 35 l 416 9 l 375 -41 l 340 -31 q 446 -60 404 -33 q 487 -140 487 -87 l 487 -140 q 465 -206 487 -180 q 409 -244 444 -232 q 333 -257 374 -257 z "},"ţ":{"ha":494,"x_min":15,"x_max":449,"o":"m 449 0 l 379 0 q 223 24 279 0 q 146 99 168 48 q 125 231 125 149 l 125 231 l 125 524 l 15 524 l 15 662 l 125 662 l 125 818 l 304 818 l 304 662 l 449 662 l 449 524 l 304 524 l 304 241 q 319 164 304 189 q 385 139 334 139 l 385 139 l 449 139 l 449 0 z m 247 -257 l 247 -257 q 166 -250 199 -257 q 103 -231 133 -242 l 103 -231 l 127 -153 q 180 -169 151 -163 q 238 -174 209 -174 l 238 -174 q 278 -164 263 -174 q 294 -134 294 -154 l 294 -134 q 274 -105 294 -115 q 199 -86 254 -95 l 199 -86 l 168 -81 l 262 35 l 330 9 l 289 -41 l 254 -31 q 359 -60 318 -33 q 401 -140 401 -87 l 401 -140 q 379 -206 401 -180 q 322 -244 357 -232 q 247 -257 288 -257 z "},"Ť":{"ha":702,"x_min":12,"x_max":690,"o":"m 447 0 l 256 0 l 256 754 l 12 754 l 12 913 l 690 913 l 690 754 l 447 754 l 447 0 z m 435 986 l 270 986 l 126 1175 l 260 1175 l 351 1074 l 444 1175 l 578 1175 l 435 986 z "},"ť":{"ha":494,"x_min":15,"x_max":582,"o":"m 449 0 l 379 0 q 223 24 279 0 q 146 99 168 48 q 125 231 125 149 l 125 231 l 125 524 l 15 524 l 15 662 l 125 662 l 125 818 l 304 818 l 304 662 l 449 662 l 449 524 l 304 524 l 304 241 q 319 164 304 189 q 385 139 334 139 l 385 139 l 449 139 l 449 0 z m 481 722 l 368 722 l 413 937 l 582 937 l 481 722 z "},"Ŧ":{"ha":702,"x_min":12,"x_max":690,"o":"m 592 354 l 111 354 l 111 506 l 592 506 l 592 354 z m 447 0 l 256 0 l 256 754 l 12 754 l 12 913 l 690 913 l 690 754 l 447 754 l 447 0 z "},"ŧ":{"ha":494,"x_min":15,"x_max":449,"o":"m 449 299 l 15 299 l 15 395 l 449 395 l 449 299 z m 449 0 l 379 0 q 223 24 279 0 q 146 99 168 48 q 125 231 125 149 l 125 231 l 125 524 l 15 524 l 15 662 l 125 662 l 125 818 l 304 818 l 304 662 l 449 662 l 449 524 l 304 524 l 304 241 q 319 164 304 189 q 385 139 334 139 l 385 139 l 449 139 l 449 0 z "},"Ũ":{"ha":967,"x_min":98,"x_max":869,"o":"m 484 -12 l 484 -12 q 264 31 349 -12 q 138 158 178 74 q 98 363 98 242 l 98 363 l 98 913 l 294 913 l 294 368 q 340 200 294 255 q 485 145 386 145 l 485 145 q 629 200 585 145 q 673 368 673 255 l 673 368 l 673 913 l 869 913 l 869 363 q 829 158 869 242 q 704 31 789 74 q 484 -12 619 -12 z m 358 992 l 264 992 q 304 1111 271 1069 q 395 1152 337 1152 l 395 1152 q 455 1142 427 1152 q 508 1122 483 1133 l 508 1122 q 548 1107 530 1113 q 581 1101 566 1101 l 581 1101 q 601 1112 593 1101 q 611 1153 608 1124 l 611 1153 l 705 1153 q 670 1038 698 1076 q 585 1000 642 1000 l 585 1000 q 524 1009 552 1000 q 471 1027 496 1018 l 471 1027 q 429 1043 447 1037 q 397 1048 412 1048 l 397 1048 q 371 1036 380 1048 q 358 992 361 1023 l 358 992 z "},"ũ":{"ha":808,"x_min":90,"x_max":711,"o":"m 300 -9 l 300 -9 q 145 53 200 -9 q 90 230 90 115 l 90 230 l 90 662 l 270 662 l 270 252 q 280 192 270 218 q 312 151 290 165 q 372 137 335 137 l 372 137 q 465 161 427 137 q 532 220 503 185 l 532 220 l 532 662 l 711 662 l 711 0 l 538 0 l 535 100 q 444 24 502 58 q 300 -9 387 -9 z m 274 758 l 180 758 q 220 876 187 835 q 311 917 253 917 l 311 917 q 371 907 343 917 q 424 887 399 898 l 424 887 q 464 872 446 878 q 497 866 482 866 l 497 866 q 517 878 509 866 q 527 918 524 889 l 527 918 l 621 918 q 586 803 614 842 q 501 765 557 765 l 501 765 q 440 774 468 765 q 387 792 412 783 l 387 792 q 345 808 363 802 q 313 814 328 814 l 313 814 q 287 801 296 814 q 274 758 277 788 l 274 758 z "},"Ū":{"ha":967,"x_min":98,"x_max":869,"o":"m 484 -12 l 484 -12 q 264 31 349 -12 q 138 158 178 74 q 98 363 98 242 l 98 363 l 98 913 l 294 913 l 294 368 q 340 200 294 255 q 485 145 386 145 l 485 145 q 629 200 585 145 q 673 368 673 255 l 673 368 l 673 913 l 869 913 l 869 363 q 829 158 869 242 q 704 31 789 74 q 484 -12 619 -12 z m 675 1015 l 294 1015 l 294 1124 l 675 1124 l 675 1015 z "},"ū":{"ha":808,"x_min":90,"x_max":711,"o":"m 300 -9 l 300 -9 q 145 53 200 -9 q 90 230 90 115 l 90 230 l 90 662 l 270 662 l 270 252 q 280 192 270 218 q 312 151 290 165 q 372 137 335 137 l 372 137 q 465 161 427 137 q 532 220 503 185 l 532 220 l 532 662 l 711 662 l 711 0 l 538 0 l 535 100 q 444 24 502 58 q 300 -9 387 -9 z m 591 780 l 210 780 l 210 889 l 591 889 l 591 780 z "},"Ŭ":{"ha":967,"x_min":98,"x_max":869,"o":"m 484 -12 l 484 -12 q 264 31 349 -12 q 138 158 178 74 q 98 363 98 242 l 98 363 l 98 913 l 294 913 l 294 368 q 340 200 294 255 q 485 145 386 145 l 485 145 q 629 200 585 145 q 673 368 673 255 l 673 368 l 673 913 l 869 913 l 869 363 q 829 158 869 242 q 704 31 789 74 q 484 -12 619 -12 z m 484 987 l 484 987 q 375 1010 422 987 q 301 1075 328 1034 q 273 1174 275 1117 l 273 1174 l 369 1174 q 391 1119 374 1139 q 434 1090 409 1099 q 484 1082 458 1082 l 484 1082 q 534 1090 509 1082 q 576 1119 558 1099 q 599 1174 594 1139 l 599 1174 l 696 1174 q 666 1076 694 1118 q 592 1010 639 1034 q 484 987 545 987 z "},"ŭ":{"ha":808,"x_min":90,"x_max":711,"o":"m 300 -9 l 300 -9 q 145 53 200 -9 q 90 230 90 115 l 90 230 l 90 662 l 270 662 l 270 252 q 280 192 270 218 q 312 151 290 165 q 372 137 335 137 l 372 137 q 465 161 427 137 q 532 220 503 185 l 532 220 l 532 662 l 711 662 l 711 0 l 538 0 l 535 100 q 444 24 502 58 q 300 -9 387 -9 z m 399 749 l 399 749 q 258 800 308 749 q 201 937 209 850 l 201 937 l 298 937 q 335 865 304 884 q 399 846 366 846 l 399 846 q 472 865 437 846 q 512 937 506 884 l 512 937 l 597 937 q 541 800 591 851 q 399 749 492 749 z "},"Ů":{"ha":967,"x_min":98,"x_max":869,"o":"m 484 -12 l 484 -12 q 264 31 349 -12 q 138 158 178 74 q 98 363 98 242 l 98 363 l 98 913 l 294 913 l 294 368 q 340 200 294 255 q 485 145 386 145 l 485 145 q 629 200 585 145 q 673 368 673 255 l 673 368 l 673 913 l 869 913 l 869 363 q 829 158 869 242 q 704 31 789 74 q 484 -12 619 -12 z m 484 936 l 484 936 q 380 973 421 936 q 339 1074 339 1010 l 339 1074 q 380 1173 339 1135 q 484 1210 421 1210 l 484 1210 q 588 1173 547 1210 q 629 1074 629 1135 l 629 1074 q 588 973 629 1010 q 484 936 547 936 z m 484 1013 l 484 1013 q 527 1030 511 1013 q 544 1074 544 1047 l 544 1074 q 527 1117 544 1100 q 484 1134 511 1134 l 484 1134 q 441 1117 458 1134 q 425 1074 425 1100 l 425 1074 q 441 1030 425 1047 q 484 1013 458 1013 z "},"ů":{"ha":808,"x_min":90,"x_max":711,"o":"m 300 -9 l 300 -9 q 145 53 200 -9 q 90 230 90 115 l 90 230 l 90 662 l 270 662 l 270 252 q 280 192 270 218 q 312 151 290 165 q 372 137 335 137 l 372 137 q 465 161 427 137 q 532 220 503 185 l 532 220 l 532 662 l 711 662 l 711 0 l 538 0 l 535 100 q 444 24 502 58 q 300 -9 387 -9 z m 400 732 l 400 732 q 296 769 337 732 q 255 869 255 806 l 255 869 q 296 968 255 931 q 400 1006 337 1006 l 400 1006 q 504 968 463 1006 q 545 869 545 931 l 545 869 q 504 769 545 806 q 400 732 463 732 z m 400 808 l 400 808 q 443 826 427 808 q 460 869 460 843 l 460 869 q 443 913 460 896 q 400 930 427 930 l 400 930 q 357 913 374 930 q 340 869 340 896 l 340 869 q 357 826 340 843 q 400 808 374 808 z "},"Ű":{"ha":967,"x_min":98,"x_max":869,"o":"m 484 -12 l 484 -12 q 264 31 349 -12 q 138 158 178 74 q 98 363 98 242 l 98 363 l 98 913 l 294 913 l 294 368 q 340 200 294 255 q 485 145 386 145 l 485 145 q 629 200 585 145 q 673 368 673 255 l 673 368 l 673 913 l 869 913 l 869 363 q 829 158 869 242 q 704 31 789 74 q 484 -12 619 -12 z m 616 986 l 505 986 l 631 1174 l 779 1174 l 616 986 z m 397 986 l 287 986 l 412 1174 l 561 1174 l 397 986 z "},"ű":{"ha":808,"x_min":90,"x_max":711,"o":"m 300 -9 l 300 -9 q 145 53 200 -9 q 90 230 90 115 l 90 230 l 90 662 l 270 662 l 270 252 q 280 192 270 218 q 312 151 290 165 q 372 137 335 137 l 372 137 q 465 161 427 137 q 532 220 503 185 l 532 220 l 532 662 l 711 662 l 711 0 l 538 0 l 535 100 q 444 24 502 58 q 300 -9 387 -9 z m 532 750 l 421 750 l 547 937 l 695 937 l 532 750 z m 313 750 l 203 750 l 328 937 l 477 937 l 313 750 z "},"Ų":{"ha":967,"x_min":98,"x_max":869,"o":"m 484 -12 l 484 -12 q 264 31 349 -12 q 138 158 178 74 q 98 363 98 242 l 98 363 l 98 913 l 294 913 l 294 368 q 340 200 294 255 q 485 145 386 145 l 485 145 q 629 200 585 145 q 673 368 673 255 l 673 368 l 673 913 l 869 913 l 869 363 q 829 158 869 242 q 704 31 789 74 q 484 -12 619 -12 z m 576 -252 l 576 -252 q 477 -220 517 -252 q 437 -133 437 -189 l 437 -133 q 458 -65 437 -98 q 515 -8 479 -33 q 598 24 552 16 l 598 24 l 661 7 q 589 -48 611 -18 q 566 -102 566 -78 l 566 -102 q 577 -132 566 -121 q 610 -143 588 -143 l 610 -143 q 652 -137 631 -143 q 697 -121 673 -132 l 697 -121 l 697 -222 q 646 -244 673 -236 q 576 -252 619 -252 z "},"ų":{"ha":808,"x_min":90,"x_max":711,"o":"m 300 -9 l 300 -9 q 145 53 200 -9 q 90 230 90 115 l 90 230 l 90 662 l 270 662 l 270 252 q 280 192 270 218 q 312 151 290 165 q 372 137 335 137 l 372 137 q 465 161 427 137 q 532 220 503 185 l 532 220 l 532 662 l 711 662 l 711 0 l 538 0 l 535 100 q 444 24 502 58 q 300 -9 387 -9 z m 581 -252 l 581 -252 q 482 -220 522 -252 q 441 -133 441 -189 l 441 -133 q 463 -65 441 -98 q 520 -8 484 -33 q 603 24 557 16 l 603 24 l 665 7 q 593 -48 616 -18 q 571 -102 571 -78 l 571 -102 q 582 -132 571 -121 q 614 -143 593 -143 l 614 -143 q 657 -137 636 -143 q 702 -121 678 -132 l 702 -121 l 702 -222 q 651 -244 678 -236 q 581 -252 624 -252 z "},"Ŵ":{"ha":1306,"x_min":5,"x_max":1301,"o":"m 475 0 l 275 0 l 5 913 l 202 913 l 376 227 l 558 913 l 749 913 l 933 227 l 1107 913 l 1301 913 l 1029 0 l 831 0 l 652 682 l 475 0 z m 563 986 l 429 986 l 572 1175 l 737 1175 l 881 986 l 746 986 l 654 1086 l 563 986 z "},"ŵ":{"ha":1057,"x_min":3,"x_max":1055,"o":"m 394 0 l 211 0 l 3 662 l 185 662 l 313 195 l 440 662 l 629 662 l 759 195 l 884 662 l 1055 662 l 846 0 l 663 0 l 529 476 l 394 0 z m 443 750 l 309 750 l 452 937 l 617 937 l 761 750 l 626 750 l 535 850 l 443 750 z "},"Ŷ":{"ha":814,"x_min":0,"x_max":814,"o":"m 505 0 l 309 0 l 309 341 l 0 913 l 212 913 l 407 516 l 602 913 l 814 913 l 505 341 l 505 0 z m 315 986 l 181 986 l 325 1175 l 490 1175 l 633 986 l 498 986 l 407 1086 l 315 986 z "},"ŷ":{"ha":686,"x_min":0,"x_max":686,"o":"m 158 -243 l 77 -243 l 77 -97 l 137 -97 q 204 -83 177 -97 q 243 -36 231 -68 l 243 -36 l 258 0 l 0 662 l 187 662 l 355 172 l 504 662 l 686 662 l 448 0 l 423 -66 q 363 -174 397 -136 q 280 -228 330 -213 q 158 -243 231 -243 l 158 -243 z m 254 750 l 120 750 l 264 937 l 429 937 l 572 750 l 437 750 l 347 850 l 254 750 z "},"Ÿ":{"ha":814,"x_min":0,"x_max":814,"o":"m 505 0 l 309 0 l 309 341 l 0 913 l 212 913 l 407 516 l 602 913 l 814 913 l 505 341 l 505 0 z m 537 991 l 537 991 q 479 1014 503 991 q 456 1071 456 1036 l 456 1071 q 479 1128 456 1106 q 537 1151 503 1151 l 537 1151 q 596 1128 572 1151 q 619 1071 619 1106 l 619 1071 q 596 1014 619 1036 q 537 991 572 991 z m 277 991 l 277 991 q 219 1014 243 991 q 195 1071 195 1036 l 195 1071 q 219 1128 195 1106 q 277 1151 243 1151 l 277 1151 q 335 1128 311 1151 q 359 1071 359 1106 l 359 1071 q 335 1014 359 1036 q 277 991 311 991 z "},"Ź":{"ha":760,"x_min":33,"x_max":728,"o":"m 728 0 l 33 0 l 33 151 l 460 754 l 67 754 l 67 913 l 697 913 l 697 770 l 262 159 l 728 159 l 728 0 z m 429 986 l 296 986 l 423 1174 l 616 1174 l 429 986 z "},"ź":{"ha":647,"x_min":50,"x_max":597,"o":"m 597 0 l 50 0 l 50 130 l 363 524 l 77 524 l 77 662 l 576 662 l 576 536 l 261 139 l 597 139 l 597 0 z m 363 750 l 231 750 l 364 937 l 558 937 l 363 750 z "},"Ż":{"ha":760,"x_min":33,"x_max":728,"o":"m 728 0 l 33 0 l 33 151 l 460 754 l 67 754 l 67 913 l 697 913 l 697 770 l 262 159 l 728 159 l 728 0 z m 382 983 l 382 983 q 307 1008 334 983 q 281 1071 281 1034 l 281 1071 q 307 1134 281 1109 q 382 1158 334 1158 l 382 1158 q 458 1134 432 1158 q 484 1071 484 1109 l 484 1071 q 458 1008 484 1034 q 382 983 432 983 z "},"ż":{"ha":647,"x_min":50,"x_max":597,"o":"m 597 0 l 50 0 l 50 130 l 363 524 l 77 524 l 77 662 l 576 662 l 576 536 l 261 139 l 597 139 l 597 0 z m 326 749 l 326 749 q 251 774 277 749 q 224 836 224 799 l 224 836 q 251 899 224 875 q 326 924 277 924 l 326 924 q 402 899 376 924 q 428 836 428 875 l 428 836 q 402 774 428 799 q 326 749 376 749 z "},"Ž":{"ha":760,"x_min":33,"x_max":728,"o":"m 728 0 l 33 0 l 33 151 l 460 754 l 67 754 l 67 913 l 697 913 l 697 770 l 262 159 l 728 159 l 728 0 z m 465 986 l 300 986 l 157 1175 l 291 1175 l 382 1074 l 474 1175 l 609 1175 l 465 986 z "},"ž":{"ha":647,"x_min":50,"x_max":597,"o":"m 597 0 l 50 0 l 50 130 l 363 524 l 77 524 l 77 662 l 576 662 l 576 536 l 261 139 l 597 139 l 597 0 z m 409 750 l 244 750 l 100 937 l 235 937 l 326 838 l 418 937 l 553 937 l 409 750 z "},"ſ":{"ha":424,"x_min":15,"x_max":445,"o":"m 304 0 l 125 0 l 125 522 l 15 522 l 15 662 l 125 662 l 125 683 q 146 814 125 763 q 222 889 168 865 q 379 913 277 913 l 379 913 l 445 913 l 445 783 l 385 783 q 319 759 334 783 q 304 683 304 735 l 304 683 l 304 0 z "},"Ɓ":{"ha":1034,"x_min":12,"x_max":978,"o":"m 630 0 l 284 0 l 284 759 q 194 730 222 757 q 166 644 166 703 l 166 644 l 166 604 l 12 604 l 12 669 q 85 855 12 798 q 284 913 158 913 l 284 913 l 596 913 q 830 857 743 913 q 916 685 916 801 l 916 685 q 880 562 916 612 q 783 489 843 511 l 783 489 q 928 412 878 470 q 978 268 978 353 l 978 268 q 936 117 978 176 q 816 29 894 58 q 630 0 739 0 l 630 0 z m 474 397 l 474 158 l 623 158 q 705 169 669 158 q 763 209 741 180 q 785 284 785 237 l 785 284 q 739 371 785 345 q 623 397 694 397 l 623 397 l 474 397 z m 474 759 l 474 543 l 593 543 q 686 572 648 543 q 723 655 723 600 l 723 655 q 706 716 723 694 q 659 749 688 739 q 593 759 630 759 l 593 759 l 474 759 z "},"Ɔ":{"ha":981,"x_min":62,"x_max":914,"o":"m 470 -12 l 470 -12 q 261 27 350 -12 q 122 144 173 67 q 62 333 71 221 l 62 333 l 258 333 q 321 195 267 243 q 470 146 376 146 l 470 146 q 614 189 559 146 q 693 302 668 232 q 718 456 718 373 l 718 456 q 693 609 718 539 q 614 723 668 680 q 470 766 559 766 l 470 766 q 370 748 414 766 q 296 693 325 730 q 259 601 267 656 l 259 601 l 64 601 q 126 779 69 707 q 273 888 182 851 q 470 925 363 925 l 470 925 q 708 867 608 925 q 861 704 807 809 q 914 456 914 598 l 914 456 q 861 209 914 313 q 708 46 807 104 q 470 -12 608 -12 z "},"Ɖ":{"ha":982,"x_min":0,"x_max":913,"o":"m 509 383 l 0 383 l 0 536 l 509 536 l 509 383 z m 449 0 l 109 0 l 109 913 l 449 913 q 700 859 595 913 q 859 703 804 804 q 913 458 913 601 l 913 458 q 858 209 913 311 q 698 53 802 106 q 449 0 594 0 l 449 0 z m 300 754 l 300 159 l 429 159 q 590 192 526 159 q 686 291 654 224 q 718 460 718 358 l 718 460 q 683 622 718 557 q 585 721 649 688 q 429 754 520 754 l 429 754 l 300 754 z "},"Ɗ":{"ha":1156,"x_min":12,"x_max":1088,"o":"m 624 0 l 284 0 l 284 759 q 194 730 222 757 q 166 644 166 703 l 166 644 l 166 604 l 12 604 l 12 669 q 85 855 12 798 q 284 913 158 913 l 284 913 l 624 913 q 874 859 770 913 q 1033 703 978 804 q 1088 458 1088 601 l 1088 458 q 1033 209 1088 311 q 873 53 977 106 q 624 0 769 0 l 624 0 z m 474 754 l 474 159 l 603 159 q 821 233 749 159 q 892 460 892 307 l 892 460 q 816 680 892 606 q 603 754 741 754 l 603 754 l 474 754 z "},"Ǝ":{"ha":795,"x_min":75,"x_max":687,"o":"m 687 0 l 75 0 l 75 158 l 496 158 l 496 390 l 114 390 l 114 543 l 496 543 l 496 755 l 75 755 l 75 913 l 687 913 l 687 0 z "},"Ə":{"ha":1015,"x_min":67,"x_max":947,"o":"m 509 -12 l 509 -12 q 328 17 409 -12 q 189 107 247 45 q 100 264 132 168 q 67 496 69 361 l 67 496 l 279 355 q 317 236 286 282 q 398 168 348 190 q 509 146 448 146 l 509 146 q 649 185 596 146 q 726 294 702 224 q 750 457 750 364 l 750 457 q 726 620 750 550 q 650 727 703 689 q 509 766 597 766 l 509 766 q 345 726 404 766 q 272 610 286 687 l 272 610 l 77 610 q 148 782 91 712 q 298 889 204 852 q 517 925 392 925 l 517 925 q 750 868 654 925 q 897 706 846 811 q 947 457 947 602 l 947 457 q 895 209 947 315 q 746 46 844 104 q 509 -12 648 -12 z m 833 349 l 149 349 l 67 496 l 833 496 l 833 349 z "},"Ɛ":{"ha":815,"x_min":57,"x_max":766,"o":"m 413 -12 l 413 -12 q 224 21 304 -12 q 100 115 144 53 q 57 267 57 177 l 57 267 q 113 413 57 357 q 251 485 168 469 l 251 485 q 127 555 173 505 q 81 684 81 606 l 81 684 q 126 821 81 768 q 245 900 171 874 q 407 926 320 926 l 407 926 q 578 896 503 926 q 697 805 653 866 q 741 650 741 744 l 741 650 l 556 650 q 518 741 557 707 q 407 774 479 774 l 407 774 q 302 746 340 774 q 264 665 264 719 l 264 665 q 304 582 264 612 q 408 552 344 552 l 408 552 l 488 552 l 488 402 l 413 402 q 298 373 343 402 q 253 279 253 345 l 253 279 q 294 174 253 208 q 414 140 335 140 l 414 140 q 537 178 494 140 q 581 283 581 216 l 581 283 l 766 283 q 724 118 766 184 q 604 21 682 53 q 413 -12 525 -12 z "},"Ƒ":{"ha":745,"x_min":7,"x_max":706,"o":"m 50 -243 l 7 -243 l 7 -80 l 35 -80 q 92 -56 75 -80 q 109 9 109 -33 l 109 9 l 109 913 l 706 913 l 706 755 l 300 755 l 300 541 l 664 541 l 664 390 l 300 390 l 300 8 q 239 -181 300 -120 q 50 -243 179 -243 l 50 -243 z "},"ƒ":{"ha":465,"x_min":-3,"x_max":446,"o":"m 60 -243 l -3 -243 l -3 -101 l 37 -101 q 102 -82 80 -101 q 125 -16 125 -64 l 125 -16 l 125 524 l 15 524 l 15 662 l 125 662 l 125 683 q 146 814 125 763 q 222 889 168 865 q 379 913 277 913 l 379 913 l 445 913 l 445 783 l 385 783 q 319 759 334 783 q 304 683 304 735 l 304 683 l 304 662 l 446 662 l 446 524 l 304 524 l 303 -19 q 244 -185 303 -127 q 60 -243 185 -243 l 60 -243 z "},"Ɣ":{"ha":798,"x_min":2,"x_max":795,"o":"m 400 -11 l 400 -11 q 279 14 327 -11 q 209 82 232 39 q 185 178 185 125 l 185 178 q 204 279 185 231 q 260 385 223 328 q 349 520 296 441 l 349 520 l 376 562 l 387 566 l 584 913 l 795 913 l 445 372 q 406 309 427 344 q 370 241 385 275 q 355 180 355 207 l 355 180 q 366 137 355 153 q 400 121 378 121 l 400 121 q 431 138 418 121 q 444 182 444 154 l 444 182 q 418 270 444 220 q 359 371 392 320 l 359 371 l 2 913 l 219 913 l 415 568 l 429 558 l 456 517 q 544 381 509 439 q 596 275 579 323 q 614 178 614 227 l 614 178 q 590 82 614 125 q 519 14 566 39 q 400 -11 471 -11 z "},"Ƙ":{"ha":865,"x_min":109,"x_max":861,"o":"m 300 0 l 109 0 l 109 913 l 300 913 l 300 477 l 499 484 l 861 0 l 643 0 l 300 467 l 300 0 z m 795 913 l 823 913 l 823 749 l 802 749 q 736 741 766 749 q 680 709 707 732 q 618 642 652 686 l 618 642 l 499 484 l 300 477 l 475 720 q 570 832 526 789 q 668 893 615 874 q 795 913 720 913 l 795 913 z "},"ƙ":{"ha":742,"x_min":96,"x_max":749,"o":"m 276 0 l 96 0 l 96 677 l 276 681 l 276 357 l 534 662 l 730 662 l 467 357 l 749 0 l 548 0 l 276 349 l 276 0 z m 276 681 l 96 677 q 149 852 96 791 q 313 913 202 913 l 313 913 l 396 913 l 396 770 l 357 770 q 296 749 316 770 q 276 681 275 727 l 276 681 z "},"Ơ":{"ha":1112,"x_min":67,"x_max":1138,"o":"m 906 650 l 906 650 l 885 724 q 972 764 939 739 q 1010 831 1004 789 l 1010 831 l 1020 823 q 948 850 976 823 q 921 918 921 878 l 921 918 q 949 986 921 960 q 1025 1011 978 1011 l 1025 1011 q 1107 980 1076 1011 q 1138 888 1138 949 l 1138 888 q 1118 795 1138 836 q 1065 724 1099 753 q 990 675 1031 694 q 906 650 949 657 z m 512 -12 l 512 -12 q 270 46 369 -12 q 119 209 170 104 q 67 456 67 313 l 67 456 q 119 704 67 598 q 270 867 170 809 q 512 925 369 925 l 512 925 q 754 867 655 925 q 905 704 853 809 q 956 456 956 598 l 956 456 q 905 209 956 313 q 754 46 853 104 q 512 -12 655 -12 z m 512 146 l 512 146 q 655 189 601 146 q 734 301 709 231 q 760 456 760 372 l 760 456 q 734 612 760 541 q 655 724 709 682 q 512 766 601 766 l 512 766 q 368 724 422 766 q 289 612 313 682 q 264 456 264 541 l 264 456 q 289 301 264 372 q 368 189 313 231 q 512 146 422 146 z "},"ơ":{"ha":834,"x_min":62,"x_max":867,"o":"m 648 463 l 648 463 l 627 536 q 712 577 680 551 q 749 644 743 603 l 749 644 l 759 636 q 687 663 715 636 q 659 730 659 690 l 659 730 q 687 798 659 772 q 759 824 714 824 l 759 824 q 837 793 808 824 q 867 702 867 763 l 867 702 q 835 583 867 633 q 753 503 803 532 q 648 463 703 473 z m 397 -11 l 397 -11 q 221 29 296 -11 q 104 145 145 69 q 62 329 62 221 l 62 329 q 104 516 62 439 q 221 633 145 593 q 397 673 296 673 l 397 673 q 574 633 498 673 q 692 516 650 593 q 734 329 734 439 l 734 329 q 692 145 734 221 q 574 29 650 69 q 397 -11 498 -11 z m 397 126 l 397 126 q 489 154 456 126 q 537 227 523 181 q 551 329 551 273 l 551 329 q 537 433 551 386 q 489 507 523 479 q 397 535 456 535 l 397 535 q 306 507 339 535 q 260 433 273 479 q 246 329 246 386 l 246 329 q 260 227 246 273 q 306 154 273 181 q 397 126 339 126 z "},"Ư":{"ha":1122,"x_min":98,"x_max":1150,"o":"m 863 650 l 863 650 l 842 724 q 967 764 920 739 q 1023 831 1015 789 l 1023 831 l 1032 823 q 961 850 988 823 q 933 918 933 878 l 933 918 q 962 986 933 960 q 1038 1011 991 1011 l 1038 1011 q 1120 980 1090 1011 q 1150 888 1150 949 l 1150 888 q 1126 795 1150 836 q 1061 724 1102 753 q 968 675 1019 694 q 863 650 917 657 z m 484 -12 l 484 -12 q 264 31 349 -12 q 138 158 178 74 q 98 363 98 242 l 98 363 l 98 913 l 294 913 l 294 368 q 340 200 294 255 q 485 145 386 145 l 485 145 q 629 200 585 145 q 673 368 673 255 l 673 368 l 673 913 l 869 913 l 869 363 q 829 158 869 242 q 704 31 789 74 q 484 -12 619 -12 z "},"ư":{"ha":916,"x_min":90,"x_max":953,"o":"m 699 449 l 699 449 l 686 526 q 789 571 751 543 q 835 644 827 598 l 835 644 l 844 636 q 773 663 800 636 q 745 730 745 690 l 745 730 q 772 798 745 772 q 844 824 800 824 l 844 824 q 923 793 893 824 q 953 702 953 763 l 953 702 q 932 604 953 647 q 876 529 911 561 q 794 477 840 498 q 699 449 749 457 z m 300 -9 l 300 -9 q 145 53 200 -9 q 90 230 90 115 l 90 230 l 90 662 l 270 662 l 270 252 q 280 192 270 218 q 312 151 290 165 q 372 137 335 137 l 372 137 q 465 161 427 137 q 532 220 503 185 l 532 220 l 532 662 l 711 662 l 711 0 l 538 0 l 535 100 q 444 24 502 58 q 300 -9 387 -9 z "},"Ʋ":{"ha":967,"x_min":98,"x_max":869,"o":"m 484 -12 l 484 -12 q 264 33 349 -12 q 138 161 178 77 q 98 363 98 244 l 98 363 l 98 913 l 294 913 l 294 368 q 340 202 294 258 q 485 146 386 146 l 485 146 q 629 202 585 146 q 673 368 673 258 l 673 368 l 673 596 l 869 598 l 869 363 q 829 161 869 244 q 704 33 789 77 q 484 -12 619 -12 z m 869 598 l 673 596 q 643 718 673 682 q 550 753 613 753 l 550 753 l 512 753 l 512 916 l 564 916 q 796 839 722 916 q 869 598 869 762 l 869 598 z "},"Ƴ":{"ha":817,"x_min":0,"x_max":805,"o":"m 505 0 l 309 0 l 309 341 l 0 913 l 213 913 l 407 515 l 505 341 l 505 0 z m 627 618 l 505 341 l 345 373 l 496 727 q 564 839 528 799 q 649 896 600 880 q 769 913 699 913 l 769 913 l 805 913 l 805 749 l 785 749 q 723 739 749 749 q 674 700 696 728 q 627 618 652 672 l 627 618 z "},"ƴ":{"ha":817,"x_min":0,"x_max":817,"o":"m 168 -243 l 87 -243 l 87 -97 l 147 -97 q 207 -83 184 -97 q 243 -36 231 -68 l 243 -36 l 258 0 l 0 662 l 187 662 l 355 184 l 525 729 q 580 836 547 799 q 661 887 613 873 q 774 901 709 901 l 774 901 l 817 901 l 817 754 l 795 754 q 733 739 758 754 q 692 677 709 724 l 692 677 l 430 -75 q 373 -177 406 -140 q 290 -228 340 -214 q 168 -243 241 -243 l 168 -243 z "},"Ʒ":{"ha":812,"x_min":50,"x_max":755,"o":"m 401 -12 l 401 -12 q 212 21 290 -12 q 92 118 133 53 q 50 283 50 184 l 50 283 l 235 283 q 278 178 235 216 q 401 140 321 140 l 401 140 q 518 177 478 140 q 558 293 558 214 l 558 293 q 505 398 558 366 q 367 430 451 430 l 367 430 l 258 430 l 258 563 l 398 555 q 584 528 504 555 q 710 442 665 500 q 755 290 755 384 l 755 290 q 712 125 755 193 q 589 23 669 58 q 401 -12 510 -12 z m 708 760 l 381 489 l 258 563 l 490 754 l 103 754 l 103 913 l 708 913 l 708 760 z "},"ǝ":{"ha":772,"x_min":63,"x_max":710,"o":"m 372 674 l 372 674 q 557 633 482 674 q 671 515 633 592 q 710 328 710 437 l 710 328 q 672 148 710 224 q 562 31 635 72 q 382 -10 489 -10 l 382 -10 q 149 77 235 -10 q 63 323 63 163 l 63 323 q 64 345 63 331 q 66 366 65 359 l 66 366 l 530 366 q 513 454 529 414 q 463 519 497 494 q 372 544 429 544 l 372 544 q 279 518 314 544 q 242 443 243 493 l 242 443 l 65 443 q 107 572 68 520 q 214 649 146 623 q 372 674 282 674 z m 528 252 l 528 252 l 241 252 q 282 149 243 184 q 382 115 321 115 l 382 115 q 485 150 445 115 q 528 252 524 185 z "},"Ǧ":{"ha":997,"x_min":67,"x_max":928,"o":"m 516 -12 l 516 -12 q 275 46 376 -12 q 121 209 175 104 q 67 456 67 314 l 67 456 q 121 704 67 598 q 275 867 175 809 q 516 925 376 925 l 516 925 q 654 907 587 925 q 779 850 722 888 q 871 753 835 812 q 916 613 908 694 l 916 613 l 721 613 q 690 692 715 658 q 619 747 664 727 q 512 766 574 766 l 512 766 q 368 723 422 766 q 288 610 313 680 q 262 456 262 540 l 262 456 q 288 302 262 372 q 369 189 313 231 q 516 146 425 146 l 516 146 q 632 169 584 146 q 706 234 680 193 q 737 330 733 275 l 737 330 l 521 330 l 521 481 l 928 481 l 928 389 q 881 180 928 270 q 741 39 833 90 q 516 -12 649 -12 z m 595 986 l 430 986 l 286 1175 l 420 1175 l 511 1074 l 604 1175 l 739 1175 l 595 986 z "},"ǧ":{"ha":710,"x_min":37,"x_max":696,"o":"m 357 -256 l 357 -256 q 168 -231 238 -256 q 68 -167 98 -207 q 37 -81 37 -127 l 37 -81 q 91 17 37 -25 q 260 77 144 60 l 260 77 l 290 140 l 380 140 q 620 95 545 140 q 696 -44 696 50 l 696 -44 q 609 -197 696 -139 q 357 -256 522 -256 z m 354 -143 l 354 -143 q 482 -119 445 -143 q 519 -62 519 -96 l 519 -62 q 507 -25 519 -40 q 464 -2 494 -10 q 385 6 434 6 l 385 6 l 264 6 q 221 -23 237 -4 q 204 -66 204 -41 l 204 -66 q 239 -119 204 -94 q 354 -143 275 -143 z m 363 140 l 263 15 q 148 44 192 23 q 83 92 104 64 q 63 145 63 119 l 63 145 q 95 215 63 186 q 190 266 126 244 l 190 266 l 283 232 q 222 211 247 223 q 198 180 198 198 l 198 180 q 213 158 198 167 q 263 145 227 149 q 363 140 300 140 l 363 140 z m 345 211 l 345 211 q 192 243 255 211 q 96 327 129 275 q 64 439 64 379 l 64 439 q 97 556 64 504 q 193 639 130 608 q 349 670 257 670 l 349 670 q 505 639 443 670 q 598 556 567 608 q 629 439 629 504 l 629 439 q 597 326 629 378 q 503 242 566 273 q 345 211 440 211 z m 345 319 l 345 319 q 428 350 395 319 q 462 439 462 380 l 462 439 q 431 532 462 502 q 349 563 399 563 l 349 563 q 265 531 298 563 q 232 439 232 500 l 232 439 q 266 349 232 380 q 345 319 300 319 z m 534 570 l 534 570 l 481 637 q 563 733 507 707 q 696 760 618 759 l 696 760 l 696 629 q 599 619 643 629 q 534 570 555 609 z m 439 750 l 274 750 l 130 937 l 264 937 l 356 838 l 448 937 l 583 937 l 439 750 z "},"Ǫ":{"ha":1024,"x_min":67,"x_max":956,"o":"m 512 -12 l 512 -12 q 270 46 369 -12 q 119 209 170 104 q 67 456 67 313 l 67 456 q 119 704 67 598 q 270 867 170 809 q 512 925 369 925 l 512 925 q 754 867 655 925 q 905 704 853 809 q 956 456 956 598 l 956 456 q 905 209 956 313 q 754 46 853 104 q 512 -12 655 -12 z m 512 146 l 512 146 q 655 189 601 146 q 734 301 709 231 q 760 456 760 372 l 760 456 q 734 612 760 541 q 655 724 709 682 q 512 766 601 766 l 512 766 q 368 724 422 766 q 289 612 313 682 q 264 456 264 541 l 264 456 q 289 301 264 372 q 368 189 313 231 q 512 146 422 146 z m 578 -252 l 578 -252 q 478 -220 519 -252 q 438 -133 438 -189 l 438 -133 q 459 -65 438 -98 q 517 -8 480 -33 q 600 24 553 16 l 600 24 l 662 7 q 590 -48 612 -18 q 568 -102 568 -78 l 568 -102 q 578 -132 568 -121 q 611 -143 589 -143 l 611 -143 q 654 -137 633 -143 q 699 -121 675 -132 l 699 -121 l 699 -222 q 648 -244 675 -236 q 578 -252 621 -252 z "},"ǫ":{"ha":796,"x_min":62,"x_max":734,"o":"m 397 -11 l 397 -11 q 221 29 296 -11 q 104 145 145 69 q 62 329 62 221 l 62 329 q 104 516 62 439 q 221 633 145 593 q 397 673 296 673 l 397 673 q 574 633 498 673 q 692 516 650 593 q 734 329 734 439 l 734 329 q 692 145 734 221 q 574 29 650 69 q 397 -11 498 -11 z m 397 126 l 397 126 q 489 154 456 126 q 537 227 523 181 q 551 329 551 273 l 551 329 q 537 433 551 386 q 489 507 523 479 q 397 535 456 535 l 397 535 q 306 507 339 535 q 260 433 273 479 q 246 329 246 386 l 246 329 q 260 227 246 273 q 306 154 273 181 q 397 126 339 126 z m 440 -252 l 440 -252 q 341 -220 381 -252 q 300 -133 300 -189 l 300 -133 q 321 -65 300 -98 q 379 -8 342 -33 q 462 24 416 16 l 462 24 l 524 7 q 452 -48 475 -18 q 430 -102 430 -78 l 430 -102 q 441 -132 430 -121 q 473 -143 452 -143 l 473 -143 q 516 -137 495 -143 q 561 -121 537 -132 l 561 -121 l 561 -222 q 510 -244 537 -236 q 440 -252 483 -252 z "},"Ǹ":{"ha":1004,"x_min":109,"x_max":895,"o":"m 288 0 l 109 0 l 109 913 l 296 913 l 715 298 l 715 913 l 895 913 l 895 0 l 708 0 l 288 619 l 288 0 z m 591 986 l 459 986 l 271 1174 l 464 1174 l 591 986 z "},"ǹ":{"ha":804,"x_min":96,"x_max":713,"o":"m 276 0 l 96 0 l 96 662 l 269 662 l 273 563 q 360 638 306 606 q 501 671 414 671 l 501 671 q 658 610 602 671 q 713 431 713 549 l 713 431 l 713 0 l 535 0 l 535 408 q 525 471 535 444 q 493 513 515 498 q 435 528 471 528 l 435 528 q 343 503 381 528 q 276 441 304 477 l 276 441 l 276 0 z m 506 750 l 374 750 l 180 937 l 372 937 l 506 750 z "},"Ǻ":{"ha":861,"x_min":2,"x_max":859,"o":"m 199 0 l 2 0 l 330 913 l 530 913 l 859 0 l 661 0 l 595 201 l 266 201 l 199 0 z m 430 724 l 311 359 l 549 359 l 430 724 z m 429 838 l 429 838 q 325 875 366 838 q 284 975 284 912 l 284 975 q 325 1074 284 1037 q 429 1112 366 1112 l 429 1112 q 533 1074 492 1112 q 574 975 574 1037 l 574 975 q 533 875 574 912 q 429 838 492 838 z m 429 914 l 429 914 q 472 931 456 914 q 489 976 489 949 l 489 976 q 472 1019 489 1002 q 429 1036 456 1036 l 429 1036 q 387 1019 404 1036 q 370 976 370 1002 l 370 976 q 387 931 370 949 q 429 914 404 914 z m 475 1138 l 342 1138 l 469 1326 l 662 1326 l 475 1138 z "},"ǻ":{"ha":766,"x_min":62,"x_max":676,"o":"m 277 -12 l 277 -12 q 172 10 220 -12 q 93 76 123 32 q 62 185 62 119 l 62 185 q 117 323 62 277 q 271 386 172 370 q 500 406 370 403 l 500 406 l 500 441 q 470 529 500 505 q 390 553 439 553 l 390 553 q 302 527 336 553 q 267 445 267 502 l 267 445 l 99 445 q 136 579 99 530 q 238 650 173 629 q 390 672 304 672 l 390 672 q 505 662 453 672 q 596 625 557 651 q 655 555 634 600 q 676 444 676 511 l 676 444 l 676 0 l 508 0 l 503 86 q 405 13 460 38 q 277 -12 349 -12 z m 336 112 l 336 112 q 430 138 387 112 q 498 199 473 165 l 498 199 l 498 306 q 299 279 356 305 q 242 195 242 253 l 242 195 q 268 132 242 153 q 336 112 294 112 z m 397 732 l 397 732 q 293 769 334 732 q 252 869 252 806 l 252 869 q 293 968 252 931 q 397 1006 334 1006 l 397 1006 q 502 968 460 1006 q 543 869 543 931 l 543 869 q 502 769 543 806 q 397 732 460 732 z m 397 808 l 397 808 q 440 826 424 808 q 457 869 457 843 l 457 869 q 440 913 457 896 q 397 930 424 930 l 397 930 q 355 913 372 930 q 338 869 338 896 l 338 869 q 355 826 338 843 q 397 808 372 808 z m 445 1028 l 312 1028 l 446 1215 l 640 1215 l 445 1028 z "},"Ǽ":{"ha":1335,"x_min":-26,"x_max":1260,"o":"m 191 0 l -26 0 l 536 913 l 703 913 l 709 731 l 614 731 l 357 294 l 357 283 l 191 0 z m 754 201 l 262 201 l 262 359 l 754 359 l 754 201 z m 1260 0 l 647 0 l 647 913 l 1260 913 l 1260 755 l 838 755 l 838 543 l 1221 543 l 1221 390 l 838 390 l 838 158 l 1260 158 l 1260 0 z m 818 986 l 685 986 l 812 1174 l 1005 1174 l 818 986 z "},"ǽ":{"ha":1211,"x_min":62,"x_max":1147,"o":"m 839 -12 l 839 -12 q 653 29 728 -12 q 539 147 578 70 q 500 333 500 224 l 500 333 q 538 514 500 438 q 649 631 576 590 q 828 672 722 672 l 828 672 q 1062 586 976 672 q 1147 339 1147 499 l 1147 339 q 1147 317 1147 331 q 1145 296 1146 303 l 1145 296 l 680 296 q 697 208 682 249 q 748 143 713 168 q 839 118 783 118 l 839 118 q 932 143 897 118 q 968 219 968 169 l 968 219 l 1146 219 q 1103 90 1142 142 q 996 13 1063 39 q 839 -12 929 -12 z m 303 -12 l 303 -12 q 125 40 187 -12 q 62 183 62 93 l 62 183 q 116 320 62 273 q 268 384 169 367 q 500 403 366 401 l 500 403 l 500 443 q 486 508 500 484 q 447 541 472 531 q 392 551 422 551 l 392 551 q 302 526 338 551 q 267 446 267 501 l 267 446 l 99 446 q 175 617 99 562 q 390 672 250 672 l 390 672 q 507 656 458 672 q 587 609 557 641 q 627 528 617 577 l 627 528 l 538 306 q 362 296 427 307 q 270 261 297 286 q 242 199 242 237 l 242 199 q 267 134 242 157 q 337 112 292 112 l 337 112 q 412 127 375 112 q 480 173 449 142 q 532 248 512 203 l 532 248 l 602 188 q 541 81 583 126 q 437 12 498 36 q 303 -12 376 -12 z m 682 410 l 682 410 l 969 410 q 928 513 967 479 q 828 547 889 547 l 828 547 q 725 512 765 547 q 682 410 686 476 z m 638 750 l 505 750 l 639 937 l 833 937 l 638 750 z "},"Ǿ":{"ha":1024,"x_min":67,"x_max":956,"o":"m 956 890 l 156 -52 l 67 22 l 868 964 l 956 890 z m 512 -12 l 512 -12 q 270 46 369 -12 q 119 209 170 104 q 67 456 67 313 l 67 456 q 119 704 67 598 q 270 867 170 809 q 512 925 369 925 l 512 925 q 754 867 655 925 q 905 704 853 809 q 956 456 956 598 l 956 456 q 905 209 956 313 q 754 46 853 104 q 512 -12 655 -12 z m 512 142 l 512 142 q 657 185 602 142 q 738 299 713 228 q 763 456 763 370 l 763 456 q 738 613 763 542 q 657 727 713 684 q 512 770 602 770 l 512 770 q 366 727 422 770 q 285 613 311 684 q 260 456 260 542 l 260 456 q 285 299 260 370 q 366 185 311 228 q 512 142 422 142 z m 558 986 l 425 986 l 553 1174 l 745 1174 l 558 986 z "},"ǿ":{"ha":796,"x_min":58,"x_max":738,"o":"m 738 657 l 130 -63 l 58 0 l 666 720 l 738 657 z m 397 -12 l 397 -12 q 221 28 296 -12 q 104 144 145 68 q 62 328 62 220 l 62 328 q 104 513 62 437 q 221 630 145 590 q 397 671 296 671 l 397 671 q 574 630 498 671 q 692 513 650 590 q 734 328 734 437 l 734 328 q 692 144 734 220 q 574 28 650 68 q 397 -12 498 -12 z m 397 119 l 397 119 q 490 147 456 119 q 540 223 525 175 q 555 328 555 271 l 555 328 q 540 434 555 386 q 490 511 525 482 q 397 540 456 540 l 397 540 q 304 511 338 540 q 255 434 270 482 q 241 328 241 386 l 241 328 q 255 223 241 271 q 304 147 270 175 q 397 119 338 119 z m 435 750 l 302 750 l 436 937 l 630 937 l 435 750 z "},"Ș":{"ha":831,"x_min":52,"x_max":781,"o":"m 419 -12 l 419 -12 q 232 17 315 -12 q 100 111 149 47 q 52 279 52 176 l 52 279 l 247 279 q 271 196 248 227 q 333 153 294 166 q 422 140 372 140 l 422 140 q 507 152 471 140 q 565 188 544 163 q 585 249 585 212 l 585 249 q 568 308 585 285 q 505 351 550 332 q 380 393 460 370 l 380 393 q 217 452 286 420 q 110 536 148 485 q 73 671 73 588 l 73 671 q 116 815 73 760 q 235 898 159 871 q 409 924 311 924 l 409 924 q 581 896 503 924 q 706 809 659 867 q 753 661 753 751 l 753 661 l 557 661 q 514 748 558 719 q 408 777 470 777 l 408 777 q 307 754 347 777 q 267 684 267 731 l 267 684 q 284 636 267 656 q 347 595 301 615 q 479 551 393 576 l 479 551 q 650 487 583 520 q 748 400 716 453 q 781 260 781 347 l 781 260 q 733 103 781 163 q 604 16 686 43 q 419 -12 522 -12 z m 347 -281 l 347 -281 l 334 -229 q 389 -207 366 -222 q 418 -174 412 -192 l 418 -174 q 358 -153 378 -172 q 338 -104 338 -134 l 338 -104 q 359 -59 338 -78 q 421 -40 380 -40 l 421 -40 q 485 -63 460 -40 q 509 -127 509 -85 l 509 -127 q 462 -232 509 -191 q 347 -281 415 -273 z "},"ș":{"ha":716,"x_min":66,"x_max":650,"o":"m 362 -12 l 362 -12 q 254 -2 307 -12 q 159 33 201 8 q 91 100 116 58 q 66 207 66 143 l 66 207 l 233 207 q 272 130 233 151 q 363 108 311 108 l 363 108 q 443 124 414 108 q 471 180 471 141 l 471 180 q 438 236 471 218 q 320 273 404 254 l 320 273 q 194 314 250 290 q 108 379 139 338 q 77 485 77 419 l 77 485 q 100 572 77 536 q 164 630 124 608 q 253 663 203 652 q 355 673 303 673 l 355 673 q 455 663 406 673 q 543 628 504 652 q 606 564 583 604 q 630 462 630 523 l 630 462 l 463 462 q 431 532 463 513 q 355 552 399 552 l 355 552 q 282 538 309 552 q 255 494 255 525 l 255 494 q 272 461 255 475 q 326 436 289 448 q 425 410 363 424 l 425 410 q 540 372 489 395 q 621 308 591 348 q 650 204 650 268 l 650 204 q 626 103 650 144 q 562 36 602 62 q 470 -1 522 11 q 362 -12 418 -12 z m 289 -281 l 289 -281 l 275 -229 q 331 -207 308 -222 q 359 -174 353 -192 l 359 -174 q 300 -153 320 -172 q 279 -104 279 -134 l 279 -104 q 300 -59 279 -78 q 363 -40 321 -40 l 363 -40 q 427 -63 402 -40 q 451 -127 451 -85 l 451 -127 q 404 -232 451 -191 q 289 -281 357 -273 z "},"Ț":{"ha":702,"x_min":12,"x_max":690,"o":"m 447 0 l 256 0 l 256 754 l 12 754 l 12 913 l 690 913 l 690 754 l 447 754 l 447 0 z m 279 -281 l 279 -281 l 265 -229 q 320 -207 298 -222 q 349 -174 343 -192 l 349 -174 q 290 -153 310 -172 q 269 -104 269 -134 l 269 -104 q 290 -59 269 -78 q 353 -40 311 -40 l 353 -40 q 416 -63 392 -40 q 441 -127 441 -85 l 441 -127 q 394 -232 441 -191 q 279 -281 347 -273 z "},"ț":{"ha":494,"x_min":15,"x_max":449,"o":"m 449 0 l 379 0 q 223 24 279 0 q 146 99 168 48 q 125 231 125 149 l 125 231 l 125 524 l 15 524 l 15 662 l 125 662 l 125 818 l 304 818 l 304 662 l 449 662 l 449 524 l 304 524 l 304 241 q 319 164 304 189 q 385 139 334 139 l 385 139 l 449 139 l 449 0 z m 220 -281 l 220 -281 l 206 -229 q 261 -207 239 -222 q 290 -174 284 -192 l 290 -174 q 231 -153 251 -172 q 210 -104 210 -134 l 210 -104 q 231 -59 210 -78 q 294 -40 252 -40 l 294 -40 q 357 -63 333 -40 q 382 -127 382 -85 l 382 -127 q 335 -232 382 -191 q 220 -281 288 -273 z "},"Ȳ":{"ha":814,"x_min":0,"x_max":814,"o":"m 505 0 l 309 0 l 309 341 l 0 913 l 212 913 l 407 516 l 602 913 l 814 913 l 505 341 l 505 0 z m 598 1015 l 216 1015 l 216 1124 l 598 1124 l 598 1015 z "},"ȳ":{"ha":686,"x_min":0,"x_max":686,"o":"m 158 -243 l 77 -243 l 77 -97 l 137 -97 q 204 -83 177 -97 q 243 -36 231 -68 l 243 -36 l 258 0 l 0 662 l 187 662 l 355 172 l 504 662 l 686 662 l 448 0 l 423 -66 q 363 -174 397 -136 q 280 -228 330 -213 q 158 -243 231 -243 l 158 -243 z m 537 780 l 155 780 l 155 889 l 537 889 l 537 780 z "},"ȷ":{"ha":372,"x_min":-30,"x_max":276,"o":"m 33 -243 l -30 -243 l -30 -101 l 9 -101 q 75 -80 53 -101 q 97 -13 97 -59 l 97 -13 l 97 662 l 276 662 l 276 1 q 217 -180 276 -117 q 33 -243 158 -243 l 33 -243 z "},"ɓ":{"ha":814,"x_min":96,"x_max":752,"o":"m 473 -12 l 473 -12 q 354 16 401 -12 q 274 92 307 43 l 274 92 l 267 0 l 96 0 l 96 676 l 276 682 l 276 567 q 362 644 311 615 q 488 673 413 673 l 488 673 q 623 636 564 673 q 718 523 683 599 q 752 330 752 448 l 752 330 q 715 138 752 214 q 615 25 678 62 q 473 -12 552 -12 z m 429 125 l 429 125 q 531 177 494 125 q 568 327 568 229 l 568 327 q 533 485 568 433 q 436 537 498 537 l 436 537 q 339 504 380 537 q 276 426 297 471 l 276 426 l 276 232 q 335 157 296 189 q 429 125 374 125 z m 276 682 l 96 676 q 151 859 96 806 q 321 913 205 913 l 321 913 l 403 913 l 403 770 l 363 770 q 298 749 321 770 q 276 682 276 728 l 276 682 z "},"ɔ":{"ha":762,"x_min":62,"x_max":700,"o":"m 369 -13 l 369 -13 q 213 17 281 -13 q 104 106 144 47 q 62 252 64 165 l 62 252 l 237 252 q 273 158 239 191 q 368 125 308 125 l 368 125 q 482 178 446 125 q 517 327 517 231 l 517 327 q 482 481 517 427 q 368 536 446 536 l 368 536 q 278 505 309 536 q 243 424 246 475 l 243 424 l 68 424 q 110 564 69 508 q 218 647 150 619 q 369 674 286 674 l 369 674 q 542 637 467 674 q 658 523 616 600 q 700 327 700 446 l 700 327 q 656 133 700 208 q 537 22 612 58 q 369 -13 462 -13 z "},"ɖ":{"ha":814,"x_min":62,"x_max":839,"o":"m 324 -12 l 324 -12 q 190 26 250 -12 q 97 140 131 63 q 62 336 62 217 l 62 336 q 99 525 62 450 q 199 636 136 600 q 341 673 262 673 l 341 673 q 460 644 410 673 q 538 570 509 616 l 538 570 l 538 913 l 718 913 l 718 6 l 538 8 l 538 94 q 451 17 503 45 q 324 -12 399 -12 z m 839 -225 l 756 -225 q 591 -165 644 -225 q 538 8 538 -105 l 538 8 l 718 6 q 738 -62 718 -40 q 800 -83 759 -83 l 800 -83 l 839 -83 l 839 -225 z m 377 125 l 377 125 q 475 157 434 125 q 538 232 517 189 l 538 232 l 538 425 q 479 503 517 470 q 386 536 441 536 l 386 536 q 283 485 319 536 q 246 336 246 433 l 246 336 q 281 177 246 229 q 377 125 316 125 z "},"ɗ":{"ha":844,"x_min":62,"x_max":844,"o":"m 324 -12 l 324 -12 q 190 26 250 -12 q 97 140 131 63 q 62 336 62 217 l 62 336 q 99 525 62 450 q 199 636 136 600 q 341 673 262 673 l 341 673 q 460 644 410 673 q 538 570 509 616 l 538 570 l 538 677 l 718 681 l 718 0 l 546 0 l 538 94 q 451 17 503 45 q 324 -12 399 -12 z m 377 125 l 377 125 q 475 157 434 125 q 538 232 517 189 l 538 232 l 538 425 q 479 503 517 470 q 386 536 441 536 l 386 536 q 283 485 319 536 q 246 336 246 433 l 246 336 q 281 177 246 229 q 377 125 316 125 z m 718 681 l 538 677 q 593 852 538 791 q 762 913 647 913 l 762 913 l 844 913 l 844 770 l 806 770 q 740 749 762 770 q 718 681 718 727 l 718 681 z "},"ə":{"ha":772,"x_min":63,"x_max":710,"o":"m 372 674 l 372 674 q 557 633 482 674 q 671 515 633 592 q 710 328 710 437 l 710 328 q 672 148 710 224 q 562 31 635 72 q 382 -10 489 -10 l 382 -10 q 149 77 235 -10 q 63 323 63 163 l 63 323 q 64 345 63 331 q 66 366 65 359 l 66 366 l 530 366 q 513 454 529 414 q 463 519 497 494 q 372 544 429 544 l 372 544 q 279 518 314 544 q 242 443 243 493 l 242 443 l 65 443 q 107 572 68 520 q 214 649 146 623 q 372 674 282 674 z m 528 252 l 528 252 l 241 252 q 282 149 243 184 q 382 115 321 115 l 382 115 q 485 150 445 115 q 528 252 524 185 z "},"ɛ":{"ha":726,"x_min":54,"x_max":686,"o":"m 363 -11 l 363 -11 q 131 41 208 -11 q 54 182 54 94 l 54 182 q 93 290 54 250 q 211 347 132 330 l 211 347 q 112 405 140 364 q 83 492 83 446 l 83 492 q 110 575 83 534 q 197 644 136 616 q 363 671 258 671 l 363 671 q 571 620 494 671 q 650 463 648 570 l 650 463 l 485 463 q 451 523 485 499 q 363 546 418 546 l 363 546 q 278 527 304 546 q 252 477 252 508 l 252 477 q 285 426 252 444 q 367 407 317 407 l 367 407 l 435 407 l 435 282 l 381 282 q 268 261 305 282 q 231 199 231 241 l 231 199 q 267 138 231 157 q 366 119 304 119 l 366 119 q 475 144 434 119 q 519 224 517 170 l 519 224 l 686 224 q 644 96 682 149 q 537 16 607 43 q 363 -11 467 -11 z "},"ɣ":{"ha":726,"x_min":0,"x_max":726,"o":"m 446 161 l 281 161 l 0 662 l 187 662 l 363 322 l 544 662 l 726 662 l 446 161 z m 361 -119 l 361 -119 q 394 -103 384 -119 q 404 -60 404 -86 l 404 -60 q 394 0 404 -35 q 361 68 384 35 l 361 68 q 331 0 340 35 q 321 -60 321 -35 l 321 -60 q 331 -103 321 -86 q 361 -119 340 -119 z m 361 -243 l 361 -243 q 217 -195 267 -243 q 167 -64 167 -146 l 167 -64 q 190 46 167 -16 q 257 177 214 108 q 363 312 301 245 l 363 312 q 472 177 428 245 q 538 47 515 109 q 560 -64 560 -15 l 560 -64 q 509 -195 560 -146 q 361 -243 458 -243 z "},"ʃ":{"ha":412,"x_min":-5,"x_max":417,"o":"m 41 -232 l -5 -232 l -5 -94 l 36 -94 q 102 -70 88 -94 q 116 -2 116 -47 l 116 -2 l 116 682 q 138 813 116 763 q 215 888 159 864 q 371 911 270 911 l 371 911 l 417 911 l 417 772 l 376 772 q 310 748 324 772 q 296 671 296 724 l 296 671 l 296 -2 q 274 -134 296 -83 q 197 -208 252 -184 q 41 -232 142 -232 l 41 -232 z "},"ʋ":{"ha":823,"x_min":90,"x_max":732,"o":"m 407 -7 l 407 -7 q 236 25 307 -7 q 128 119 165 57 q 90 269 90 180 l 90 269 l 90 662 l 269 662 l 269 291 q 282 211 269 245 q 326 157 296 176 q 404 138 355 138 l 404 138 q 492 155 459 138 q 538 207 524 172 q 553 292 553 241 l 553 292 l 732 292 q 693 123 732 189 q 581 24 654 56 q 407 -7 508 -7 z m 732 292 l 553 292 l 553 429 q 538 506 553 481 q 473 530 524 530 l 473 530 l 441 530 l 441 669 l 477 669 q 634 645 578 669 q 711 571 689 622 q 732 439 732 520 l 732 439 l 732 292 z "},"ʒ":{"ha":704,"x_min":23,"x_max":670,"o":"m 340 -257 l 340 -257 q 107 -193 192 -257 q 23 4 23 -129 l 23 4 l 189 4 q 230 -89 189 -59 q 340 -118 271 -118 l 340 -118 q 452 -80 413 -118 q 490 33 490 -43 l 490 33 q 467 116 490 83 q 402 168 444 150 q 300 185 359 185 l 300 185 l 187 185 l 187 305 l 409 524 l 79 524 l 79 662 l 621 662 l 621 536 l 382 303 q 532 270 467 303 q 633 176 597 237 q 670 33 670 116 l 670 33 q 584 -180 670 -104 q 340 -257 498 -257 z "},"ˆ":{"ha":766,"x_min":157,"x_max":610,"o":"m 292 750 l 157 750 l 301 937 l 466 937 l 610 750 l 475 750 l 384 850 l 292 750 z "},"ˇ":{"ha":766,"x_min":157,"x_max":610,"o":"m 466 750 l 301 750 l 157 937 l 292 937 l 383 838 l 475 937 l 610 937 l 466 750 z "},"˘":{"ha":766,"x_min":184,"x_max":581,"o":"m 382 749 l 382 749 q 241 800 291 749 q 184 937 192 850 l 184 937 l 281 937 q 318 865 287 884 q 382 846 349 846 l 382 846 q 455 865 420 846 q 495 937 489 884 l 495 937 l 581 937 q 524 800 574 851 q 382 749 475 749 z "},"˙":{"ha":766,"x_min":281,"x_max":485,"o":"m 383 749 l 383 749 q 308 774 334 749 q 281 836 281 799 l 281 836 q 308 899 281 875 q 383 924 334 924 l 383 924 q 459 899 433 924 q 485 836 485 875 l 485 836 q 459 774 485 799 q 383 749 433 749 z "},"˚":{"ha":766,"x_min":238,"x_max":528,"o":"m 383 732 l 383 732 q 279 769 320 732 q 238 869 238 806 l 238 869 q 279 968 238 931 q 383 1006 320 1006 l 383 1006 q 487 968 446 1006 q 528 869 528 931 l 528 869 q 487 769 528 806 q 383 732 446 732 z m 383 808 l 383 808 q 426 826 410 808 q 443 869 443 843 l 443 869 q 426 913 443 896 q 383 930 410 930 l 383 930 q 340 913 357 930 q 323 869 323 896 l 323 869 q 340 826 323 843 q 383 808 357 808 z "},"˛":{"ha":766,"x_min":253,"x_max":513,"o":"m 393 -256 l 393 -256 q 293 -224 334 -256 q 253 -137 253 -193 l 253 -137 q 274 -70 253 -102 q 332 -12 295 -37 q 414 20 368 12 l 414 20 l 477 3 q 405 -52 427 -22 q 382 -106 382 -82 l 382 -106 q 393 -136 382 -125 q 426 -147 404 -147 l 426 -147 q 469 -141 448 -147 q 513 -125 490 -136 l 513 -125 l 513 -227 q 463 -248 490 -240 q 393 -256 435 -256 z "},"˜":{"ha":766,"x_min":163,"x_max":604,"o":"m 257 758 l 163 758 q 203 876 170 835 q 294 917 236 917 l 294 917 q 354 907 326 917 q 407 887 382 898 l 407 887 q 447 872 429 878 q 480 866 465 866 l 480 866 q 500 878 492 866 q 510 918 507 889 l 510 918 l 604 918 q 569 803 597 842 q 484 765 541 765 l 484 765 q 423 774 451 765 q 370 792 395 783 l 370 792 q 328 808 346 802 q 296 814 311 814 l 296 814 q 270 801 279 814 q 257 758 260 788 l 257 758 z "},"˝":{"ha":766,"x_min":186,"x_max":678,"o":"m 515 750 l 404 750 l 530 937 l 678 937 l 515 750 z m 296 750 l 186 750 l 311 937 l 460 937 l 296 750 z "},"̀":{"ha":0,"x_min":149,"x_max":475,"o":"m 475 750 l 343 750 l 149 937 l 341 937 l 475 750 z "},"́":{"ha":0,"x_min":288,"x_max":615,"o":"m 420 750 l 288 750 l 421 937 l 615 937 l 420 750 z "},"̂":{"ha":0,"x_min":157,"x_max":610,"o":"m 292 750 l 157 750 l 301 937 l 466 937 l 610 750 l 475 750 l 384 850 l 292 750 z "},"̃":{"ha":0,"x_min":163,"x_max":604,"o":"m 257 758 l 163 758 q 203 876 170 835 q 294 917 236 917 l 294 917 q 354 907 326 917 q 407 887 382 898 l 407 887 q 447 872 429 878 q 480 866 465 866 l 480 866 q 500 878 492 866 q 510 918 507 889 l 510 918 l 604 918 q 569 803 597 842 q 484 765 541 765 l 484 765 q 423 774 451 765 q 370 792 395 783 l 370 792 q 328 808 346 802 q 296 814 311 814 l 296 814 q 270 801 279 814 q 257 758 260 788 l 257 758 z "},"̄":{"ha":0,"x_min":193,"x_max":574,"o":"m 574 780 l 193 780 l 193 889 l 574 889 l 574 780 z "},"̆":{"ha":0,"x_min":184,"x_max":581,"o":"m 382 749 l 382 749 q 241 800 291 749 q 184 937 192 850 l 184 937 l 281 937 q 318 865 287 884 q 382 846 349 846 l 382 846 q 455 865 420 846 q 495 937 489 884 l 495 937 l 581 937 q 524 800 574 851 q 382 749 475 749 z "},"̇":{"ha":0,"x_min":281,"x_max":485,"o":"m 383 749 l 383 749 q 308 774 334 749 q 281 836 281 799 l 281 836 q 308 899 281 875 q 383 924 334 924 l 383 924 q 459 899 433 924 q 485 836 485 875 l 485 836 q 459 774 485 799 q 383 749 433 749 z "},"̈":{"ha":0,"x_min":171,"x_max":595,"o":"m 513 756 l 513 756 q 455 779 479 756 q 432 836 432 802 l 432 836 q 455 893 432 871 q 513 916 479 916 l 513 916 q 572 893 549 916 q 595 836 595 871 l 595 836 q 572 779 595 802 q 513 756 549 756 z m 254 756 l 254 756 q 195 779 219 756 q 171 836 171 802 l 171 836 q 195 893 171 871 q 254 916 219 916 l 254 916 q 311 893 288 916 q 335 836 335 871 l 335 836 q 311 779 335 802 q 254 756 288 756 z "},"̉":{"ha":0,"x_min":294,"x_max":514,"o":"m 351 757 l 351 757 l 313 812 q 358 833 338 819 q 378 869 378 847 l 378 869 q 360 901 378 893 q 310 909 342 909 l 310 909 l 294 909 l 294 990 l 323 990 q 467 965 419 990 q 514 886 514 941 l 514 886 q 492 824 514 851 q 434 781 471 798 q 351 757 397 764 z m 313 724 l 313 812 l 413 788 l 413 724 l 313 724 z "},"̊":{"ha":0,"x_min":238,"x_max":528,"o":"m 383 732 l 383 732 q 279 769 320 732 q 238 869 238 806 l 238 869 q 279 968 238 931 q 383 1006 320 1006 l 383 1006 q 487 968 446 1006 q 528 869 528 931 l 528 869 q 487 769 528 806 q 383 732 446 732 z m 383 808 l 383 808 q 426 826 410 808 q 443 869 443 843 l 443 869 q 426 913 443 896 q 383 930 410 930 l 383 930 q 340 913 357 930 q 323 869 323 896 l 323 869 q 340 826 323 843 q 383 808 357 808 z "},"̋":{"ha":0,"x_min":186,"x_max":678,"o":"m 515 750 l 404 750 l 530 937 l 678 937 l 515 750 z m 296 750 l 186 750 l 311 937 l 460 937 l 296 750 z "},"̌":{"ha":0,"x_min":157,"x_max":610,"o":"m 466 750 l 301 750 l 157 937 l 292 937 l 383 838 l 475 937 l 610 937 l 466 750 z "},"̒":{"ha":0,"x_min":292,"x_max":477,"o":"m 386 762 l 386 762 q 317 786 343 762 q 292 859 292 811 l 292 859 q 315 941 292 905 q 376 1000 338 977 q 460 1027 414 1023 l 460 1027 l 477 968 q 425 943 447 959 q 391 904 403 926 l 391 904 q 452 881 431 900 q 473 835 473 863 l 473 835 q 449 783 473 804 q 386 762 425 762 z "},"̛":{"ha":0,"x_min":-90,"x_max":170,"o":"m -77 449 l -77 449 l -90 526 q 8 571 -28 543 q 52 644 45 598 l 52 644 l 61 636 q -10 663 18 636 q -38 730 -38 690 l -38 730 q -11 798 -38 772 q 61 824 17 824 l 61 824 q 140 793 111 824 q 170 702 170 763 l 170 702 q 149 604 170 647 q 94 529 129 561 q 16 477 60 498 q -77 449 -28 457 z "},"̣":{"ha":0,"x_min":-102,"x_max":102,"o":"m 0 -233 l 0 -233 q -75 -208 -49 -233 q -102 -146 -102 -183 l -102 -146 q -75 -83 -102 -107 q 0 -58 -49 -58 l 0 -58 q 76 -83 50 -58 q 102 -146 102 -107 l 102 -146 q 76 -208 102 -183 q 0 -233 50 -233 z "},"̦":{"ha":0,"x_min":296,"x_max":472,"o":"m 310 -281 l 310 -281 l 296 -229 q 352 -207 329 -222 q 380 -174 374 -192 l 380 -174 q 321 -153 341 -172 q 300 -104 300 -134 l 300 -104 q 321 -59 300 -78 q 384 -40 342 -40 l 384 -40 q 448 -63 423 -40 q 472 -127 472 -85 l 472 -127 q 425 -232 472 -191 q 310 -281 378 -273 z "},"̧":{"ha":0,"x_min":248,"x_max":546,"o":"m 392 -257 l 392 -257 q 311 -250 344 -257 q 248 -231 278 -242 l 248 -231 l 273 -153 q 325 -169 296 -163 q 383 -174 354 -174 l 383 -174 q 424 -164 408 -174 q 439 -134 439 -154 l 439 -134 q 419 -105 439 -115 q 344 -86 399 -95 l 344 -86 l 313 -81 l 407 35 l 475 9 l 434 -41 l 399 -31 q 505 -60 463 -33 q 546 -140 546 -87 l 546 -140 q 524 -206 546 -180 q 468 -244 503 -232 q 392 -257 433 -257 z "},"̨":{"ha":0,"x_min":253,"x_max":513,"o":"m 393 -256 l 393 -256 q 293 -224 334 -256 q 253 -137 253 -193 l 253 -137 q 274 -70 253 -102 q 332 -12 295 -37 q 414 20 368 12 l 414 20 l 477 3 q 405 -52 427 -22 q 382 -106 382 -82 l 382 -106 q 393 -136 382 -125 q 426 -147 404 -147 l 426 -147 q 469 -141 448 -147 q 513 -125 490 -136 l 513 -125 l 513 -227 q 463 -248 490 -240 q 393 -256 435 -256 z "},"̵":{"ha":0,"x_min":11,"x_max":424,"o":"m 424 250 l 11 250 l 11 347 l 424 347 l 424 250 z "},"̶":{"ha":0,"x_min":0,"x_max":509,"o":"m 509 383 l 0 383 l 0 536 l 509 536 l 509 383 z "},"ͅ":{"ha":0,"x_min":-72,"x_max":96,"o":"m 96 -243 l 41 -243 q -51 -209 -31 -243 q -72 -121 -72 -175 l -72 -121 l -72 -37 l 39 -37 l 39 -98 q 45 -140 39 -125 q 80 -155 52 -155 l 80 -155 l 96 -155 l 96 -243 z "},"Ͱ":{"ha":602,"x_min":109,"x_max":576,"o":"m 300 0 l 109 0 l 109 913 l 300 913 l 300 556 l 576 556 l 576 388 l 300 388 l 300 0 z "},"ͱ":{"ha":547,"x_min":96,"x_max":503,"o":"m 276 0 l 96 0 l 96 662 l 276 662 l 276 0 z m 503 270 l 210 270 l 210 408 l 503 408 l 503 270 z "},"Ͳ":{"ha":886,"x_min":39,"x_max":848,"o":"m 539 0 l 349 0 l 349 754 l 85 754 l 85 913 l 848 913 l 848 754 l 539 754 l 539 0 z m 217 598 l 39 598 l 39 913 l 217 913 l 217 598 z m 848 598 l 669 598 l 669 913 l 848 913 l 848 598 z "},"ͳ":{"ha":752,"x_min":15,"x_max":708,"o":"m 600 1 l 516 1 q 360 24 416 1 q 284 99 305 48 q 262 231 262 149 l 262 231 l 262 524 l 161 524 l 161 385 l 15 385 l 15 662 l 708 662 l 708 385 l 562 385 l 562 524 l 441 524 l 441 241 q 456 165 441 189 q 522 140 471 140 l 522 140 l 600 140 l 600 1 z "},"ʹ":{"ha":369,"x_min":21,"x_max":349,"o":"m 153 750 l 20 750 l 154 937 l 348 937 l 153 750 z "},"͵":{"ha":369,"x_min":21,"x_max":349,"o":"m 153 -94 l 20 -94 l 154 93 l 348 93 l 153 -94 z "},"Ͷ":{"ha":1004,"x_min":109,"x_max":895,"o":"m 895 913 l 895 0 l 717 0 l 717 640 l 296 0 l 109 0 l 109 913 l 288 913 l 288 277 l 708 913 l 895 913 z "},"ͷ":{"ha":838,"x_min":96,"x_max":742,"o":"m 261 0 l 96 0 l 96 662 l 261 662 l 261 233 l 577 662 l 742 662 l 742 0 l 577 0 l 577 429 l 261 0 z "},"ͺ":{"ha":685,"x_min":264,"x_max":432,"o":"m 432 -243 l 377 -243 q 284 -209 305 -243 q 264 -121 264 -175 l 264 -121 l 264 -37 l 374 -37 l 374 -98 q 381 -140 374 -125 q 416 -155 387 -155 l 416 -155 l 432 -155 l 432 -243 z "},"ͻ":{"ha":762,"x_min":62,"x_max":700,"o":"m 369 -9 l 369 -9 q 213 21 281 -9 q 104 111 144 52 q 62 256 64 170 l 62 256 l 237 256 q 273 162 239 195 q 368 130 308 130 l 368 130 q 485 181 448 130 q 521 328 521 233 l 521 328 q 485 479 521 426 q 368 533 448 533 l 368 533 q 277 503 309 533 q 243 422 245 473 l 243 422 l 68 422 q 110 561 69 506 q 218 644 150 616 q 369 672 286 672 l 369 672 q 542 635 467 672 q 658 522 616 598 q 700 328 700 446 l 700 328 q 656 136 700 210 q 537 26 612 62 q 369 -9 462 -9 z "},"ͼ":{"ha":762,"x_min":62,"x_max":700,"o":"m 393 -9 l 393 -9 q 226 26 301 -9 q 106 136 151 61 q 62 328 62 210 l 62 328 q 104 523 62 446 q 221 635 146 599 q 393 672 296 672 l 393 672 q 545 647 477 672 q 653 571 613 622 q 694 442 693 519 l 694 442 l 519 442 q 486 509 518 484 q 394 533 453 533 l 394 533 q 280 479 315 533 q 246 328 246 426 l 246 328 q 280 181 246 233 q 394 130 315 130 l 394 130 q 489 157 454 130 q 526 235 524 184 l 526 235 l 700 235 q 658 102 698 157 q 550 19 618 47 q 393 -9 481 -9 z m 432 263 l 432 263 q 366 285 388 263 q 343 338 343 307 l 343 338 q 366 392 343 371 q 432 414 388 414 l 432 414 q 497 392 475 414 q 520 338 520 371 l 520 338 q 497 285 520 307 q 432 263 475 263 z "},"ͽ":{"ha":762,"x_min":62,"x_max":700,"o":"m 369 -9 l 369 -9 q 213 19 281 -9 q 104 102 144 47 q 62 235 64 157 l 62 235 l 237 235 q 273 157 239 184 q 368 130 308 130 l 368 130 q 481 181 446 130 q 517 328 517 233 l 517 328 q 481 479 517 426 q 368 533 446 533 l 368 533 q 277 509 309 533 q 243 442 245 484 l 243 442 l 68 442 q 110 571 69 519 q 218 647 150 622 q 369 672 286 672 l 369 672 q 542 635 467 672 q 658 522 616 598 q 700 328 700 446 l 700 328 q 656 136 700 210 q 537 26 612 62 q 369 -9 462 -9 z m 334 263 l 334 263 q 268 285 290 263 q 245 338 245 307 l 245 338 q 268 392 245 371 q 334 414 290 414 l 334 414 q 400 392 377 414 q 422 338 422 371 l 422 338 q 400 285 422 307 q 334 263 377 263 z "},";":{"ha":414,"x_min":85,"x_max":323,"o":"m 109 -210 l 109 -210 l 85 -121 q 162 -77 132 -106 q 198 0 192 -47 l 198 0 l 210 -9 q 125 23 157 -9 q 93 101 93 55 l 93 101 q 125 181 93 151 q 210 211 157 211 l 210 211 q 292 175 260 211 q 323 69 323 140 l 323 69 q 292 -72 323 -14 q 212 -164 260 -130 q 109 -210 163 -198 z m 210 441 l 210 441 q 125 473 157 441 q 93 551 93 505 l 93 551 q 125 631 93 602 q 210 661 157 661 l 210 661 q 292 631 260 661 q 323 551 323 602 l 323 551 q 292 473 323 505 q 210 441 260 441 z "},"Ϳ":{"ha":509,"x_min":25,"x_max":412,"o":"m 106 -7 l 25 -7 l 25 156 l 93 156 q 193 191 161 156 q 226 309 226 226 l 226 309 l 226 913 l 412 913 l 412 307 q 379 130 412 199 q 280 27 347 60 q 106 -7 212 -7 l 106 -7 z "},"΄":{"ha":766,"x_min":300,"x_max":517,"o":"m 408 750 l 300 750 l 342 981 l 517 981 l 408 750 z "},"΅":{"ha":766,"x_min":143,"x_max":627,"o":"m 403 750 l 315 750 l 358 991 l 492 991 l 403 750 z m 220 765 l 220 765 q 165 786 186 765 q 143 838 143 806 l 143 838 q 165 891 143 871 q 220 912 186 912 l 220 912 q 273 891 252 912 q 295 838 295 871 l 295 838 q 273 786 295 806 q 220 765 252 765 z m 551 765 l 551 765 q 497 786 519 765 q 476 838 476 806 l 476 838 q 497 891 476 871 q 551 912 519 912 l 551 912 q 606 891 584 912 q 627 838 627 871 l 627 838 q 606 786 627 806 q 551 765 584 765 z "},"Ά":{"ha":861,"x_min":-5,"x_max":859,"o":"m 199 0 l 2 0 l 330 913 l 530 913 l 859 0 l 661 0 l 595 201 l 266 201 l 199 0 z m 430 724 l 311 359 l 549 359 l 430 724 z m 103 681 l -5 681 l 38 912 l 212 912 l 103 681 z "},"·":{"ha":417,"x_min":93,"x_max":323,"o":"m 210 241 l 210 241 q 125 273 157 241 q 93 351 93 305 l 93 351 q 125 431 93 401 q 210 461 157 461 l 210 461 q 292 431 260 461 q 323 351 323 401 l 323 351 q 292 273 323 305 q 210 241 260 241 z "},"Έ":{"ha":796,"x_min":-149,"x_max":722,"o":"m 722 0 l 109 0 l 109 913 l 722 913 l 722 755 l 300 755 l 300 543 l 682 543 l 682 390 l 300 390 l 300 158 l 722 158 l 722 0 z m -41 681 l -149 681 l -106 912 l 68 912 l -41 681 z "},"Ή":{"ha":1013,"x_min":-149,"x_max":904,"o":"m 300 0 l 109 0 l 109 913 l 300 913 l 300 556 l 713 556 l 713 913 l 904 913 l 904 0 l 713 0 l 713 388 l 300 388 l 300 0 z m -41 681 l -149 681 l -106 912 l 68 912 l -41 681 z "},"Ί":{"ha":408,"x_min":-149,"x_max":300,"o":"m 300 0 l 109 0 l 109 913 l 300 913 l 300 0 z m -41 681 l -149 681 l -106 912 l 68 912 l -41 681 z "}}}
